<?xml version="1.0" encoding="utf-8"?>
<!-- Generator: Adobe Illustrator 19.0.0, SVG Export Plug-In . SVG Version: 6.00 Build 0)  -->
<svg version="1.1" id="Layer_1" xmlns="http://www.w3.org/2000/svg" xmlns:xlink="http://www.w3.org/1999/xlink" x="0px" y="0px"
	 viewBox="0 3.2 144.7 149.5" style="enable-background:new 0 3.2 144.7 149.5;" xml:space="preserve">
<style type="text/css">
	.st0{fill:#D8D29A;}
</style>
<polygon class="st0" points="78.2,80 74.6,80 74.6,72.5 78.2,73.7 "/>
<polygon class="st0" points="83.6,77.3 80.8,74.6 80.8,80 86.4,80 "/>
<polygon class="st0" points="97.9,94 72.4,94 72.4,80.6 87.2,80.6 "/>
<rect x="116.4" y="46.5" class="st0" width="3.8" height="9.8"/>
<polygon class="st0" points="91.4,83.7 85.9,77.3 85.9,67.7 91.4,67.7 "/>
<rect x="74.4" y="94.8" class="st0" width="3.8" height="44.8"/>
<rect x="99.4" y="40.2" class="st0" width="6.1" height="16"/>
<rect x="108" y="40.2" class="st0" width="5.5" height="16.1"/>
<polygon class="st0" points="116.4,67.7 120.2,67.7 120.2,80 116.4,85.4 "/>
<polygon class="st0" points="99.4,66.7 99.4,56.8 136.3,56.8 136.3,56.9 129.4,66.7 "/>
<polygon class="st0" points="99.4,67.7 105.4,67.7 105.4,101.1 99.4,109.7 "/>
<polygon class="st0" points="91.6,94.8 91.6,120.8 81.4,135.3 81.4,135.3 81.4,94.8 "/>
<polygon class="st0" points="108,67.6 113.5,67.6 113.5,89.6 108,97.4 "/>
<polygon class="st0" points="123.2,75.7 123.2,67.6 128.9,67.6 128.6,68 "/>
<polygon class="st0" points="66.5,80 70.1,80 70.1,72.5 66.5,73.7 "/>
<polygon class="st0" points="61.1,77.3 63.9,74.6 63.9,79.9 58.4,79.9 "/>
<polygon class="st0" points="46.8,94 72.3,94 72.3,80.6 57.6,80.6 "/>
<rect x="24.6" y="46.5" class="st0" width="3.8" height="9.8"/>
<polygon class="st0" points="53.3,83.6 58.8,77.3 58.8,67.7 53.3,67.7 "/>
<rect x="46.2" y="56.8" class="st0" width="52.5" height="9.9"/>
<rect x="66.5" y="94.8" class="st0" width="3.8" height="44.8"/>
<rect x="39.3" y="40.2" class="st0" width="6.1" height="16"/>
<rect x="31.2" y="40.2" class="st0" width="5.5" height="16.1"/>
<path class="st0" d="M53.2,22.1v34.1h38.5V22.1H53.2z M81.9,48.7H62.7v-17h19.2V48.7z"/>
<polygon class="st0" points="28.3,67.6 24.5,67.6 24.5,80 28.3,85.4 "/>
<polygon class="st0" points="45.4,66.7 45.4,56.8 8.4,56.8 8.4,56.9 15.3,66.7 "/>
<polygon class="st0" points="45.4,67.7 39.3,67.7 39.3,101.1 45.4,109.7 "/>
<polygon class="st0" points="53.2,94.8 53.2,120.8 63.3,135.3 63.3,135.3 63.3,94.8 "/>
<polygon class="st0" points="36.7,67.6 31.2,67.6 31.2,89.6 36.7,97.4 "/>
<polygon class="st0" points="21.5,75.7 21.5,67.6 15.9,67.6 16.1,68 "/>
</svg>
