<svg version="1.1" id="Layer_1" xmlns="http://www.w3.org/2000/svg" x="0" y="0" viewBox="69 398.7 750 248.3" style="enable-background:new 69 398.7 750 248.3" xml:space="preserve"><style>.st2{fill:#ff4f66}.st3{opacity:.6}.st5{fill:#4a4f52}</style><g id="OBJECTS"><path d="M819 404.5v-71.1M69 496l151 151H69V496z" style="fill:#e5e5e5"/><path class="st2" d="m404.8 647-58.1-58.1-58 58.1h116.1zM717 316l60.2 60.2-60.2 60.1-60.2-60.2L717 316z"/><g class="st3"/><path class="st5" d="M688.7 575.7 819 445.4v-79.2L609.5 575.7l71.3 71.3H760l-71.3-71.3zM69 475.1l112.5 112.5-59.3 59.4h76.3l59.4-59.4L69 398.7v76.4z"/><linearGradient id="SVGID_1_" gradientUnits="userSpaceOnUse" x1="69" y1="449.8" x2="69" y2="449.8" gradientTransform="matrix(1 0 0 -1 0 796)"><stop offset="0" style="stop-color:#ff4f66"/><stop offset=".424" style="stop-color:#c22b3f"/><stop offset=".762" style="stop-color:#e94258"/><stop offset="1" style="stop-color:#ff4f66"/></linearGradient><path class="st2" d="m765.2 647 53.8-53.8v-72.4L692.8 647h72.4z"/><circle class="st2" cx="109.3" cy="553.2" r="1.4"/><circle class="st2" cx="109.3" cy="540.2" r="1.4"/><circle class="st2" cx="109.3" cy="527.2" r="1.4"/><circle class="st2" cx="109.3" cy="514.2" r="1.4"/><circle class="st2" cx="109.3" cy="501.2" r="1.4"/><circle class="st2" cx="109.3" cy="488.2" r="1.4"/><circle class="st2" cx="109.3" cy="475.2" r="1.4"/><circle class="st2" cx="122.3" cy="553.2" r="1.4"/><circle class="st2" cx="122.3" cy="540.2" r="1.4"/><circle class="st2" cx="122.3" cy="527.2" r="1.4"/><circle class="st2" cx="122.3" cy="514.2" r="1.4"/><circle class="st2" cx="122.3" cy="501.2" r="1.4"/><circle class="st2" cx="122.3" cy="488.2" r="1.4"/><circle class="st2" cx="122.3" cy="475.2" r="1.4"/><circle class="st2" cx="135.3" cy="553.2" r="1.4"/><circle class="st2" cx="135.3" cy="540.2" r="1.4"/><circle class="st2" cx="135.3" cy="527.2" r="1.4"/><circle class="st2" cx="135.3" cy="514.2" r="1.4"/><circle class="st2" cx="135.3" cy="501.2" r="1.4"/><circle class="st2" cx="135.3" cy="488.2" r="1.4"/><circle class="st2" cx="135.3" cy="475.2" r="1.4"/><circle class="st2" cx="148.3" cy="553.2" r="1.4"/><circle class="st2" cx="148.3" cy="540.2" r="1.4"/><circle class="st2" cx="148.3" cy="527.2" r="1.4"/><circle class="st2" cx="148.3" cy="514.2" r="1.4"/><circle class="st2" cx="148.3" cy="501.2" r="1.4"/><circle class="st2" cx="148.3" cy="488.2" r="1.4"/><circle class="st2" cx="148.3" cy="475.2" r="1.4"/><circle class="st2" cx="161.3" cy="553.2" r="1.4"/><circle class="st2" cx="161.3" cy="540.2" r="1.4"/><circle class="st2" cx="161.3" cy="527.2" r="1.4"/><circle class="st2" cx="161.3" cy="514.2" r="1.4"/><circle class="st2" cx="161.3" cy="501.2" r="1.4"/><circle class="st2" cx="161.3" cy="488.2" r="1.4"/><circle class="st2" cx="161.3" cy="475.2" r="1.4"/><circle class="st5" cx="678" cy="403.5" r="1.4"/><circle class="st5" cx="691" cy="403.5" r="1.4"/><circle class="st5" cx="704" cy="403.5" r="1.4"/><circle class="st5" cx="717" cy="403.5" r="1.4"/><circle class="st5" cx="678" cy="416.5" r="1.4"/><circle class="st5" cx="691" cy="416.5" r="1.4"/><circle class="st5" cx="704" cy="416.5" r="1.4"/><circle class="st5" cx="717" cy="416.5" r="1.4"/><circle class="st5" cx="594.1" cy="599.6" r="1.4"/><circle class="st5" cx="584.9" cy="608.8" r="1.4"/><circle class="st5" cx="575.7" cy="618" r="1.4"/><circle class="st5" cx="566.6" cy="627.2" r="1.4"/><circle class="st5" cx="584.9" cy="590.4" r="1.4"/><circle class="st5" cx="575.7" cy="599.6" r="1.4"/><circle class="st5" cx="566.6" cy="608.8" r="1.4"/><circle class="st5" cx="557.4" cy="618" r="1.4"/><circle class="st5" cx="575.7" cy="581.2" r="1.4"/><circle class="st5" cx="566.6" cy="590.4" r="1.4"/><circle class="st5" cx="557.4" cy="599.6" r="1.4"/><circle class="st5" cx="548.2" cy="608.8" r="1.4"/><circle class="st5" cx="566.6" cy="572" r="1.4"/><circle class="st5" cx="557.4" cy="581.2" r="1.4"/><circle class="st5" cx="548.2" cy="590.4" r="1.4"/><circle class="st5" cx="539" cy="599.6" r="1.4"/><path d="M819 457.9 629.9 647M819 468.2 640.2 647M819 478.4 650.4 647M819 488.7 660.7 647M819 498.9 670.9 647" style="fill:none;stroke:#ff4f66;stroke-miterlimit:10"/><path d="M69 381.4 334.6 647M69 369.3 346.7 647M69 357.2 358.8 647M69 345l302 302M69 332.9 383.1 647" style="fill:none;stroke:#b9bcc3;stroke-width:.5;stroke-miterlimit:10" class="st3"/><path class="st5" d="m234 405.6 32.2 32.2-32.2 32.3-32.2-32.2 32.2-32.3z"/><path class="st2" d="m69 557 90 90H69v-90zm127.9-194.3"/></g></svg>