<svg xmlns="http://www.w3.org/2000/svg" xml:space="preserve" id="prefix__BACKGROUND" x="0" y="0" version="1.1" viewBox="69 147 750 269"><style>.prefix__st1{fill:#fcee21}.prefix__st4{stroke-width:3;stroke-linecap:round;stroke-linejoin:round}.prefix__st4,.prefix__st5,.prefix__st6{fill:none;stroke:#000}.prefix__st5{stroke-width:3;stroke-linecap:round;stroke-linejoin:round;stroke-dasharray:0,7.8939}.prefix__st6{stroke-width:.5;stroke-miterlimit:10}</style><circle cx="142.4" cy="353.6" r="25" fill="none" stroke="#fcee21" stroke-miterlimit="10" stroke-width="10"/><circle cx="254.8" cy="328.1" r="71.9" class="prefix__st1"/><circle cx="343.5" cy="367.9" r="12" fill="none" stroke="#fcee21" stroke-miterlimit="10" stroke-width="5"/><path d="M584.7 200.7H682v8h-97.3zM528 164.9h145.2v8H528zm-31.9 14.3h145.2v8H496.1z" class="prefix__st1"/><path fill="none" stroke="#000" stroke-miterlimit="10" d="M623.7 253.3 748 129m-81 153.5 124.3-124.3m-100.5 61.6 66.9-66.8m-134 139.8 39.4-39.5m98.1-28.9 39.4-39.4m-173 35.4L667 181M125.8 400.5v8m4-4h-8M567 378.4v8m4-4h-8m-163.1-86.2v8m4-4h-8m-25.4 7.2v8m4-4h-8m-213.1 36.2v8m4-4h-8m16.6.3v8m4-4h-8m392.8 39v8m4-4h-8m-143.6-92.8v8m4-4h-8m-18 38.8v8m4-4h-8m200.9 48.5v8m4-4h-8M682 394.9v8m4-4h-8m-42.7-209.6v8m4-4h-8m-37.9-26.2v8m4-4h-8m11.2-10.2v8m4-4h-8m4 42.1v8m4-4h-8M748 228.3v8m4-4h-8m47.3-7.1v8m4-4h-8M563 186.9v8m4-4h-8m53 41.4v8m4-4h-8m172.9 11v8m4-4h-8"/><circle cx="393.5" cy="193.7" r="35.5" class="prefix__st1"/><path d="M375.4 209.1h0" class="prefix__st4"/><path d="M383.3 209.1h161.8" class="prefix__st5"/><path d="M549.1 209.1h0m-173.7 6h0" class="prefix__st4"/><path d="M383.3 215.1h161.8" class="prefix__st5"/><path d="M549.1 215.1h0m-173.7 6h0" class="prefix__st4"/><path d="M383.3 221.1h161.8" class="prefix__st5"/><path d="M549.1 221.1h0m-173.7 6h0" class="prefix__st4"/><path d="M383.3 227.1h161.8" class="prefix__st5"/><path d="M549.1 227.1h0m-173.7 6h0" class="prefix__st4"/><path d="M383.3 233.1h161.8" class="prefix__st5"/><path d="M549.1 233.1h0m-173.7 6h0" class="prefix__st4"/><path d="M383.3 239.1h161.8" class="prefix__st5"/><path d="M549.1 239.1h0m-173.7 6h0" class="prefix__st4"/><path d="M383.3 245.1h161.8" class="prefix__st5"/><path d="M549.1 245.1h0m-173.7 6h0" class="prefix__st4"/><path d="M383.3 251.1h161.8" class="prefix__st5"/><path d="M549.1 251.1h0m-173.7 6h0" class="prefix__st4"/><path d="M383.3 257.1h161.8" class="prefix__st5"/><path d="M549.1 257.1h0m-173.7 6h0" class="prefix__st4"/><path d="M383.3 263.1h161.8" class="prefix__st5"/><path d="M549.1 263.1h0m-173.7 6h0" class="prefix__st4"/><path d="M383.3 269.1h161.8" class="prefix__st5"/><path d="M549.1 269.1h0m-173.7 6h0" class="prefix__st4"/><path d="M383.3 275.1h161.8" class="prefix__st5"/><path d="M549.1 275.1h0m-173.7 6h0" class="prefix__st4"/><path d="M383.3 281.1h161.8" class="prefix__st5"/><path d="M549.1 281.1h0m-173.7 6h0" class="prefix__st4"/><path d="M383.3 287.1h161.8" class="prefix__st5"/><path d="M549.1 287.1h0" class="prefix__st4"/><path d="M16.1 360.4c11.2 8.9 25.4 11 38.9 11.6 27.8 1.2 26.4-37 46.4-40.3 17.5-2.8 28.3-9.4 36.5-25.5 13.8-27.3 40.3-15.6 57.2-.3 26.2 23.6 54.4 56.4 93.4 41.2 29.5-11.5 46.3-28.9 57.4-59 4.7-12.7 9.3-26.9 11.1-40.4 1.7-13.6-3.1-31.6 9-40.7 24.1-18.1 65.2 3.3 92.2-6.5 19.8-7.1 27.1-17.7 17.8-38.8-12.8-29 24.3-40.8 45.1-47.4 18.1-5.7 47.7 1.6 62-13.6" class="prefix__st6"/><path d="M14.9 356.3c11.1 8.5 25 10.5 38.2 10.9 15.4.5 24.5-14.5 30.8-26.8 4.3-8.5 8.9-16.2 14.8-16.8 18.1-2 27.3-8.6 36.5-24.1 2.6-4.5 5.6-8.2 8.9-10.7 16.8-12.7 35-.7 47.9 10 14.1 11.8 28.3 28 44.3 37.5 17.1 10.1 33.1 12.3 52.3 6.5 11.7-3.6 24.9-10 33.1-18.8 10-10.8 17-24.4 22.8-38.6 1.2-2.9 2.2-6 3.2-9.1 3.9-12.4 6.4-23.6 7.1-36.6.7-12.5-3-26.2 6.9-35.6.4-.3.8-.7 1.2-1 25.6-17.7 66 4.5 93.3-4.8 20.5-7 25.8-17.7 16.7-38.8-6.7-15.5 2.3-25.8 14.2-33.1 9.7-6 22.2-10.2 33.7-13.7 18.2-5.5 47.1 1.4 61.4-13.3" class="prefix__st6"/><path d="M13.7 352.2c11.2 7.9 24.5 9.6 37.4 9.6 15.5-.1 24.1-16.8 30.2-29.2 4.3-8.7 8.8-16.2 14.7-16.9 17.4-2 26.7-7.8 36.6-22.2 2.8-4 5.9-7.1 9.3-9.2 17.3-10.6 33.1-2.2 46.8 8.2 15 11.4 29.9 27.1 45.8 37.2 17.1 10.8 34.2 14.8 53.9 9.2 11.3-3.2 24-9.6 31.9-18.5 9.4-10.6 17.1-23.3 22.6-37.2 1.1-2.9 2.2-5.9 3.2-9.1 4.2-13.1 5.7-23.8 5.8-37.5.1-12.6-3.6-26.6 6.6-36 .4-.3.8-.7 1.2-1 26-17.4 66.9 5.8 94.2-3.1 21-6.9 24.1-17.6 15.6-38.7-6.4-16.1 4.6-25.8 16.7-32.8 10.1-5.8 22.4-9.9 33.9-13.5 18.2-5.6 46.2 1.1 60.8-13" class="prefix__st6"/><path d="M12.4 347.9c10.7 6.9 24.2 8.9 36.6 7.7 16-1.5 23.5-18.7 29.7-31.2 4.3-8.7 8.9-15.9 14.6-16.6 15.7-1.8 27.2-7.1 37-19.8 2.7-3.5 6.3-5.9 9.9-7.9 17.1-9.5 31.6-3.4 45.7 6.7 15.4 11 30.8 25.8 46.7 36 17.6 11.2 35.6 17.2 55.7 11.9 10.8-2.8 22.4-9.4 30.5-18.2 9.6-10.5 17.2-22.6 22.6-35.7 1.2-2.9 2.2-5.9 3.3-9 4.7-13.9 4.9-24 4.3-38.5-.5-12.7-4-26.9 6.6-36.3.4-.3.8-.7 1.3-1 26.5-17.1 67.7 7.1 95.1-1.6 21.3-6.7 22.2-17.7 14.6-38.7-6-16.6 7-25.7 19.3-32.3 10.3-5.5 22.5-9.7 34.1-13.3 18-5.6 45.6.8 60.2-12.7" class="prefix__st6"/><path d="M11.2 343.7c10.6 6.2 23.9 7.4 35.8 5.5 15.7-2.5 22.9-20.1 29.3-32.7 4.3-8.6 9-15.3 14.7-16 15.1-1.8 26.5-6.4 37.3-17.1 2.9-2.9 6.8-5.3 10.6-7.2 16.8-8.5 30.8-4.4 44.8 5.4 15.1 10.7 31 24.3 46.7 34.4 18.1 11.5 38.2 19.9 57.4 14.5 10.2-2.8 20.9-9 29.3-17.7 9.5-9.9 17.5-21.6 22.8-34.4 1.2-2.8 2.3-5.8 3.4-9 4.4-12.4 4.5-21.5 3.3-34.6-1.3-13.9-6.4-31 6.1-41.4.4-.3.9-.7 1.3-1 26.9-16.7 68.5 8.3 95.8-.2 21.3-6.6 20.3-17.9 13.6-38.6-5.4-16.9 9.6-25.6 22-31.9 10.5-5.3 22.6-9.5 34.2-13.2 17.8-5.6 44.9.6 59.5-12.4" class="prefix__st6"/><path d="M9.9 339.4c10.6 5.3 23.7 5.6 34.9 3 15.3-3.5 22.3-21.3 28.9-33.8 4.4-8.3 9.1-14.3 14.9-15 14.6-1.6 26.4-5.1 38-14.5 3.3-2.7 7.3-4.8 11.2-6.7 16.5-7.9 30.1-5.5 44 4 14.8 10.2 30.5 22.9 46.1 32.7 18.6 11.6 39.6 21.7 58.9 16.8 9.8-2.5 20-8.6 28.6-16.7 9.9-9.3 17.7-20.7 23.1-33.2 1.2-2.8 2.3-5.9 3.4-9 8.7-22.7-13.4-60.1 8.2-76.9.4-.3.9-.7 1.4-1 27.5-16.5 68.2 9.6 96.1 1 21.8-6.7 18.6-18 13-38.4-4.6-16.9 12.4-25.3 24.8-31.1 10.7-5.1 22.6-9.3 34.2-13.1 17.6-5.7 44.2.4 58.8-12.2" class="prefix__st6"/><path d="M8.7 335.2c10.6 4.5 23.3 3.6 33.9.3 14.7-4.6 21.6-22 28.6-34.3 4.5-7.8 9.4-13.1 15.1-13.7 14.2-1.4 27-3.9 38.9-12.2 3.5-2.5 7.7-4.5 11.7-6.3 16.3-7.6 29.6-6.2 43.4 2.6 14.3 9.2 29.5 21.7 44.8 31.1 17.2 10.5 40.6 24.3 60 18.6 9.9-2.9 20-7.8 28.5-15.3 10.1-8.9 18-19.9 23.4-32.2 1.2-2.8 2.3-6 3.5-9 9.6-23-17.7-60 7.1-77.7.5-.3 1-.7 1.4-.9 28.1-16.1 65.9 8 96.1 2.1 23.9-4.7 16.2-21.7 12.6-38.3-3.7-17.1 15.2-25.2 27.5-30.8 10.8-4.9 22.6-9.2 34.1-13 17.4-5.8 43.4.1 58.1-11.9" class="prefix__st6"/><path d="M7.4 331.1c11 3.8 23.1.9 33-2.5 13.7-4.7 20.8-22.5 28.5-34.4 4.6-7.2 9.7-11.5 15.4-12 14.2-1.2 27.3-2.7 39.8-10.4 3.7-2.3 8-4.2 12-6.1 15.9-7.3 29.2-7.3 42.9 1.1 13.8 8.5 28.5 20.7 43.2 29.7 17.3 10.5 40.7 24.6 60.6 19.9 10.1-2.4 20.3-6.4 29-13.5 10.3-8.4 18.3-19.3 23.8-31.3 1.3-2.8 2.4-5.9 3.6-9 9.4-23.5-21-60.5 6.2-78.3l1.5-.9c28.6-15.5 65.6 8.3 95.8 3 24-4.2 14.8-22.2 12.4-38.3-2.6-16.9 17.8-24.7 30.2-30.2 10.8-4.7 22.5-9.1 33.9-12.9 17.3-5.9 42.7-.1 57.4-11.6" class="prefix__st6"/><path d="M6.2 327c11 2.8 22.6-1.2 32.1-5.2 13.2-5.6 19.8-22.5 28.4-33.9 4.8-6.3 9.9-9.5 15.7-9.9 14.3-.9 27.9-2.3 40.7-9.4 3.9-2.2 8.2-4.2 12.4-6 16-6.6 28.2-8.9 42.5-.5 13.4 7.8 27.6 19.8 41.7 28.4 17.6 10.7 40.4 24.4 60.6 21.1 10.3-1.7 20.6-4.9 29.7-11.9 10.4-8.1 18.6-18.7 24.2-30.6 1.3-2.8 2.6-5.9 3.7-9 7.7-23.1-23.2-61.5 5.5-78.7.5-.3 1.1-.6 1.6-.9 29-14.7 65.3 8.6 95.3 3.8 23.9-3.8 13.6-22.9 12.4-38.3-1.4-16.6 20.2-24.2 32.8-29.5 10.9-4.6 22.3-9 33.6-12.9 17.1-6 41.9-.3 56.7-11.3" class="prefix__st6"/><path d="M5 323.1c11.3 1.2 21.7-3.1 31.1-7.8 12.7-6.4 18.7-22.3 28.3-32.8 5-5.3 10.2-7.4 16.1-7.8 14.5-.9 28.5-2.1 41.6-9 4-2.1 8.3-4.1 12.6-6 15.6-6.7 28.2-10 42.3-2.3 13 7.1 26.8 19 40.4 27.4 18.7 11.6 40.1 23.3 60.2 22.4 10.1-.5 21-3.6 30.3-10.4 10.6-7.8 19-18.2 24.6-30.1 1.3-2.8 2.8-5.9 3.5-9.2 4.6-23.4-24.7-62.5 5.4-78.8.6-.3 1.1-.6 1.7-.8 29.5-13.5 64.5 8.8 94.5 4.4 23.8-3.4 13-23.3 12.7-38.3-.4-16.2 22.7-23.8 35.3-28.9 10.9-4.4 22.1-8.9 33.3-12.9 17-6.1 41.1-.5 55.9-11.1" class="prefix__st6"/><path d="M3.8 319.3c11.2 0 21.2-5 30.2-10.2 12.1-6.9 17.5-22.1 28.4-30.9 5.1-4.1 10.5-5.7 16.5-6 14.6-.9 29.1-2.2 42.5-9 4.1-2.1 8.5-4.2 12.7-6.1 15.3-6.9 28.1-11.2 42.2-4.1 12.7 6.4 26.2 18.1 39.2 26.4 18.5 11.7 39.4 23.4 59.5 23.6 10.4.1 21.3-2.2 31-9 10.8-7.5 19.4-17.8 25.1-29.6 1.3-2.8 2.5-6 2.8-9.5 2-23.4-26-63.5 6-78.3.6-.3 1.2-.5 1.8-.8 30-12.1 63.5 8.6 93.5 4.7 23.5-3 12.1-24 13-38.5.9-15.9 24.7-23.1 37.5-28.2 10.8-4.3 21.9-8.9 32.9-12.9 17.1-6.2 39.9-.9 55.2-10.8" class="prefix__st6"/><path d="M2.6 315.7c11-1.1 20.8-6.8 29.4-12.4 11-7.2 17-21.6 28.5-28.5 5.2-3.1 10.8-4.2 16.9-4.6 14.8-1 29.7-2.6 43.2-9.4 4.2-2.1 8.5-4.3 12.8-6.4 12.9-6.3 28.2-14 42.2-6.1 13.1 7.4 25.7 17.3 38.3 25.4 18.3 11.8 38.6 23.6 58.7 24.9 10.6.7 21.5-.9 31.6-7.7 10.9-7.3 20.3-17.4 25.5-29.3 1.2-2.8 1.7-6.3 1.7-9.8 0-23.3-26.2-64.2 7.3-77.3.6-.2 1.2-.5 1.8-.7 30.2-10.8 62.3 8.3 92.3 4.7 23.2-2.5 11.4-24.7 13.6-38.4 2.4-15.4 26.3-22.3 39.7-27.6 10.8-4.3 21.6-8.8 32.4-12.9 16.9-6.4 39.1-1.1 54.5-10.4" class="prefix__st6"/><path d="M1.5 312.3c10.7-2.2 20.1-8.3 28.6-14.2 10.1-7.2 17-20.2 28.6-25.8 5.4-2.6 11.1-3.1 17.2-3.5 15-1.1 30.2-3 43.8-10.1 4.2-2.2 8.6-4.5 12.9-6.7 12.8-6.8 28-15.1 42.2-8.1 13 6.4 25.3 16.4 37.6 24.5 18 12 37.7 23.9 57.7 26.2 10.8 1.2 21.8.3 32.1-6.4 10.9-7.1 21.6-17.1 25.5-29.1.9-2.8.9-6.4.7-10.1-1.5-23.8-25.9-63.9 9.4-75.8.6-.2 1.3-.4 1.9-.6 30.2-9.5 61.1 7.8 90.8 4.5 22.9-2.5 10.8-26.2 14.3-39 4-14.7 27.5-21.2 41.7-26.9 10.6-4.3 21.3-8.8 31.9-13 16.8-6.5 38.4-1.2 53.9-10.1" class="prefix__st6"/><path d="M.4 309.1c10.4-3.1 19.6-9.5 27.8-15.7 9.3-7 17.3-18.5 28.8-22.8 5.6-2.1 11.3-2.4 17.4-2.9 15.2-1.3 30.7-3.7 44.3-11.1 4.2-2.3 8.6-4.7 12.8-7.2 12.7-7.3 27.6-16.1 42.2-10.1 13 5.4 25.2 15.4 37.2 23.5 17.8 12.1 36.9 24.2 56.6 27.4 10.9 1.7 22 1.7 32.6-5.1 10.6-6.7 22.4-16.3 24.8-29 .5-2.9.3-6.6-.1-10.2-2.8-24.9-24.9-63.1 12-74 .7-.2 1.3-.4 2-.6 30.1-8.3 59.9 7.2 89.2 4.1 22.5-2.4 10.5-27.1 15.3-39.3 5.6-14.2 28.6-20.4 43.3-26.3 10.4-4.2 20.9-8.9 31.3-13 16.7-6.7 37.6-1.4 53.2-9.8" class="prefix__st6"/><path d="M-.7 306.1c10-3.8 18.8-10.5 27.1-16.8 9-6.9 17.6-16.6 28.9-20 5.7-1.7 11.4-2 17.6-2.6 15.4-1.5 31.2-4.4 44.8-12.3 4.2-2.4 8.5-5.1 12.7-7.7 12.6-8 27-17.3 42-12 13.2 4.6 25.3 14.3 37.1 22.5 17.6 12.2 36.1 24.7 55.6 28.6 10.8 2.2 22.2 3 33-3.7 10.5-6.6 22.7-15.4 23.7-28.9.2-3-.1-6.7-.7-10.4-3.9-26.2-22.9-62 15.2-72 .7-.2 1.4-.4 2-.5 29.7-7.2 58.7 6.6 87.4 3.7 22.2-2.3 10.4-27.6 16.6-39.6 7.2-13.9 29.5-19.7 44.7-25.8 10.2-4.2 20.5-8.9 30.7-13.1 16.6-6.8 36.9-1.5 52.7-9.4" class="prefix__st6"/><path d="M-1.8 303.3c9.6-4.4 18.1-11 26.5-17.1 9-6.6 17.8-14.9 29-17.7 5.8-1.5 11.4-1.8 17.7-2.5 15.6-1.8 31.6-5.1 45-13.6 4.1-2.6 8.4-5.4 12.6-8.3 12.4-8.7 26-18.3 41.7-13.9 13.6 3.9 25.7 13.2 37.4 21.3 17.5 12.2 35.4 25.1 54.7 29.8 10.8 2.7 22.5 4.2 33.3-2.4 10.8-6.5 22-14.9 22.1-28.8 0-3-.5-6.7-1.1-10.4-4.8-27.7-20.2-60.7 18.8-69.8.7-.2 1.4-.3 2.1-.5 29-6.2 57.5 6 85.5 3.1 22-2.3 10.3-28 18-39.8 8.9-13.6 30.3-19.1 45.7-25.5 10-4.1 20-9 30-13.2 16.6-7 36.2-1.6 52.2-8.9" class="prefix__st6"/><path d="M-2.8 300.6c9.2-4.7 17.6-11.1 25.9-16.9 9-6.3 18-13.4 28.9-16 5.8-1.4 11.4-1.9 17.7-2.7 15.8-2 32-5.8 45.2-15 4.1-2.8 8.3-5.9 12.3-9 13.4-10.4 25.1-16.8 40.9-15.2 13.3 1.4 26.5 11.6 38.1 19.7 17.2 12 34.9 25.5 54 31 10.7 3.1 22.7 5.1 33.7-1.1 10.6-6 20.7-15.3 20.1-28.6-.1-3-.7-6.7-1.4-10.4-5.1-29.1-16.3-59.1 23-67.2.7-.1 1.4-.3 2.1-.4 28.3-5.3 56.3 5.4 83.6 2.5 21.9-2.3 10.1-28.3 19.6-40.1 10.7-13.3 30.8-18.5 46.5-25.2 9.7-4.2 19.5-9.1 29.2-13.3 16.5-7.2 35.6-1.7 51.8-8.5" class="prefix__st6"/><path d="M-3.9 298c8.8-4.9 17-11 25.4-16.5 9.2-6 18.1-12 28.9-14.7 5.8-1.4 11.3-2.2 17.6-3.1 15.9-2.2 32.3-6.4 45.1-16.4 4-3.1 8.3-6.4 12-9.7 12-10.4 24.9-15.6 39.6-15.3 14 .3 27.7 8.8 39.5 16.8 17.1 11.6 34.1 24.7 53.5 32 10.4 3.9 23.7 6.3 34 .2 10.2-6 18.6-15.6 17.8-28.1-.2-2.9-.9-6.7-1.5-10.4-5.2-30.4-11.6-57.5 27.5-64.7.7-.1 1.4-.3 2.2-.4 27.5-4.5 55.1 4.9 81.6 2 21.8-2.4 9.8-28.5 21.2-40.4 12.4-12.9 31.2-18.1 47.1-25.1 9.5-4.2 19-9.2 28.5-13.4 16.5-7.3 35.1-1.8 51.5-8" class="prefix__st6"/><path d="M-4.9 295.6c8.5-5 16.6-10.8 24.9-15.9 9.1-5.6 18.3-10.9 28.7-13.8 5.7-1.6 11.3-2.9 17.5-3.8 16-2.4 32.5-7 45-17.7 3.9-3.4 8-6.5 11.5-9.5 11.6-9.6 23.8-14.4 37.9-15 14.3-.6 28.7 6.4 40.9 13.6 17.5 10.2 34.5 24.5 53.7 32.4 9.9 4.1 24.2 7.9 33.8 1.5 9-6 16.6-15.5 15.8-27.3-.2-2.9-.9-6.6-1.4-10.3-4.9-31.6-6.1-55.9 32.3-62.1.7-.1 1.5-.3 2.2-.3 25.9-3.2 53.9 4.3 79.6 1.5 18.6-2.1 14.2-30.7 22.9-40.7 10.7-12.3 31.3-17.7 47.4-25 9.3-4.2 18.4-9.3 27.7-13.5 16.6-7.5 34.6-1.9 51.3-7.5" class="prefix__st6"/><path d="M-5.9 293.3c8.2-5 16-10.5 24.4-15.2 9.2-5.2 18.5-10.1 28.6-13.5 5.7-2 11.1-3.8 17.3-4.8 16.2-2.6 32.1-7.8 44.6-18.4 3.7-3.1 7.6-5.8 11-8.4 10.3-8.4 22.6-14.4 36-15 14.8-.6 28.9 4.3 41.5 10.5 18.1 9 36.5 24.1 55 31.4 9.7 3.8 23.4 9 32.3 2.9 7.8-5.4 15.6-14.8 14.9-26.3-.2-2.8-.8-6.5-1.2-10.1-4-32.3.1-54.1 37.3-59.6.7-.1 1.5-.2 2.2-.3 25.1-2.7 52.7 4.1 77.6 1.1 17.9-2.2 15.3-31.2 24.6-41.1 11.4-12 31.4-17.4 47.5-25 9-4.3 17.9-9.5 26.8-13.6 16.6-7.7 34.3-2 51.3-6.8" class="prefix__st6"/><path d="M-6.9 291s6.6-5.3 23.9-14.6c9.1-4.9 18.8-9.6 28.3-13.7 5.6-2.5 11.1-5.3 17.1-6.3 15.8-2.6 31.2-7.9 44.2-17.6 3.6-2.7 7.3-5.1 10.4-7.5 10-7.6 21.4-13.7 34.2-14.7 14.6-1.2 28.5 2.4 41.3 7.7 18.6 7.8 37.4 21.8 55.9 29.5 9.1 3.8 22.9 9.8 31.1 4.1 7.2-5.1 15.4-13.6 15-24.8-.1-2.7-.6-6.4-.9-9.9-2.6-32.7 6.7-52.4 42.4-57.1.7-.1 1.5-.2 2.2-.3 24.3-2.2 51.5 4 75.7.8 9.6-1.3 11.1-6.4 14.2-14 4.8-11.8 2.7-18.3 12.1-27.5 11.9-11.7 31.5-17.3 47.3-25 8.7-4.3 17.4-9.7 26-13.8 16.4-7.7 34.1-2.1 51.4-6.1" class="prefix__st6"/><path d="M-7.9 288.8s6.2-5.4 23.4-14c9.3-4.7 18.8-9.4 28-14.5 5.6-3.1 10.9-7 16.8-8 15.1-2.5 30.6-6.4 43.6-15.3 3.5-2.4 7-4.5 10-6.7 9.6-7.1 20.1-13.3 32.3-14.8 14.2-1.7 27.9.9 40.6 5.3 18.8 6.5 37.9 18.8 56.2 27 8.7 3.9 21.7 10.6 30.2 5 9.3-6.2 14.2-11.9 16-23.1.4-2.4-.3-6.2-.4-9.7-.7-32.5 13.5-50.7 47.5-54.7.7-.1 1.5-.2 2.2-.2 23.6-1.8 50.4 4.1 73.9.6 9.7-1.4 10.9-6.8 14.2-14.3 5.2-12.1 3.9-18.4 13.9-27.7 12.2-11.3 31.4-17.2 47-25.1 8.5-4.3 16.7-10 25.3-14 16.5-7.6 34-2.1 51.5-5.3" class="prefix__st6"/><path d="M-8.9 286.6s5.8-5.4 22.8-13.6c9.5-4.6 18.9-9.7 27.6-15.9 5.5-3.9 10.7-7.5 16.6-8.4 15.1-2.3 29.7-4.7 43-13.1 3.4-2.1 6.8-4.1 9.6-6.2 9.7-7.2 19.2-12.5 30.4-15 12.6-2.8 27-.3 39.5 3.3 18.7 5.4 37.7 16.3 55.8 24.2 8.5 3.7 21.4 10.7 29.6 5.5 7.5-4.7 16.5-10.2 17.5-21.2.2-2.6.1-6 .3-9.4 1.6-31.8 20.3-49 52.5-52.5.7-.1 1.5-.2 2.2-.2 22.9-1.4 49.2 4.4 72.2.6 9.8-1.6 10.7-7.2 14.1-14.7 5.6-12.2 5.1-18.6 15.6-27.9 12.4-11.1 31.1-17.2 46.3-25.3 8.2-4.4 16.2-10.3 24.7-14.1 16.7-7.5 34-2.1 51.6-4.4" class="prefix__st6"/><path d="M-9.8 284.3s5.5-5.4 22.3-13.3c10.1-4.8 18.6-10.8 27.1-17.8 5.4-4.4 10.6-6.6 16.5-7.3 14.8-1.7 29.2-3.5 42.3-11.2 3.3-1.9 6.6-3.8 9.2-5.8 9.2-6.9 18.2-12.7 28.7-15.5 11.8-3.2 26.1-1.2 38.1 1.6 18.4 4.3 37 13.8 54.9 21.2 8.4 3.5 21 10.5 29.3 5.7 7.8-4.5 17.5-8.2 19.6-19.3.5-2.5.5-5.8 1-9 4.4-30.7 26.4-47.4 57.4-50.5.7-.1 1.5-.2 2.1-.2 22.3-1.1 48 5 70.6.8 9.9-1.8 10.4-7.6 14-15.2 5.9-12.4 6.5-18.9 17.2-28.1 12.5-10.6 30.8-17 45.5-25.4 7.9-4.5 15.8-10.6 24.3-14.3 16.9-7.4 34.1-2.1 51.9-3.5" class="prefix__st6"/><path d="M-10.8 282.1s5.2-5.4 21.7-13.3c10.1-4.9 18.2-12.8 26.5-19.3 4.8-3.8 10.5-5.2 16.4-5.7 14.5-1.2 28.7-2.4 41.7-9.6 3.2-1.8 6.4-3.6 8.9-5.5 8.8-6.7 17.6-12.9 27.3-16.4 11-4 24.8-1.7 36.6.4 18.2 3.2 36.1 11.9 53.5 18.4 8.6 3.2 21 9.7 29.2 5.6 8.1-4 18.5-6.1 21.9-17.3.7-2.4 1.1-5.5 1.9-8.7 7.3-29.1 32.2-45.9 61.9-48.7.7-.1 1.4-.1 2.1-.2 22.7-1.4 46.6 5.9 69.2 1.2 10-2 10.2-8.1 14-15.7 6.2-12.4 7.9-19.2 18.6-28.3 12.5-10.6 30.3-17.2 44.4-25.9 7.7-4.8 15.7-10.7 24.1-14.4 17-7.3 34.2-2 52.1-2.5" class="prefix__st6"/><path d="M-11.8 279.8s5-5.4 21.1-13.6c9.9-5 17.3-14.2 26-19.9 4.8-3.2 10.5-4.1 16.4-4.4 14.4-.7 28.3-1.4 41.2-8.3 3.1-1.7 6.3-3.5 8.7-5.4 8.4-6.6 16.9-13.6 26.1-17.5 10.4-4.4 23.6-2.2 35.1-.6 17.4 2.5 34.7 10 51.5 15.8 8.7 3 20.7 9.1 29.1 5.3 8.7-4 19.4-4.4 24.3-15.3 1-2.2 1.6-5.3 2.8-8.3 10.3-27.1 37.2-44.6 66.2-47.2.7-.1 1.4-.1 2.1-.2 22.4-1.2 45.5 7 68.1 1.9 10.1-2.3 10-8.6 14-16.2 6.4-12.4 9.2-19.5 20-28.6 12.4-10.4 29.3-17.2 43.1-26.3 7.7-5.1 15.6-10.9 24.2-14.4 17.1-7.1 34.5-2 52.4-1.4" class="prefix__st6"/><path d="M-12.9 277.4s5.2-5.3 20.4-14.1c9.4-5.4 16-14.8 25.5-19.7 5-2.6 10.5-3.2 16.3-3.3 14.2-.2 28.1-.4 40.8-7.1 3.1-1.6 6.2-3.4 8.6-5.4 8.2-6.8 16.4-14.5 25.4-19.1 9.8-4.9 22.7-2.9 33.6-1.2 16.3 2.5 33 8.6 49.2 13.8 8.8 2.8 21 8.6 29 4.9 8.6-4 20.8-2.8 26.8-13.4 1.2-2.1 2.3-5 3.8-7.8 13.4-25 41.2-43.4 69.9-45.9.7-.1 1.4-.1 2-.1 21.2-.3 45.2 8.1 67.1 2.7 7.8-1.9 9.5-6.8 12.9-13.1 7.2-13.4 10.2-22.6 22.3-32.5 12.3-10.2 28.1-17.3 41.7-26.7 7.7-5.4 15.7-10.9 24.3-14.4 17.2-6.9 34.8-2 52.7-.3" class="prefix__st6"/><path d="M-13.9 274.9s5.7-5.2 19.7-15C14 254.2 21.3 245 30.9 241c5.1-2.1 10.5-2.5 16.3-2.3 14 .3 27.9.6 40.6-6.1 3-1.6 6.1-3.4 8.5-5.6 8.3-7.4 15.9-16.2 25.1-21.1 9.5-5.1 21.6-3.5 32.4-1.7 15.3 2.5 31.2 7.9 46.5 12.4 8.9 2.6 20.6 7.9 28.8 4.4 9.4-4 21.7-1.5 29.2-11.5 1.5-2 2.9-4.6 4.9-7.4 16.8-22.9 43.9-42.4 73.1-45 .7-.1 1.4-.1 2-.1 21-.1 44.7 9.7 66.4 3.7 7.9-2.2 9.3-7.2 12.8-13.7 7.4-13.5 11.4-22.9 23.4-33 12.1-10.1 27.4-17.9 40.3-27.2 7.5-5.4 16.1-11.5 24.5-14.3 17.1-5.7 34.3-2.1 53 .9" class="prefix__st6"/><path d="M-14.9 272.3s5.5-5.3 19-16.1c7.4-6 15.1-14.3 24.7-17.5 5.1-1.7 10.5-1.9 16.2-1.6 13.9.7 27.9 1.6 40.5-5.2 3-1.7 6.1-3.5 8.5-5.8 8.4-8 16-17.9 25.3-23.7s20.6-4.3 31.5-2.2c14.3 2.7 29.1 8 43.6 12 8.9 2.5 20 7.3 28.5 3.9 10.2-4 22.5-.5 31.5-9.6 1.8-1.8 3.6-4.3 6.1-6.9 19.8-20.5 45.8-41.7 75.5-44.4.6-.1 1.3-.1 1.9-.1 22.2-.9 43.5 12 66 5 8-2.5 9.1-7.7 12.7-14.3 7.5-13.6 12.4-23.3 24.4-33.4 11.8-10 26.3-18.6 38.9-27.8 7.5-5.5 16.2-11.5 24.7-14.2 17.2-5.5 34.8-2.2 53.3 2.1" class="prefix__st6"/><path d="M-16 269.6s4.7-6.5 18.2-17.6c7.2-5.9 15-13.2 24.3-15.8 5.2-1.5 10.5-1.6 16.2-1.1 13.8 1.1 28 2.6 40.5-4.4 3.1-1.7 6.1-3.7 8.6-6.2 8.5-8.6 15.2-19.7 26.3-25.6 10.4-5.5 20.1-5.6 30.6-3.6 12.9 2.5 26.9 8.8 40.5 12.5 9 2.4 19.4 6.7 28.1 3.6 10.9-4 23.2.4 33.4-7.8 2.1-1.7 4.3-3.9 7.3-6.4 21.3-18.2 47.7-41.2 77.1-44.1.6-.1 1.2-.1 1.9-.1 22.3-.9 43.3 14.2 65.8 6.5 8.1-2.7 8.9-8.3 12.6-14.9 7.6-13.7 13.5-23.7 25.3-33.8 11.5-9.9 25.1-19.5 37.6-28.3 7.7-5.4 16.3-11.5 24.9-14 17.3-5.2 35.3-2.2 53.7 3.4" class="prefix__st6"/><path d="M-17 266.8s4.3-8.2 17.5-18.7c7.1-5.6 14.8-12.1 24-14.5 5.2-1.3 10.5-1.5 16.2-.9 13.8 1.4 28.3 3.5 40.8-3.7 3.1-1.8 6.2-3.9 8.8-6.6 8.4-9.3 15.3-20.4 27.3-26.4 10.3-5.1 20-6.1 30.4-4.7 12.2 1.6 25.1 8.2 37.6 12 8.5 2.6 18.8 6.3 27.4 3.4 11.6-3.9 23.8 1.2 35-6 2.4-1.5 5.2-3.7 8.5-6.2 22-16.4 49.1-40.7 77.7-44 .6-.1 1.2-.1 1.8-.1 22.4-.9 43.4 16.7 66 8.3 8.1-3 8.7-8.8 12.5-15.6 7.6-13.7 14.3-24 26-34.3 11.2-9.8 23.9-20.4 36.3-28.9 7.8-5.4 16.5-11.4 25.1-13.8 17.4-5 36-2.1 54.1 4.6" class="prefix__st6"/><path d="M-18.1 263.9s3.1-9.6 16.7-19.5c7.7-5.6 14.6-11.4 23.7-13.5 5.3-1.2 10.5-1.5 16.2-.9 13.9 1.6 28.6 4.2 41.1-3.2 3.2-1.9 6.5-4.1 9-7.2 8.1-9.7 16.4-20.6 28.6-26.2 10.3-4.6 20.8-6.4 30.7-5.3 11.1 1.2 23.6 6.6 35.2 10.5 9.7 3.2 19.1 6.4 26.5 3.6 11.7-4.4 25.2.5 36.3-4.3 2.6-1.1 5.7-3.6 9.4-6 22.4-14.9 49.9-40.3 77.7-44 .6-.1 1.2-.1 1.7-.2 22.5-1.1 43.7 19.4 66.6 10.2 8-3.2 8.6-9.4 12.4-16.3 7.6-13.8 15-24.4 26.5-34.8C451 97 463 85.7 475.3 77.3c7.9-5.4 16.7-11.3 25.4-13.6 17.4-4.7 36.7-2.1 54.5 5.9" class="prefix__st6"/><path d="M-19.2 260.9s2.8-10.6 16-20.1c7.5-5.4 14.2-10.8 23.4-13 5.3-1.3 10.5-1.8 16.2-1.1 13.9 1.6 29.2 4.7 41.7-2.8 3.3-2 6.5-4.5 9.1-7.7 8.2-10.1 17.4-20 29.9-25 10-4 21.5-6.6 31.6-5.5 11 1.2 22.5 4.8 33.4 8.4 9 3 17.4 6.5 25.7 3.7 12.1-4 25.3 1.5 36.8-2.8 2.7-1 6.2-3.4 10-5.8 22.6-13.6 50.1-39.9 76.9-44.3.5-.1 1.1-.2 1.7-.2 22.8-1.6 44.3 22.5 67.4 12.3 7.9-3.5 8.6-10 12.4-16.9 7.6-13.8 15.5-24.7 26.9-35.3 10.6-9.9 21.8-21.8 34-30.1 8-5.4 16.9-11.1 25.6-13.4 17.5-4.5 37.5-2 54.9 7.3" class="prefix__st6"/><path d="M-20.3 257.7s2.5-11.2 15.2-20.4c7.2-5.2 13.9-10.4 23.1-12.9 5.3-1.5 10.5-2.2 16.2-1.6 13.8 1.5 29.6 5 42-2.6 3.3-2 6.5-4.4 9.1-7.4 8.7-9.9 18.5-19.3 31.3-23.8 10.9-3.9 22.4-5.6 33-5.2 10.3.4 21.7 3.2 32.1 6.3 8.6 2.5 16.1 6.2 25.1 3.4 12.1-3.8 25.3 2.2 36.7-1.6 2.9-.9 6.5-3.3 10.5-5.5 13.9-7.6 27.5-16.4 40.9-25 10.6-6.5 22.2-17.4 34.8-19.5.5-.1 1.1-.2 1.7-.2 23.1-1.7 45 25.5 68.3 14.6 7.7-3.6 8.6-10.6 12.4-17.6 7.6-13.9 15.9-25.1 27.1-35.9 10.4-10 20.8-22.5 33-30.7 8-5.4 17-11 25.9-13.1 17.5-4.2 38.4-1.8 55.3 8.6" class="prefix__st6"/><path d="M-21.4 254.5s2.2-11.6 14.5-20.7c7-5.1 13.6-10.3 22.8-13.3 5.3-1.7 10.7-2.8 16.2-2.4 13.5 1.1 29.5 5.2 42-1.8 3.4-1.9 6.6-4 9.4-6.9 9.2-9.6 19.9-19 32.8-22.6 11.4-3.2 23.1-5 34.6-4.6 10.1.4 21.2 2.1 31.4 4.6 8.2 2 15.2 5.7 24.4 2.8 11.5-3.6 25.3 2.6 36.3-.5 2.9-.8 6.7-3.1 10.9-5.2 14.2-7.2 28.2-15.8 41.5-24.6 9.9-6.6 20.5-18.3 32.6-20.5.5-.1 1.1-.2 1.7-.2 23.3-2.1 45.9 28.4 69.2 16.7 7.5-3.7 8.6-11.3 12.4-18.2 7.6-13.9 16.2-25.4 27.2-36.4 10.2-10.2 19.8-23.1 32.1-31.2 8.1-5.4 17.2-10.8 26.2-12.8 17.6-3.9 39.3-1.6 55.7 10" class="prefix__st6"/><path d="M-22.6 251.2s1.8-11.8 13.8-21c6.7-5.2 13.3-10.5 22.6-14.2 5.3-2.1 10.6-3.7 16-3.2 13.4 1.2 29.2 5.8 42-.5 3.5-1.7 6.8-3.7 9.7-6.4 10.2-9.8 21-17.3 34.2-21.6 11.1-3.6 24.3-4.8 36.3-3.9 10.3.7 21 1.5 31.3 3.4 8 1.4 14.4 4.9 23.8 1.9 10.8-3.5 25.1 2.8 35.6.2 3-.7 6.9-2.9 11.2-4.9 14.4-6.8 28.7-15.1 41.7-24.3 9.5-6.8 18.6-18.8 30.5-21.2.5-.1 1.1-.2 1.7-.3 23.6-2.3 46.9 31.5 70.1 19.1 7.2-3.9 8.7-11.9 12.4-18.8 7.6-13.9 16.4-25.8 27.1-37C447.7 88 456.5 74.9 469 66.8c8.1-5.3 17.4-10.7 26.4-12.5 17.7-3.7 40.2-1.3 56.1 11.3" class="prefix__st6"/><path d="M-23.7 248s1.5-12 13.1-21.5c6.5-5.3 13-10.9 22.3-15.4 5.3-2.6 10.4-4.1 15.6-3.6 13.3 1.3 29 6.4 42 .8 3.6-1.5 7.1-3.3 10-5.9 10.8-9.5 22-16.7 35.5-20.8 11.8-3.6 25.5-4.4 38.1-3.3 10.5 1 21.2 1.7 31.8 2.8 7.8.8 13.9 4.1 23.4.8 10.2-3.5 24.9 2.9 34.9.7 3-.7 7-2.7 11.4-4.7 14.4-6.4 29-14.4 41.5-24 9.2-7.1 16.6-19.3 28.6-21.8.5-.1 1.1-.2 1.7-.3 23.8-2.5 48.3 34.2 71 21.3 7-4 8.7-12.4 12.5-19.3 7.6-13.9 16.4-26.1 26.9-37.6 9.9-10.8 18-24 30.7-32.2 8.2-5.3 17.6-10.5 26.7-12.2 17.9-3.4 41.2-1 56.5 12.7" class="prefix__st6"/><path d="M-24.8 244.8s1.2-12.3 12.3-22.2c6.2-5.5 12.9-12.2 22-16.9 5.2-2.7 10.1-4.1 15.1-3.6 13.2 1.4 28.7 6.8 41.9 2.1 3.8-1.2 7.5-2.8 10.5-5.3 11.3-9.1 23-16.2 36.6-20.2 12.3-3.6 26.7-4.4 39.7-2.8 10.9 1.4 21.8 2.5 32.9 3 7.7.3 13.7 3.2 23.2-.3 9.6-3.6 24.3 2.5 34.1.8 3-.5 7.2-2.5 11.6-4.4 15-6.6 31.5-14.6 43.9-26.2 7.8-7.3 12.8-17.4 24.1-19.9.5-.1 1.1-.2 1.7-.3 24.1-2.8 50.4 36.9 71.8 23.3 6.5-4.1 8.7-12.8 12.6-19.8 7.7-13.9 16.4-26.3 26.6-38.1 9.7-11.2 17.3-24.5 30.2-32.7 8.3-5.3 17.4-9.8 27-11.9 18.1-4.1 43.2.2 56.9 14.1" class="prefix__st6"/><path d="M-25.9 241.7s1.1-12.5 11.6-23c6.6-6.6 13.5-13.6 21.6-18.3 4.9-2.8 9.7-4.1 14.7-3.6 13.5 1.4 28.2 7.3 41.7 3.4 3.8-1.1 7.6-2.6 10.8-4.9 11.7-8.7 23.7-15.9 37.5-19.9 12.8-3.7 27.7-4.8 41-2.6 11.4 1.9 22.8 4.1 34.6 4 7.8 0 13.7 2.5 23.1-1.4 9.2-3.7 23.9 2.2 33.3.6 3-.5 7.2-2.2 11.6-4.1 14.8-6.2 31.2-13.9 42.7-26 7.4-7.8 11.3-17.7 22.9-20.4.5-.1 1.1-.2 1.6-.3 24.2-3 51.7 39.2 72.4 25.3 6.4-4.3 8.9-13 12.8-20.2 7.7-13.9 16.3-26.2 26.2-38.6 9.4-11.7 16.8-25 29.9-33.1 8.4-5.2 17.6-9.6 27.3-11.6 18.4-3.8 44.1.6 57.3 15.5" class="prefix__st6"/><path d="M-27 238.7s.8-12.8 10.9-24.1C-9.7 207.5-3.2 200 5 195.1c4.7-2.8 9.5-4.2 14.3-3.7 13.5 1.4 27.8 7.7 41.4 4.5 4.1-.9 8-2.2 11.3-4.4 12.1-8.3 24.4-15.6 38.3-19.9 13-4 28.4-5.4 41.9-2.8 12 2.3 24.1 6.1 36.7 5.9 8.1-.1 14.1 1.8 23.4-2.3 8.9-3.9 23.5 1.8 32.7.2 3-.5 7.2-2.1 11.5-3.8 14.6-5.8 30.4-13.3 41.1-25.8 7-8.2 10.3-17.8 21.9-20.7.5-.1 1.1-.3 1.6-.3 24.5-3.4 51.3 41 72.9 26.9 7.8-5.1 11.1-16.7 15.8-25.1 6.8-12.2 15-23.4 23.2-34.4 8.8-11.8 16.5-25.5 29.6-33.4 8.5-5.1 17.8-9.4 27.5-11.3 18.6-3.6 45 1.1 57.7 16.8" class="prefix__st6"/><path d="M-28.1 235.6s.6-13 10.2-25.3c5.9-7.5 12.4-15.5 20.6-20.6 4.6-2.9 9.3-4.2 14-3.7 13.4 1.4 27.4 8.1 41 5.6 4.1-.7 8.2-1.9 11.5-4 12.4-7.9 25-15.6 38.8-20.2 13.7-4.6 28.5-6.2 42.1-3.6 12.3 2.3 25.8 8.8 39.4 8.8 8.7 0 14.8 1.5 24-3 8.7-4.2 23.2 1.2 32.3-.3 2.9-.5 7-2.1 11.5-3.7 14.7-5.3 29.4-13.1 39.2-25.6 6.6-8.4 9.8-18 21.4-21 .5-.1 1.1-.3 1.6-.3 25.1-3.6 50.9 42.5 73.2 28.5 8.1-5.1 11.5-16.9 16.2-25.4 6.7-12.2 14.9-23.6 22.5-34.7 8.3-12.1 16.4-26 29.6-33.8 8.6-5.1 18.3-9.7 27.8-11 18.7-2.5 45.2.7 58.1 18.1" class="prefix__st6"/><path d="M-29.2 232.5c.5-10.2 4.5-18.4 9.5-26.7 5-8.1 11.9-16.2 20-21.5 4.5-2.9 9.2-4.3 13.8-3.8 13.3 1.3 27.1 8.6 40.5 6.7 4-.6 8.4-1.6 11.8-3.6 12.7-7.6 25.2-15.4 39.1-20.9 14.1-5.7 28.6-8.3 42.2-5.3 12.8 2.8 27.3 12 42 12.9 9.5.6 15.8 1.5 25-3.2 11.2-5.8 20.4 2.7 32.1-.9 2.9-.9 6.9-2.2 11.4-3.7 14.7-5.2 27.5-12.8 36.8-25.5 6.3-8.6 9.7-18.3 21.2-21.4.5-.1 1.1-.3 1.6-.4 25.8-4 50.6 43.8 73.5 30.1 8.3-5 11.8-17 16.6-25.7 6.6-12.1 14.5-23.6 21.8-35 8-12.5 16.3-26.4 29.7-34.1 8.7-5 18.6-9.5 28.1-10.7 18.9-2.3 46.1 1.1 58.5 19.5" class="prefix__st6"/><path d="M-30.3 229.4c.2-10.5 4-19.5 8.8-28.2 4.6-8.2 11.3-16.7 19.4-22.2 4.4-3 9.1-4.3 13.6-3.9 13.3 1.3 26.6 8.9 40 7.7 4-.4 8.5-1.3 12-3.3 13-7.3 25.9-15.6 39.6-22.3 14.2-7 28.6-10.6 42.2-7.3 13.3 3.1 28.3 15.3 43.7 17.5 10.5 1.5 17.3 2 26.3-3 11.2-6.2 20.5 2.2 32.2-1.5 2.9-.9 6.9-2.2 11.2-3.8 14.5-5.1 26-12.3 34.7-25 6-8.8 9.7-18.6 21.1-21.8.5-.2 1.1-.3 1.6-.4 26.4-4.3 50.3 44.9 73.8 31.5 8.5-4.8 12.2-17.1 16.9-25.9 6.5-12.1 14-23.7 21.1-35.3 7.9-12.9 16.3-26.7 29.9-34.4 8.8-4.9 18.8-9.3 28.4-10.4 19.2-2.2 46.9 1.5 58.9 20.7" class="prefix__st6"/><path d="M-31.5 226.3c0-10.9 3.5-20.6 8.2-29.8 4.3-8.4 10.8-17.3 18.9-22.9 4.4-3 9-4.4 13.5-4 13.2 1.2 26.2 9.2 39.6 8.6 4-.2 8.5-1.1 12.1-3 13.6-7.1 26.7-16.5 40.2-24.5 13.9-8.2 27.6-12.2 42-9.2 15.3 3.1 28.5 17.7 44.4 22.4 9.1 2.7 20.1 2.5 28.2-2 11.4-6.4 21 1.8 32.7-2 2.8-.9 6.8-2.3 11.1-3.8 14.2-5.2 24.3-12.1 32.5-24.8 5.8-9 9.7-18.8 21-22.1.5-.2 1.1-.3 1.6-.4 26.9-4.6 50 45.9 74.1 32.8 16.5-9 27.6-44.7 37.6-61.7 7.7-13.1 16.3-27.1 30.1-34.6 8.9-4.9 19-9.1 28.7-10.1 19.5-2 47.7 2 59.3 22" class="prefix__st6"/><path d="M-32.6 223.2c-.3-10.8 2.6-21.7 7.5-31.2 4.6-8.8 10.3-17.9 18.4-23.6 4.3-3.1 9-4.4 13.4-4.1 13.2 1.1 25.9 9.4 39.2 9.5 4 0 8.4-.9 12.1-2.8 14.3-7.4 27.7-18.8 41-27.4 12.2-7.8 26.4-15.4 41.7-11.1 16.8 4.8 29.5 20.6 44.4 26.5 9.7 3.8 20.1 6 30 .2 11.6-6.7 21.8 1.6 33.6-2.3 2.8-.9 6.6-2.3 10.9-3.9 13.9-5.3 22.8-12.1 30.5-24.7 5.6-9.1 9.7-19.1 20.9-22.4.5-.2 1.1-.3 1.6-.4 27.4-4.8 49.7 46.7 74.3 33.9 16.8-8.7 27.4-45 37.2-62.1 7.6-13.3 16.3-27.4 30.3-34.8 9-4.8 19.2-8.9 28.9-9.8 19.8-1.9 48.4 2.4 59.6 23.2" class="prefix__st6"/><path d="M-33.7 220c-.5-11.1 2.1-22.6 6.8-32.6 4.3-9.1 9.8-18.4 18-24.3 4.4-3.1 9.1-4.5 13.4-4.2 13.2 1 25.6 9.6 38.9 10.4 4.1.2 8.4-.6 12.1-2.5 15.1-7.7 28.3-21 41.8-30.7 11.8-8.5 25.9-17.1 41.2-12.8 17.5 5 29.9 21.7 44.4 30 9.7 5.5 20.3 9.7 31.2 3.2 11.9-7 22.9 1.8 35-2.4 2.8-1 6.5-2.3 10.6-4 13.6-5.4 21.4-12.3 28.8-24.6 5.5-9.2 9.6-19.2 20.8-22.6.5-.2 1.1-.3 1.6-.4 27.9-5.2 49.4 47.6 74.5 35 17.2-8.7 27.1-45.4 36.9-62.5 7.6-13.4 16.4-27.6 30.6-34.9 9.1-4.7 19.5-8.7 29.2-9.5 20.1-1.7 49.1 2.8 59.9 24.3" class="prefix__st6"/><path d="M-34.8 216.8c-.7-11.5 1.6-23.4 6.1-33.9 4-9.4 9.4-19 17.7-25 4.4-3.2 9.2-4.6 13.5-4.3 13.3.9 25.5 9.8 38.6 11.2 4.1.4 8.3-.2 12.2-2.1 15.8-8 28.9-23.7 42.4-34.3 11.4-8.9 25.3-18.4 40.8-14.2 17.9 4.8 30.2 22.4 44.1 32.4 9.1 6.6 20 13.6 31.7 6.9 12.4-7.1 24.3 2.3 37-2.2 2.8-1 6.4-2.4 10.4-4.1 13-5.5 20.3-12.7 27.4-24.6 5.5-9.2 9.5-19.3 20.7-22.8.5-.2 1.1-.3 1.6-.4 28.3-5.4 49.1 48.2 74.6 35.9 17.6-8.4 26.9-45.7 36.6-62.8 7.6-13.4 16.5-27.8 30.9-35 9.2-4.6 19.3-8 29.5-9.2 20.7-2.4 50.4 4.1 60.2 25.4" class="prefix__st6"/><path d="M-35.9 213.6c-.9-11.9 1.2-24.1 5.4-35.1 3.7-9.7 9.1-19.6 17.5-25.7 4.5-3.3 9.3-4.6 13.7-4.4 13.5.8 25.5 9.9 38.5 11.9 4 .6 8.3.3 12.3-2 16.2-9.3 28.7-26.3 42.8-37.9 11.2-9.2 24.7-19.2 40.2-15.3 18.2 4.6 30.7 22.4 43.8 34.2 8.2 7.4 19.9 17.2 31.9 10.6 12.8-7.1 25.7 3.5 38.9-1.3 2.8-1 6.3-2.5 10.2-4.1 22.5-9.8 25-40.8 46.9-47.7.5-.2 1.1-.3 1.6-.4 28.8-5.7 48.7 48.4 74.7 36.7 17.6-7.9 26.8-46 36.3-63.1 7.5-13.6 16.6-27.9 31.3-35 9.3-4.5 19.6-7.7 29.8-8.8 21.1-2.3 51 4.5 60.4 26.4" class="prefix__st6"/><path d="M-37 210.4c-1.2-12.6 1.1-24.6 4.7-36.3 3.1-10 8.9-20.2 17.4-26.4 4.5-3.4 9.4-4.7 13.9-4.6 13.8 0 25.7 9.4 38.7 11.9 4 .8 8.4.5 12.3-1.9 16.3-10 28.6-28.3 42.9-40.6 10.9-9.4 24-19.5 39.6-15.9 18.4 4.2 31.1 22.2 43.5 34.9 7.7 7.9 19.5 20.6 32.1 14.3 13.1-6.6 26.6 5.4 40.5.2 2.8-1 6.2-2.5 10-4.2 21.9-10.1 24.4-41 46.1-47.9.5-.2 1.1-.3 1.6-.4 29.2-5.8 48.4 48.4 74.7 37.4 17.6-7.4 26.8-46.2 36.1-63.3 7.5-13.8 16.8-28.1 31.6-34.9 9.5-4.4 19.8-7.5 30.1-8.5 21.5-2.2 51.6 4.7 60.7 27.4" class="prefix__st6"/><path d="M-38.1 207.2c-1.4-12.9.6-25.3 3.9-37.4 2.9-10.3 8.6-20.8 17.4-27.1 4.7-3.4 9.5-4.8 14.1-5.1 14.1-.8 26.1 8.6 38.9 11.7 4 .9 8.5.7 12.4-1.8 16.5-10.7 28.6-30 42.9-42.8 10.7-9.5 23.4-19.1 38.9-16 18.6 3.7 31.2 21.2 43.1 34.6 7.4 8.4 19.1 23.6 32.2 17.8 13.6-6 26.8 7.9 41.7 2.3 2.8-1 6.2-2.5 9.8-4.3 21.3-10.4 24.2-41.3 45.7-48.2.5-.2 1.1-.3 1.6-.4 29.5-6 48.1 48.3 74.6 37.9 17.5-6.8 26.8-46.5 36-63.5 7.5-13.9 17-28.1 32-34.8 9.6-4.3 20-7.2 30.4-8.1 22-2 52.1 4.9 60.8 28.2" class="prefix__st6"/><path d="M-39.2 203.9c-1.6-13.2-.3-26.7 3.2-38.5 3.1-10.3 7.9-20.8 17.4-27.8 4.6-3.4 9.7-5.3 14.4-5.9 14.4-1.7 26.6 7.6 39.4 11.2 4 1.1 8.5.8 12.5-1.8 16.4-10.8 28-31 42.5-43.8 10.6-9.4 22.8-18 38.3-15.5 18.8 3.1 31.2 19.3 42.7 33.2 7.3 8.8 18.9 26 32.4 21.1 14.5-5.3 26.3 11 42.5 4.9 2.8-1.1 6.1-2.5 9.6-4.3 21.4-10.5 24.2-41.6 45.7-48.5.5-.2 1.1-.3 1.6-.4 29.7-6 47.9 48.1 74.5 38.4 17.3-6.3 26.9-46.6 35.9-63.6 7.5-14.1 17.2-28.2 32.4-34.7 9.7-4.2 20.2-6.9 30.7-7.8 22.4-1.9 52.5 5.1 61 29" class="prefix__st6"/><path d="M-40.3 200.7c-3-22.6.5-53.3 19.9-68 25.1-19 47.2 14.4 67.2 1.9 25.7-16.3 41.6-63.4 79.5-58.6 18.8 2.4 30.3 16.2 41.7 29.8 8 9.5 19.3 28.9 33.2 24.8 8.8-2.6 13 3.3 20.6 6 12.3 4.3 19.8 4.1 31.9-2.3 20.7-10.8 24.6-42.3 45.9-48.9 30.4-9.4 48.7 47.7 75.9 38.2 14.4-5 20-32.1 26.5-45.7 9.5-19.7 21-44.5 42.2-52.4 27.5-10.3 79.7-15 92.1 22.4" class="prefix__st6"/></svg>