<svg xmlns="http://www.w3.org/2000/svg" xmlns:xlink="http://www.w3.org/1999/xlink" xml:space="preserve" id="prefix__Layer_1" x="0" y="0" version="1.1" viewBox="69 280 750 266"><style>.prefix__st1{fill:#ffaf00}.prefix__st4{stroke:#010101;stroke-width:2;stroke-linecap:round;stroke-linejoin:round}.prefix__st4,.prefix__st6,.prefix__st7,.prefix__st9{fill:none;stroke-miterlimit:10}.prefix__st6{stroke:#010101;stroke-width:1.6547;stroke-linecap:round;stroke-linejoin:round}.prefix__st7,.prefix__st9{stroke:#ffaf00}.prefix__st7{stroke-width:1.6547;stroke-linecap:round;stroke-linejoin:round}.prefix__st9{stroke-width:1.7707}.prefix__st10{fill:#010101}.prefix__st12{stroke-width:2;fill:none;stroke-miterlimit:10}.prefix__st12,.prefix__st14,.prefix__st17{stroke:#ffaf00}.prefix__st14,.prefix__st17,.prefix__st43{fill:none;stroke-miterlimit:10}.prefix__st14{stroke-width:2;stroke-linecap:round;stroke-linejoin:round}.prefix__st17{stroke-width:2.3747}.prefix__st43{stroke:#010101;stroke-width:2.2857;stroke-linecap:round;stroke-linejoin:round}</style><g id="prefix__XMLID_360_"><defs><path id="prefix__SVGID_1_" d="M69 147h750v500H69z"/></defs><clipPath id="prefix__SVGID_2_"><use xlink:href="#prefix__SVGID_1_" overflow="visible"/></clipPath><defs><path id="prefix__SVGID_3_" d="M69 147h750v500H69z"/></defs><clipPath id="prefix__SVGID_4_"><use xlink:href="#prefix__SVGID_3_" overflow="visible"/></clipPath><g id="prefix__XMLID_416_" clip-path="url(#prefix__SVGID_4_)"><path id="prefix__XMLID_418_" d="M273.3 367.9c10.4 10.3 10.4 27.1 0 37.4l-37.7-37.4c10.4-10.4 27.3-10.4 37.7 0z" class="prefix__st1"/><path id="prefix__XMLID_417_" fill="none" stroke="#000" stroke-miterlimit="10" stroke-width="2.515" d="M252.9 422.6c-10.4-10.3-10.4-27.1 0-37.4l37.7 37.4c-10.4 10.4-27.3 10.4-37.7 0z"/></g><defs><path id="prefix__SVGID_5_" d="M69 147h750v500H69z"/></defs><clipPath id="prefix__SVGID_6_"><use xlink:href="#prefix__SVGID_5_" overflow="visible"/></clipPath><g id="prefix__XMLID_59_" clip-path="url(#prefix__SVGID_6_)"><path id="prefix__XMLID_58_" d="M692.5 479c16.5 16.5 16.5 43.2 0 59.7L632.7 479c16.5-16.5 43.3-16.5 59.8 0z" class="prefix__st1"/><g id="prefix__XMLID_54_"><path id="prefix__XMLID_23_" d="M690.7 490.8c16.5 16.5 16.5 43.2 0 59.7L631 490.8c16.5-16.5 43.2-16.5 59.7 0z" class="prefix__st4"/></g></g><defs><path id="prefix__SVGID_7_" d="M69 147h750v500H69z"/></defs><clipPath id="prefix__SVGID_8_"><use xlink:href="#prefix__SVGID_7_" overflow="visible"/></clipPath><g id="prefix__XMLID_61_" clip-path="url(#prefix__SVGID_8_)"><path id="prefix__XMLID_72_" d="m71.5 493.8 17.8 17.7" class="prefix__st7"/><path id="prefix__XMLID_70_" d="m69.7 474.8 36.5 36.4" class="prefix__st6"/><path id="prefix__XMLID_68_" d="m92 479.9 50.1 50.1" class="prefix__st7"/><path id="prefix__XMLID_67_" d="m135.8 506.6 34.8 34.8" class="prefix__st6"/><path id="prefix__XMLID_66_" d="m96.1 466.9 26.1 26" class="prefix__st6"/><path id="prefix__XMLID_65_" d="m166.8 520.3 13.5 13.6" class="prefix__st7"/><path id="prefix__XMLID_64_" d="m117 470.5 34.3 34.4" class="prefix__st7"/><path id="prefix__XMLID_63_" d="m159.7 496.1 8.3 8.4" class="prefix__st6"/><path id="prefix__XMLID_62_" d="m145.1 481.5 5.8 5.8" class="prefix__st6"/></g><defs><path id="prefix__SVGID_9_" d="M69 147h750v500H69z"/></defs><clipPath id="prefix__SVGID_10_"><use xlink:href="#prefix__SVGID_9_" overflow="visible"/></clipPath><defs><path id="prefix__SVGID_11_" d="M69 147h750v500H69z"/></defs><clipPath id="prefix__SVGID_12_"><use xlink:href="#prefix__SVGID_11_" overflow="visible"/></clipPath><g id="prefix__XMLID_49_" clip-path="url(#prefix__SVGID_12_)"><path id="prefix__XMLID_6_" d="M468.8 297.2c-.6.7-1.7.7-2.4.1" class="prefix__st9"/><g id="prefix__XMLID_602_"><g id="prefix__XMLID_675_"><circle id="prefix__XMLID_682_" cx="463.3" cy="289.2" r="1" class="prefix__st10"/></g></g></g><defs><path id="prefix__SVGID_13_" d="M69 147h750v500H69z"/></defs><clipPath id="prefix__SVGID_14_"><use xlink:href="#prefix__SVGID_13_" overflow="visible"/></clipPath><g id="prefix__XMLID_134_" clip-path="url(#prefix__SVGID_14_)"><path id="prefix__XMLID_21_" d="M525.5 493.3h51.3c.8 0 1.5.7 1.5 1.5v51.3c0 .8-.7 1.5-1.5 1.5h-51.3c-.8 0-1.5-.7-1.5-1.5v-51.3c0-.8.7-1.5 1.5-1.5z" class="prefix__st12"/><g id="prefix__XMLID_135_"><g id="prefix__XMLID_160_"><circle id="prefix__XMLID_165_" cx="583.8" cy="544.8" r=".8" class="prefix__st10"/><circle id="prefix__XMLID_164_" cx="570.5" cy="544.8" r=".8" class="prefix__st10"/><circle id="prefix__XMLID_163_" cx="557.2" cy="544.8" r=".8" class="prefix__st10"/><circle id="prefix__XMLID_162_" cx="543.8" cy="544.8" r=".8" class="prefix__st10"/><circle id="prefix__XMLID_161_" cx="530.5" cy="544.8" r=".8" class="prefix__st10"/></g><g id="prefix__XMLID_154_"><circle id="prefix__XMLID_159_" cx="583.8" cy="532.9" r=".8" class="prefix__st10"/><circle id="prefix__XMLID_158_" cx="570.5" cy="532.9" r=".8" class="prefix__st10"/><circle id="prefix__XMLID_157_" cx="557.2" cy="532.9" r=".8" class="prefix__st10"/><circle id="prefix__XMLID_156_" cx="543.8" cy="532.9" r=".8" class="prefix__st10"/><circle id="prefix__XMLID_155_" cx="530.5" cy="532.9" r=".8" class="prefix__st10"/></g><g id="prefix__XMLID_16_"><circle id="prefix__XMLID_153_" cx="583.8" cy="521" r=".8" class="prefix__st10"/><circle id="prefix__XMLID_152_" cx="570.5" cy="521" r=".8" class="prefix__st10"/><circle id="prefix__XMLID_151_" cx="557.2" cy="521" r=".8" class="prefix__st10"/><circle id="prefix__XMLID_150_" cx="543.8" cy="521" r=".8" class="prefix__st10"/><circle id="prefix__XMLID_149_" cx="530.5" cy="521" r=".8" class="prefix__st10"/></g><g id="prefix__XMLID_142_"><circle id="prefix__XMLID_147_" cx="583.8" cy="509.1" r=".8" class="prefix__st10"/><circle id="prefix__XMLID_146_" cx="570.5" cy="509.1" r=".8" class="prefix__st10"/><circle id="prefix__XMLID_145_" cx="557.2" cy="509.1" r=".8" class="prefix__st10"/><circle id="prefix__XMLID_144_" cx="543.8" cy="509.1" r=".8" class="prefix__st10"/><circle id="prefix__XMLID_143_" cx="530.5" cy="509.1" r=".8" class="prefix__st10"/></g><g id="prefix__XMLID_136_"><circle id="prefix__XMLID_141_" cx="583.8" cy="497.2" r=".8" class="prefix__st10"/><circle id="prefix__XMLID_140_" cx="570.5" cy="497.2" r=".8" class="prefix__st10"/><circle id="prefix__XMLID_139_" cx="557.2" cy="497.2" r=".8" class="prefix__st10"/><circle id="prefix__XMLID_138_" cx="543.8" cy="497.2" r=".8" class="prefix__st10"/><circle id="prefix__XMLID_137_" cx="530.5" cy="497.2" r=".8" class="prefix__st10"/></g></g></g><defs><path id="prefix__SVGID_15_" d="M69 147h750v500H69z"/></defs><clipPath id="prefix__SVGID_16_"><use xlink:href="#prefix__SVGID_15_" overflow="visible"/></clipPath><g id="prefix__XMLID_51_" clip-path="url(#prefix__SVGID_16_)"><path id="prefix__XMLID_367_" d="m219.8 307 28.3 20 28.4-20" class="prefix__st4"/><path id="prefix__XMLID_399_" d="m106.3 307 28.3 20 28.4-20 28.4 20" class="prefix__st4"/><path id="prefix__XMLID_50_" d="m49.5 307 28.4 20" class="prefix__st4"/><path id="prefix__XMLID_400_" d="m191.4 309 28.4-20 28.3 20 28.4-20" class="prefix__st14"/><path id="prefix__XMLID_53_" d="m49.5 289 28.4 20 28.4-20 28.3 20 28.4-20" class="prefix__st14"/></g><defs><path id="prefix__SVGID_17_" d="M69 147h750v500H69z"/></defs><clipPath id="prefix__SVGID_18_"><use xlink:href="#prefix__SVGID_17_" overflow="visible"/></clipPath><g id="prefix__XMLID_55_" clip-path="url(#prefix__SVGID_18_)"><path id="prefix__XMLID_57_" d="m718.5 398 28.4 20 28.4-20 28.3 20 28.4-20 28.4 20 28.4-20 28.3 20 28.4-20" class="prefix__st4"/><path id="prefix__XMLID_56_" d="m718.5 380 28.4 20 28.4-20 28.3 20 28.4-20 28.4 20 28.4-20 28.3 20 28.4-20" class="prefix__st14"/></g><defs><path id="prefix__SVGID_19_" d="M69 147h750v500H69z"/></defs><clipPath id="prefix__SVGID_20_"><use xlink:href="#prefix__SVGID_19_" overflow="visible"/></clipPath><defs><path id="prefix__SVGID_21_" d="M69 147h750v500H69z"/></defs><clipPath id="prefix__SVGID_22_"><use xlink:href="#prefix__SVGID_21_" overflow="visible"/></clipPath><defs><path id="prefix__SVGID_23_" d="M69 147h750v500H69z"/></defs><clipPath id="prefix__SVGID_24_"><use xlink:href="#prefix__SVGID_23_" overflow="visible"/></clipPath><g id="prefix__XMLID_115_" clip-path="url(#prefix__SVGID_24_)"><path id="prefix__XMLID_113_" d="m605.6 390.9-34.4 34.4c-.5.5-1.4.5-2 0L535 390.9c-.5-.5-.5-1.4 0-2l34.4-34.4c.5-.5 1.4-.5 2 0l34.4 34.4c.4.6.4 1.5-.2 2z" class="prefix__st17"/><path id="prefix__XMLID_114_" d="m590.5 390.5-19.6 19.6c-.3.3-.8.3-1.1 0l-19.6-19.6c-.3-.3-.3-.8 0-1.1l19.6-19.6c.3-.3.8-.3 1.1 0l19.6 19.6c.3.3.3.8 0 1.1z" class="prefix__st17"/></g><defs><path id="prefix__SVGID_25_" d="M69 147h750v500H69z"/></defs><clipPath id="prefix__SVGID_26_"><use xlink:href="#prefix__SVGID_25_" overflow="visible"/></clipPath><g id="prefix__XMLID_117_" clip-path="url(#prefix__SVGID_26_)"><path id="prefix__XMLID_119_" fill="none" stroke="#ffaf00" stroke-miterlimit="10" stroke-width="1.663" d="m247.7 480.7-24.1 24.1c-.4.4-1 .4-1.4 0l-24.1-24.1c-.4-.4-.4-1 0-1.4l24.1-24.1c.4-.4 1-.4 1.4 0l24.1 24.1c.4.4.4 1 0 1.4z"/><path id="prefix__XMLID_118_" d="m235.4 482.1-10.3 10.3c-1.2 1.2-3.1 1.2-4.2 0l-10.3-10.3c-1.2-1.2-1.2-3.1 0-4.2l10.3-10.3c1.2-1.2 3.1-1.2 4.2 0l10.3 10.3c1.2 1.2 1.2 3 0 4.2z" class="prefix__st10"/></g><defs><path id="prefix__SVGID_27_" d="M69 147h750v500H69z"/></defs><clipPath id="prefix__SVGID_28_"><use xlink:href="#prefix__SVGID_27_" overflow="visible"/></clipPath><g id="prefix__XMLID_406_" clip-path="url(#prefix__SVGID_28_)"><path id="prefix__XMLID_408_" d="m431 304.2-18.6 18.6c-.3.3-.8.3-1.1 0l-18.6-18.6c-.3-.3-.3-.8 0-1.1l18.6-18.6c.3-.3.8-.3 1.1 0l18.6 18.6c.3.4.3.8 0 1.1z" class="prefix__st12"/><path id="prefix__XMLID_407_" fill="none" stroke="#010101" stroke-miterlimit="10" stroke-width="2" d="m421.5 305.3-8 8c-.9.9-2.4.9-3.3 0l-8-8c-.9-.9-.9-2.4 0-3.3l8-8c.9-.9 2.4-.9 3.3 0l8 8c.9 1 .9 2.4 0 3.3z"/></g><defs><path id="prefix__SVGID_29_" d="M69 147h750v500H69z"/></defs><clipPath id="prefix__SVGID_30_"><use xlink:href="#prefix__SVGID_29_" overflow="visible"/></clipPath><defs><path id="prefix__SVGID_31_" d="M69 147h750v500H69z"/></defs><clipPath id="prefix__SVGID_32_"><use xlink:href="#prefix__SVGID_31_" overflow="visible"/></clipPath><defs><path id="prefix__SVGID_33_" d="M69 147h750v500H69z"/></defs><clipPath id="prefix__SVGID_34_"><use xlink:href="#prefix__SVGID_33_" overflow="visible"/></clipPath><path id="prefix__XMLID_412_" fill="none" stroke="#010101" stroke-linecap="round" stroke-linejoin="round" stroke-miterlimit="10" stroke-width="2" d="m548.3 278 40.4 40.3" clip-path="url(#prefix__SVGID_34_)"/><defs><path id="prefix__SVGID_35_" d="M69 147h750v500H69z"/></defs><clipPath id="prefix__SVGID_36_"><use xlink:href="#prefix__SVGID_35_" overflow="visible"/></clipPath><defs><path id="prefix__SVGID_37_" d="M69 147h750v500H69z"/></defs><clipPath id="prefix__SVGID_38_"><use xlink:href="#prefix__SVGID_37_" overflow="visible"/></clipPath><defs><path id="prefix__SVGID_39_" d="M69 147h750v500H69z"/></defs><clipPath id="prefix__SVGID_40_"><use xlink:href="#prefix__SVGID_39_" overflow="visible"/></clipPath><defs><path id="prefix__SVGID_41_" d="M69 147h750v500H69z"/></defs><clipPath id="prefix__SVGID_42_"><use xlink:href="#prefix__SVGID_41_" overflow="visible"/></clipPath><path id="prefix__XMLID_415_" fill="none" stroke="#ffaf00" stroke-linecap="round" stroke-linejoin="round" stroke-miterlimit="10" stroke-width="2" d="m345.1 296.6 54.8 54.7" clip-path="url(#prefix__SVGID_42_)"/><defs><path id="prefix__SVGID_43_" d="M69 147h750v500H69z"/></defs><clipPath id="prefix__SVGID_44_"><use xlink:href="#prefix__SVGID_43_" overflow="visible"/></clipPath><defs><path id="prefix__SVGID_45_" d="M69 147h750v500H69z"/></defs><clipPath id="prefix__SVGID_46_"><use xlink:href="#prefix__SVGID_45_" overflow="visible"/></clipPath><defs><path id="prefix__SVGID_47_" d="M69 147h750v500H69z"/></defs><clipPath id="prefix__SVGID_48_"><use xlink:href="#prefix__SVGID_47_" overflow="visible"/></clipPath><path id="prefix__XMLID_357_" fill="none" stroke="#010101" stroke-linecap="round" stroke-linejoin="round" stroke-miterlimit="10" stroke-width="2" d="m756.7 467.7 186.6 186.6" clip-path="url(#prefix__SVGID_48_)"/><defs><path id="prefix__SVGID_49_" d="M69 147h750v500H69z"/></defs><clipPath id="prefix__SVGID_50_"><use xlink:href="#prefix__SVGID_49_" overflow="visible"/></clipPath><path id="prefix__XMLID_358_" fill="none" stroke="#ffaf00" stroke-linecap="round" stroke-linejoin="round" stroke-miterlimit="10" stroke-width="2" d="m787.2 477.2 186.6 186.6" clip-path="url(#prefix__SVGID_50_)"/><defs><path id="prefix__SVGID_51_" d="M69 147h750v500H69z"/></defs><clipPath id="prefix__SVGID_52_"><use xlink:href="#prefix__SVGID_51_" overflow="visible"/></clipPath><g id="prefix__XMLID_448_" clip-path="url(#prefix__SVGID_52_)"/><defs><path id="prefix__SVGID_53_" d="M69 147h750v500H69z"/></defs><clipPath id="prefix__SVGID_54_"><use xlink:href="#prefix__SVGID_53_" overflow="visible"/></clipPath><g id="prefix__XMLID_26_" clip-path="url(#prefix__SVGID_54_)"><path id="prefix__XMLID_28_" d="m477 373.8-18 18.1-18-18.1-14.2 14.2 18.1 18-18.1 18 14.2 14.2 18-18.1 18 18.1 14.2-14.2-18.1-18 18.1-18z" class="prefix__st10"/><path id="prefix__XMLID_30_" d="m474.7 360.2-18 18-18.1-18-14.1 14.1 18 18-18 18.1 14.1 14.1 18.1-18 18 18 14.1-14.1-18-18.1 18-18z" class="prefix__st14"/></g><defs><path id="prefix__SVGID_55_" d="M69 147h750v500H69z"/></defs><clipPath id="prefix__SVGID_56_"><use xlink:href="#prefix__SVGID_55_" overflow="visible"/></clipPath><defs><path id="prefix__SVGID_57_" d="M69 147h750v500H69z"/></defs><clipPath id="prefix__SVGID_58_"><use xlink:href="#prefix__SVGID_57_" overflow="visible"/></clipPath><g id="prefix__XMLID_131_" clip-path="url(#prefix__SVGID_58_)"><path id="prefix__XMLID_133_" d="m665.4 400.9-8 8-8-8-6.3 6.2 8 8-8 8 6.3 6.3 8-8 8 8 6.2-6.3-8-8 8-8z" class="prefix__st10"/><path id="prefix__XMLID_132_" fill="none" stroke="#ffaf00" stroke-linecap="round" stroke-linejoin="round" stroke-miterlimit="10" d="m664.3 394.8-8 8-8-8-6.2 6.3 8 8-9.5 7 6.2 6.2 9.5-7 8 8 6.3-6.2-8-8 8-8z"/></g><defs><path id="prefix__SVGID_59_" d="M69 147h750v500H69z"/></defs><clipPath id="prefix__SVGID_60_"><use xlink:href="#prefix__SVGID_59_" overflow="visible"/></clipPath><g id="prefix__XMLID_389_" clip-path="url(#prefix__SVGID_60_)"><path id="prefix__XMLID_37_" d="m277.5 512.8 40.8-36.2-4 58.1z" class="prefix__st1"/><g id="prefix__XMLID_29_"><path id="prefix__XMLID_34_" d="m269.8 499.5 43.4-33-8.4 57.7z" class="prefix__st4"/><path id="prefix__XMLID_35_" d="M313.2 466.5c-.7.8-21.5 34.2-21.5 34.2l13.2 23.5 8.3-57.7z" class="prefix__st4"/><path id="prefix__XMLID_36_" d="m269.8 499.5 21.9 1.2 21.5-34.2z" class="prefix__st4"/></g></g><defs><path id="prefix__SVGID_61_" d="M69 147h750v500H69z"/></defs><clipPath id="prefix__SVGID_62_"><use xlink:href="#prefix__SVGID_61_" overflow="visible"/></clipPath><g id="prefix__XMLID_39_" clip-path="url(#prefix__SVGID_62_)"><path id="prefix__XMLID_405_" d="m704.3 330.3 52.8-13.3-30.3 49.7z" class="prefix__st1"/><g id="prefix__XMLID_40_"><path id="prefix__XMLID_404_" d="m703.6 315 53.6-9.4-33.9 47.4z" class="prefix__st4"/><path id="prefix__XMLID_403_" d="M757.2 305.6c-1 .4-34.8 20.4-34.8 20.4l.9 26.9 33.9-47.3z" class="prefix__st4"/><path id="prefix__XMLID_41_" d="m703.6 315 18.8 11.1 34.8-20.5z" class="prefix__st4"/></g></g><defs><path id="prefix__SVGID_63_" d="M69 147h750v500H69z"/></defs><clipPath id="prefix__SVGID_64_"><use xlink:href="#prefix__SVGID_63_" overflow="visible"/></clipPath><g id="prefix__XMLID_43_" clip-path="url(#prefix__SVGID_64_)"><path id="prefix__XMLID_42_" fill="none" stroke="#ffaf00" stroke-linecap="round" stroke-linejoin="round" stroke-miterlimit="10" stroke-width="6" d="M341.6 430.6c6.9-6.9 18.2-6.9 25.1 0s6.9 18.2 0 25.1"/><path id="prefix__XMLID_44_" d="M341.9 430.3c6.9-6.9 18.2-6.9 25.1 0s6.9 18.2 0 25.1" class="prefix__st4"/></g><defs><path id="prefix__SVGID_65_" d="M69 147h750v500H69z"/></defs><clipPath id="prefix__SVGID_66_"><use xlink:href="#prefix__SVGID_65_" overflow="visible"/></clipPath><defs><path id="prefix__SVGID_67_" d="M69 147h750v500H69z"/></defs><clipPath id="prefix__SVGID_68_"><use xlink:href="#prefix__SVGID_67_" overflow="visible"/></clipPath><defs><path id="prefix__SVGID_69_" d="M69 147h750v500H69z"/></defs><clipPath id="prefix__SVGID_70_"><use xlink:href="#prefix__SVGID_69_" overflow="visible"/></clipPath><path id="prefix__XMLID_45_" fill="none" stroke="#ffaf00" stroke-linecap="round" stroke-linejoin="round" stroke-miterlimit="10" stroke-width="15" d="M505 334.3c-4.6-8.7-1.3-19.4 7.4-24 8.7-4.6 19.4-1.3 24 7.4" clip-path="url(#prefix__SVGID_70_)"/><defs><path id="prefix__SVGID_71_" d="M69 147h750v500H69z"/></defs><clipPath id="prefix__SVGID_72_"><use xlink:href="#prefix__SVGID_71_" overflow="visible"/></clipPath><defs><path id="prefix__SVGID_73_" d="M69 147h750v500H69z"/></defs><clipPath id="prefix__SVGID_74_"><use xlink:href="#prefix__SVGID_73_" overflow="visible"/></clipPath><defs><path id="prefix__SVGID_75_" d="M69 147h750v500H69z"/></defs><clipPath id="prefix__SVGID_76_"><use xlink:href="#prefix__SVGID_75_" overflow="visible"/></clipPath><defs><path id="prefix__SVGID_77_" d="M69 147h750v500H69z"/></defs><clipPath id="prefix__SVGID_78_"><use xlink:href="#prefix__SVGID_77_" overflow="visible"/></clipPath><g id="prefix__XMLID_311_" clip-path="url(#prefix__SVGID_78_)"><g id="prefix__XMLID_342_"><path id="prefix__XMLID_343_" d="M135.4 423.3c-.1-1 .6-1.9 1.6-2 1-.1 1.9.6 2 1.6.1 1-.6 1.9-1.6 2h-.2c-.9 0-1.7-.7-1.8-1.6zm-11.4 0c-.9-.4-1.4-1.4-1-2.3.3-.9 1.4-1.4 2.3-1.1.9.4 1.4 1.4 1.1 2.3-.3.7-1 1.2-1.7 1.2-.3 0-.5-.1-.7-.1zm23.6-3.7c-.6-.8-.4-1.9.5-2.5.8-.6 1.9-.4 2.5.5.6.8.4 1.9-.5 2.5-.3.2-.7.3-1 .3-.6 0-1.2-.3-1.5-.8zm-34.7-4c-.7-.7-.6-1.9.1-2.6.7-.7 1.9-.6 2.6.2.7.7.6 1.9-.2 2.6-.3.3-.8.5-1.2.5-.5-.1-1-.3-1.3-.7zm43.7-4.9c-.9-.5-1.2-1.6-.8-2.4.5-.9 1.6-1.2 2.4-.8.9.5 1.2 1.6.8 2.4-.3.6-1 1-1.6 1-.2 0-.5-.1-.8-.2zm-50-7.1c-.2-1 .4-1.9 1.3-2.2 1-.2 1.9.3 2.2 1.3.2 1-.4 1.9-1.3 2.2-.1 0-.3.1-.4.1-.9 0-1.6-.6-1.8-1.4zm52.1-6.8c0-.1 0-.1 0 0 0-1.1.8-1.9 1.8-1.9s1.8.8 1.8 1.8v.2c0 1-.8 1.8-1.8 1.8-1-.1-1.8-.9-1.8-1.9zm-50.8-4.5c-1-.2-1.6-1.2-1.3-2.2.2-1 1.2-1.6 2.2-1.3 1 .2 1.6 1.2 1.3 2.2-.2.8-.9 1.4-1.8 1.4-.2-.1-.3-.1-.4-.1zm47.9-7.1c-.5-.9-.1-2 .8-2.4.9-.5 2-.1 2.4.7.5.9.1 2-.7 2.4-.3.1-.6.2-.8.2-.7.1-1.4-.2-1.7-.9zm-42.8-4.6c-.7-.7-.8-1.8-.2-2.5.7-.8 1.8-.8 2.5-.2.7.7.8 1.8.2 2.6-.4.4-.9.6-1.4.6-.4 0-.8-.2-1.1-.5zm35-4.2c-.8-.6-1-1.7-.5-2.5.6-.8 1.7-1 2.5-.5.8.6 1 1.7.5 2.5-.3.5-.9.8-1.5.8-.4 0-.7-.1-1-.3zm-25.1-3.7c-.4-.9.1-2 1-2.3.9-.4 2 .1 2.3 1 .4.9-.1 2-1 2.3-.2.1-.4.1-.7.1-.7.1-1.4-.4-1.6-1.1zm14-.4c-1-.1-1.7-1-1.6-2 .1-1 1-1.7 2-1.6 1 .1 1.7 1 1.6 2-.1.9-.9 1.6-1.8 1.6h-.2z" class="prefix__st1"/></g><g id="prefix__XMLID_327_"><path id="prefix__XMLID_328_" d="M135.2 418.5c-.1-.8.5-1.5 1.3-1.6.8-.1 1.5.5 1.6 1.3.1.8-.5 1.5-1.3 1.6h-.2c-.7 0-1.3-.6-1.4-1.3zm-9.4-.1c-.8-.3-1.1-1.1-.9-1.9.3-.8 1.1-1.1 1.9-.9.8.3 1.1 1.1.9 1.9-.2.6-.8 1-1.4 1-.1 0-.3 0-.5-.1zm19.3-2.9c-.5-.7-.3-1.6.4-2.1s1.6-.3 2.1.4.3 1.6-.4 2.1c-.3.2-.6.3-.8.3-.5-.1-1-.3-1.3-.7zm-28.4-3.3c-.5-.6-.5-1.5.1-2.1.6-.5 1.5-.5 2.1.1.5.6.5 1.5-.1 2.1-.3.2-.6.4-1 .4s-.8-.2-1.1-.5zm35.8-4c-.7-.4-1-1.3-.6-2s1.3-1 2-.6 1 1.3.6 2c-.3.5-.8.8-1.3.8-.2-.1-.5-.1-.7-.2zm-41-5.8c-.2-.8.3-1.6 1.1-1.8.8-.2 1.6.3 1.8 1.1.2.8-.3 1.6-1.1 1.8h-.4c-.6 0-1.2-.5-1.4-1.1zm42.7-5.6c0-.1 0-.1 0 0 0-.9.7-1.6 1.5-1.6s1.5.7 1.5 1.5-.7 1.5-1.5 1.5c-.8.1-1.5-.6-1.5-1.4zm-41.6-3.7c-.8-.2-1.3-1-1.1-1.8.2-.8 1-1.3 1.8-1.1.8.2 1.3 1 1.1 1.8-.2.7-.8 1.1-1.4 1.1h-.4zm39.3-5.8c-.4-.7-.1-1.6.6-2 .7-.4 1.6-.1 2 .6.4.7.1 1.6-.6 2-.2.1-.5.2-.7.2-.6 0-1.1-.3-1.3-.8zm-35.1-3.7c-.6-.5-.7-1.5-.1-2.1.5-.6 1.5-.7 2.1-.1.6.5.7 1.5.1 2.1-.3.3-.7.5-1.1.5-.4-.1-.7-.2-1-.4zm28.6-3.5c-.7-.5-.8-1.4-.4-2.1.5-.7 1.4-.8 2.1-.4.7.5.8 1.4.4 2.1-.3.4-.8.6-1.2.6-.3.1-.6 0-.9-.2zm-20.5-3c-.3-.8.1-1.6.8-1.9.8-.3 1.6.1 1.9.9.3.8-.1 1.6-.8 1.9-.2.1-.4.1-.5.1-.6-.1-1.2-.4-1.4-1zm11.5-.4c-.8-.1-1.4-.8-1.3-1.6.1-.8.8-1.4 1.6-1.3.8.1 1.4.8 1.3 1.6-.1.8-.7 1.3-1.5 1.3h-.1z" class="prefix__st1"/></g><g id="prefix__XMLID_312_"><path id="prefix__XMLID_313_" d="M135 414.4c-.1-.7.4-1.3 1-1.3.7-.1 1.3.4 1.3 1 .1.6-.4 1.3-1 1.3h-.1c-.7 0-1.2-.4-1.2-1zm-7.6-.1c-.6-.2-.9-.9-.7-1.5.2-.6.9-.9 1.5-.7.6.2.9.9.7 1.5-.2.5-.6.8-1.1.8-.1 0-.3 0-.4-.1zm15.6-2.4c-.4-.5-.2-1.3.3-1.7.5-.4 1.3-.2 1.7.3.4.5.2 1.3-.3 1.7-.2.1-.4.2-.7.2-.4 0-.8-.2-1-.5zm-23-2.7c-.4-.5-.4-1.2.1-1.7.5-.4 1.3-.4 1.7.1.4.5.4 1.3-.1 1.7-.2.2-.5.3-.8.3-.3 0-.7-.1-.9-.4zm29-3.2c-.6-.3-.8-1-.5-1.6.3-.6 1-.8 1.6-.5.6.3.8 1 .5 1.6-.2.4-.6.6-1.1.6-.1 0-.3 0-.5-.1zm-33.2-4.7c-.2-.6.2-1.3.9-1.5.6-.2 1.3.2 1.5.9.2.6-.2 1.3-.9 1.5h-.3c-.6 0-1.1-.3-1.2-.9zm34.6-4.5c0-.1 0-.1 0 0 0-.7.5-1.3 1.2-1.3s1.2.5 1.2 1.2-.5 1.2-1.2 1.2c-.7.1-1.2-.5-1.2-1.1zm-33.7-3c-.6-.2-1-.8-.9-1.4.2-.6.8-1 1.4-.9.6.2 1 .8.9 1.5-.1.5-.6.9-1.2.9 0-.1-.1-.1-.2-.1zm31.8-4.7c-.3-.6-.1-1.3.5-1.6.6-.3 1.3-.1 1.6.5.3.6.1 1.3-.5 1.6-.2.1-.4.1-.6.1-.4.1-.8-.2-1-.6zm-28.4-3c-.5-.4-.5-1.2-.1-1.7s1.2-.5 1.7-.1.5 1.2.1 1.7c-.2.3-.6.4-.9.4-.3 0-.6-.1-.8-.3zm23.2-2.8c-.5-.4-.7-1.1-.3-1.7.4-.5 1.1-.7 1.7-.3.5.4.7 1.1.3 1.7-.2.3-.6.5-1 .5-.3 0-.5-.1-.7-.2zm-16.7-2.5c-.2-.6.1-1.3.7-1.5.6-.2 1.3.1 1.5.7.2.6-.1 1.3-.7 1.5-.1.1-.3.1-.4.1-.4 0-.9-.3-1.1-.8zm9.3-.3c-.7-.1-1.1-.7-1.1-1.3.1-.7.7-1.1 1.3-1 .7.1 1.1.7 1 1.3-.1.6-.6 1.1-1.2 1.1.1 0 .1 0 0-.1z" class="prefix__st1"/></g></g><defs><path id="prefix__SVGID_79_" d="M69 147h750v500H69z"/></defs><clipPath id="prefix__SVGID_80_"><use xlink:href="#prefix__SVGID_79_" overflow="visible"/></clipPath><g id="prefix__XMLID_224_" clip-path="url(#prefix__SVGID_80_)"><path id="prefix__XMLID_276_" d="M483.3 516c-1-.4-1.4-1.6-1-2.5.4-1 1.6-1.4 2.5-1 1 .4 1.4 1.6 1 2.5 0 .1-.1.1-.1.2-.4.8-1.5 1.2-2.4.8z" class="prefix__st1"/><path id="prefix__XMLID_275_" d="M477.2 526.5c-.8.7-2 .5-2.7-.3-.7-.8-.5-2 .3-2.7.8-.7 2-.5 2.7.3.5.6.6 1.5.2 2.2-.2.2-.3.4-.5.5z" class="prefix__st10"/><path id="prefix__XMLID_274_" d="M486.4 502.8c-1.1.1-2-.7-2.1-1.8-.1-1.1.7-2 1.8-2.1 1.1-.1 2 .7 2.1 1.8 0 .4-.1.8-.3 1.1-.3.6-.8 1-1.5 1z" class="prefix__st10"/><path id="prefix__XMLID_273_" d="M464.1 532.7c-1 .2-2.1-.5-2.3-1.5-.2-1 .5-2.1 1.5-2.3 1-.2 2.1.5 2.3 1.5.1.5 0 1-.2 1.3-.2.5-.7.9-1.3 1z" class="prefix__st10"/><path id="prefix__XMLID_272_" d="M483.1 489.7c-.9.6-2.1.3-2.7-.6-.6-.9-.3-2.1.6-2.7.9-.6 2.1-.3 2.7.6.4.6.4 1.4 0 2-.2.3-.4.5-.6.7z" class="prefix__st10"/><path id="prefix__XMLID_271_" d="M449.7 532.1c-1-.3-1.6-1.4-1.3-2.4.3-1 1.4-1.6 2.4-1.3 1 .3 1.6 1.4 1.3 2.4 0 .2-.1.3-.2.4-.4.8-1.3 1.2-2.2.9z" class="prefix__st1"/><path id="prefix__XMLID_270_" d="M471.3 480.4s0-.1 0 0c0-.1 0-.1 0 0-1-.6-1.3-1.8-.8-2.7.5-.9 1.7-1.2 2.6-.7h.2c.9.5 1.2 1.7.7 2.6-.6 1-1.7 1.3-2.7.8z" class="prefix__st1"/><path id="prefix__XMLID_269_" d="M439.9 524.8c-.7.8-2 .8-2.7.1-.8-.7-.8-2-.1-2.7.7-.8 2-.8 2.7-.1.7.6.8 1.6.3 2.4 0 .1 0 .2-.2.3z" class="prefix__st10"/><path id="prefix__XMLID_268_" d="M459.1 476.8c-1.1 0-1.9-.9-1.8-2 0-1.1.9-1.9 2-1.8 1.1 0 1.9.9 1.9 2 0 .3-.1.6-.3.9-.4.6-1 1-1.8.9z" class="prefix__st1"/><path id="prefix__XMLID_267_" d="M431.9 513.9c-1 .3-2.1-.2-2.4-1.2-.3-1 .2-2.1 1.2-2.4 1-.3 2.1.2 2.4 1.2.2.5.1 1.1-.2 1.6-.1.3-.5.7-1 .8z" class="prefix__st10"/><path id="prefix__XMLID_266_" d="M446.8 479.4c-1 .5-2.1.1-2.6-.9s0-2.1.9-2.6c1-.5 2.1-.1 2.6.9.3.6.2 1.3-.1 1.8-.1.3-.4.6-.8.8z" class="prefix__st10"/><path id="prefix__XMLID_265_" d="M429.9 500.5c-1.1-.2-1.8-1.2-1.6-2.2.2-1.1 1.2-1.8 2.2-1.6 1.1.2 1.8 1.2 1.6 2.2 0 .2-.1.5-.2.7-.4.6-1.2 1-2 .9z" class="prefix__st10"/><path id="prefix__XMLID_264_" d="M437.1 487.3c-.6.8-1.8 1-2.7.4-.8-.6-1-1.8-.4-2.7.6-.9 1.8-1 2.7-.4.8.6 1 1.7.5 2.5 0 .1-.1.2-.1.2z" class="prefix__st1"/><path id="prefix__XMLID_261_" d="M478.8 513.7c-.8-.3-1.2-1.3-.8-2.1.3-.8 1.3-1.2 2.1-.8.8.3 1.2 1.3.8 2.1 0 .1-.1.1-.1.2-.5.6-1.3.9-2 .6z" class="prefix__st10"/><path id="prefix__XMLID_260_" d="M473.7 522.3c-.7.6-1.7.4-2.2-.2-.6-.7-.5-1.7.2-2.2.7-.6 1.7-.4 2.2.2.4.5.5 1.2.1 1.8 0 .1-.1.2-.3.4z" class="prefix__st10"/><path id="prefix__XMLID_259_" d="M481.3 502.9c-.9.1-1.6-.6-1.7-1.4-.1-.9.6-1.6 1.4-1.7.9-.1 1.6.6 1.7 1.4 0 .3-.1.6-.2.9-.2.4-.7.7-1.2.8z" class="prefix__st10"/><path id="prefix__XMLID_258_" d="M463 527.3c-.9.2-1.7-.4-1.9-1.2-.2-.9.4-1.7 1.2-1.9.9-.2 1.7.4 1.9 1.2.1.4 0 .8-.2 1.1-.1.4-.5.7-1 .8z" class="prefix__st10"/><path id="prefix__XMLID_257_" d="M478.5 492.1c-.7.5-1.7.2-2.2-.5-.5-.7-.2-1.7.5-2.2.7-.5 1.7-.2 2.2.5.3.5.3 1.1 0 1.6-.1.3-.2.5-.5.6z" class="prefix__st1"/><path id="prefix__XMLID_256_" d="M451.2 526.8c-.8-.2-1.3-1.1-1.1-2 .2-.8 1.1-1.3 2-1.1.8.2 1.3 1.1 1.1 2 0 .1-.1.2-.2.4-.3.6-1 .9-1.8.7z" class="prefix__st10"/><path id="prefix__XMLID_255_" d="M468.9 484.5c-.8-.5-1.1-1.4-.7-2.2.4-.8 1.4-1 2.2-.6.8.4 1 1.4.6 2.2-.3.8-1.3 1-2.1.6z" class="prefix__st10"/><path id="prefix__XMLID_254_" d="M443.3 520.9c-.6.6-1.6.7-2.2 0-.6-.6-.6-1.6 0-2.2.6-.6 1.6-.6 2.2 0 .5.5.6 1.3.3 1.9-.2.1-.3.2-.3.3z" class="prefix__st10"/><path id="prefix__XMLID_253_" d="M459 481.6c-.9 0-1.5-.8-1.5-1.6 0-.9.8-1.5 1.6-1.5.9 0 1.6.8 1.5 1.6 0 .3-.1.5-.2.7-.3.5-.8.8-1.4.8z" class="prefix__st10"/><path id="prefix__XMLID_252_" d="M436.7 511.9c-.8.3-1.7-.2-2-1-.3-.8.2-1.7 1-2 .8-.3 1.7.2 2 1 .1.4.1.9-.1 1.3s-.5.6-.9.7z" class="prefix__st1"/><path id="prefix__XMLID_251_" d="M448.9 483.7c-.8.4-1.7 0-2.1-.8-.4-.8 0-1.7.7-2.1.8-.4 1.7 0 2.1.7.2.5.2 1-.1 1.5-.1.3-.3.5-.6.7z" class="prefix__st10"/><path id="prefix__XMLID_250_" d="M435.1 501c-.9-.1-1.4-.9-1.3-1.8.1-.9.9-1.4 1.8-1.3.9.1 1.4.9 1.3 1.8 0 .2-.1.4-.2.5-.3.6-1 .9-1.6.8z" class="prefix__st10"/><path id="prefix__XMLID_249_" d="M440.9 490.2c-.5.7-1.5.8-2.2.3-.7-.5-.8-1.5-.3-2.2.5-.7 1.5-.8 2.2-.3.6.5.8 1.4.4 2.1l-.1.1z" class="prefix__st10"/><path id="prefix__XMLID_246_" d="M474.8 511.7c-.6-.3-.9-1-.7-1.7.3-.6 1-1 1.7-.7.6.3.9 1 .7 1.7 0 0 0 .1-.1.1-.3.6-1 .8-1.6.6z" class="prefix__st10"/><path id="prefix__XMLID_245_" d="M470.8 518.6c-.5.4-1.4.4-1.8-.2-.4-.5-.4-1.3.2-1.8.5-.4 1.4-.4 1.8.2.3.4.4 1 .1 1.4-.1.2-.2.3-.3.4z" class="prefix__st10"/><path id="prefix__XMLID_244_" d="M476.9 502.9c-.7.1-1.3-.5-1.4-1.2-.1-.7.5-1.3 1.2-1.4.7-.1 1.3.5 1.4 1.2 0 .3 0 .5-.2.7-.2.4-.6.7-1 .7z" class="prefix__st10"/><path id="prefix__XMLID_243_" d="M462.1 522.7c-.7.1-1.4-.3-1.5-1-.1-.7.3-1.4 1-1.5.7-.1 1.4.3 1.5 1 .1.3 0 .6-.1.9-.2.3-.5.6-.9.6z" class="prefix__st1"/><path id="prefix__XMLID_242_" d="M474.7 494.2c-.6.4-1.4.2-1.8-.4-.4-.6-.2-1.4.4-1.8.6-.4 1.4-.2 1.8.4.3.4.3.9 0 1.3-.1.3-.3.4-.4.5z" class="prefix__st10"/><path id="prefix__XMLID_241_" d="M452.6 522.3c-.7-.2-1.1-.9-.9-1.6.2-.7.9-1.1 1.6-.9.7.2 1.1.9.9 1.6 0 .1-.1.2-.1.3-.4.6-1 .8-1.5.6z" class="prefix__st10"/><path id="prefix__XMLID_240_" d="M466.9 488c-.1 0-.1 0 0 0-.7-.4-.9-1.2-.5-1.8.3-.6 1.1-.8 1.7-.5.6.4.8 1.1.5 1.7-.3.8-1.1 1-1.7.6z" class="prefix__st1"/><path id="prefix__XMLID_239_" d="M446.1 517.5c-.5.5-1.3.5-1.8 0s-.5-1.3 0-1.8 1.3-.5 1.8 0c.4.4.5 1.1.2 1.6-.1.1-.2.1-.2.2z" class="prefix__st1"/><path id="prefix__XMLID_233_" d="M458.8 485.7c-.7 0-1.3-.6-1.2-1.3 0-.7.6-1.3 1.3-1.2.7 0 1.3.6 1.2 1.3 0 .2-.1.4-.2.6-.2.4-.6.6-1.1.6z" class="prefix__st10"/><path id="prefix__XMLID_231_" d="M440.8 510.3c-.7.2-1.4-.1-1.6-.8-.2-.7.1-1.4.8-1.6.7-.2 1.4.1 1.6.8.1.4.1.7-.1 1-.2.3-.4.5-.7.6z" class="prefix__st10"/><path id="prefix__XMLID_230_" d="M450.6 487.4c-.6.3-1.4 0-1.7-.6-.3-.6 0-1.4.6-1.7.6-.3 1.4 0 1.7.6.2.4.2.8 0 1.2-.1.2-.3.4-.6.5z" class="prefix__st10"/><path id="prefix__XMLID_229_" d="M439.4 501.4c-.7-.1-1.2-.8-1.1-1.5.1-.7.8-1.2 1.5-1.1.7.1 1.2.8 1.1 1.5 0 .2-.1.3-.2.4-.2.5-.7.8-1.3.7z" class="prefix__st10"/><path id="prefix__XMLID_228_" d="M444.2 492.7c-.4.6-1.2.7-1.8.3-.6-.4-.7-1.2-.3-1.8.4-.6 1.2-.7 1.8-.3.5.4.7 1.1.3 1.8 0-.1 0-.1 0 0z" class="prefix__st10"/></g><defs><path id="prefix__SVGID_81_" d="M69 147h750v500H69z"/></defs><clipPath id="prefix__SVGID_82_"><use xlink:href="#prefix__SVGID_81_" overflow="visible"/></clipPath><defs><path id="prefix__SVGID_83_" d="M69 147h750v500H69z"/></defs><clipPath id="prefix__SVGID_84_"><use xlink:href="#prefix__SVGID_83_" overflow="visible"/></clipPath><defs><path id="prefix__SVGID_85_" d="M69 147h750v500H69z"/></defs><clipPath id="prefix__SVGID_86_"><use xlink:href="#prefix__SVGID_85_" overflow="visible"/></clipPath><defs><path id="prefix__SVGID_87_" d="M69 147h750v500H69z"/></defs><clipPath id="prefix__SVGID_88_"><use xlink:href="#prefix__SVGID_87_" overflow="visible"/></clipPath><circle id="prefix__XMLID_364_" cx="632" cy="343" r="13" fill="none" stroke="#ffaf00" stroke-linecap="round" stroke-linejoin="round" stroke-miterlimit="10" stroke-width="10" clip-path="url(#prefix__SVGID_88_)"/><defs><path id="prefix__SVGID_89_" d="M69 147h750v500H69z"/></defs><clipPath id="prefix__SVGID_90_"><use xlink:href="#prefix__SVGID_89_" overflow="visible"/></clipPath><defs><path id="prefix__SVGID_91_" d="M69 147h750v500H69z"/></defs><clipPath id="prefix__SVGID_92_"><use xlink:href="#prefix__SVGID_91_" overflow="visible"/></clipPath><g id="prefix__XMLID_410_" clip-path="url(#prefix__SVGID_92_)"><g id="prefix__XMLID_424_"><path id="prefix__XMLID_425_" d="M341.5 377.8c-9.4 0-17-7.6-17-17s7.6-17 17-17 17 7.6 17 17-7.6 17-17 17zm0-26c-5 0-9 4-9 9s4 9 9 9 9-4 9-9-4-9-9-9z" class="prefix__st10"/></g><g id="prefix__XMLID_420_"><path id="prefix__XMLID_421_" d="M323 359.3c-9.4 0-17-7.6-17-17s7.6-17 17-17 17 7.6 17 17-7.6 17-17 17zm0-26c-5 0-9 4-9 9s4 9 9 9 9-4 9-9-4-9-9-9z" class="prefix__st12"/></g></g><defs><path id="prefix__SVGID_93_" d="M69 147h750v500H69z"/></defs><clipPath id="prefix__SVGID_94_"><use xlink:href="#prefix__SVGID_93_" overflow="visible"/></clipPath><g id="prefix__XMLID_429_" clip-path="url(#prefix__SVGID_94_)"><g id="prefix__XMLID_434_"/><g id="prefix__XMLID_430_"><path id="prefix__XMLID_431_" d="M743.3 546.3c0-9.4 7.6-17 17-17s17 7.6 17 17m-8 0c0-4.9-4-9-9-9s-9 4-9 9" class="prefix__st12"/></g></g><defs><path id="prefix__SVGID_95_" d="M69 147h750v500H69z"/></defs><clipPath id="prefix__SVGID_96_"><use xlink:href="#prefix__SVGID_95_" overflow="visible"/></clipPath><defs><path id="prefix__SVGID_97_" d="M69 147h750v500H69z"/></defs><clipPath id="prefix__SVGID_98_"><use xlink:href="#prefix__SVGID_97_" overflow="visible"/></clipPath><defs><path id="prefix__SVGID_99_" d="M69 147h750v500H69z"/></defs><clipPath id="prefix__SVGID_100_"><use xlink:href="#prefix__SVGID_99_" overflow="visible"/></clipPath><g id="prefix__XMLID_453_" clip-path="url(#prefix__SVGID_100_)"><circle id="prefix__XMLID_457_" cx="536" cy="451.7" r="4.7" class="prefix__st43"/><circle id="prefix__XMLID_458_" cx="539.1" cy="454.8" r="4.7" class="prefix__st1"/></g><defs><path id="prefix__SVGID_101_" d="M69 147h750v500H69z"/></defs><clipPath id="prefix__SVGID_102_"><use xlink:href="#prefix__SVGID_101_" overflow="visible"/></clipPath><g id="prefix__XMLID_460_" clip-path="url(#prefix__SVGID_102_)"><circle id="prefix__XMLID_462_" cx="207.3" cy="415.7" r="4.7" class="prefix__st43"/><circle id="prefix__XMLID_461_" cx="210.4" cy="418.8" r="4.7" class="prefix__st1"/></g><defs><path id="prefix__SVGID_103_" d="M819 147v500H69V147"/></defs><clipPath id="prefix__SVGID_104_"><use xlink:href="#prefix__SVGID_103_" overflow="visible"/></clipPath><g id="prefix__XMLID_454_"><path id="prefix__XMLID_456_" d="M742.7 440.3c5.4 5.4 5.4 14.1 0 19.5L723 440.3c5.5-5.3 14.3-5.3 19.7 0z" class="prefix__st1"/><path id="prefix__XMLID_455_" d="M707.1 449.5c-5.4-5.4-5.4-14.1 0-19.5l19.7 19.5c-5.4 5.4-14.2 5.4-19.7 0z" class="prefix__st9"/></g></g></svg>