<svg xmlns="http://www.w3.org/2000/svg" xml:space="preserve" id="prefix__Layer_1" x="0" y="0" version="1.1" viewBox="-293 395.6 25 9.4"><style>.prefix__st0{fill:#5180ff}.prefix__st1{fill:#4171ff}.prefix__st2{fill:#4d7dff}.prefix__st3{fill:#6a95ff}.prefix__st4{fill:#7ba4ff}.prefix__st5{fill:#5987ff}.prefix__st6{fill:#80a7ff}.prefix__st7{fill:#a0c1ff}.prefix__st8{fill:#83aaff}.prefix__st9{fill:#b5d2ff}.prefix__st10{fill:#d2e7ff}.prefix__st11{fill:#e3f5ff}.prefix__st12{fill:#fff}.prefix__st13{fill:#4877ff}.prefix__st14{fill:#608dff}.prefix__st15{fill:#5d8aff}.prefix__st16{fill:#98bcff}.prefix__st17{fill:#8ab0ff}.prefix__st18{fill:#c8e1ff}.prefix__st19{fill:#cee5ff}.prefix__st20{fill:#f9ffff}.prefix__st21{fill:#fdffff}.prefix__st22{fill:#4a7aff}.prefix__st23{fill:#5786ff}.prefix__st24{fill:#8db3ff}.prefix__st25{fill:#719bff}.prefix__st26{fill:#92b6ff}.prefix__st27{fill:#749dff}.prefix__st28{fill:#d5ebff}.prefix__st29{fill:#6692ff}.prefix__st30{fill:#6490ff}.prefix__st31{fill:#86acff}.prefix__st32{fill:#accaff}.prefix__st33{fill:#c1dbff}.prefix__st34{fill:#dbefff}.prefix__st35{fill:#6d98ff}.prefix__st36{fill:#b8d4ff}.prefix__st37{fill:#bed7ff}.prefix__st38{fill:#5383ff}.prefix__st39{fill:#c5ddff}.prefix__st40{fill:#b1ceff}.prefix__st41{fill:#f1ffff}.prefix__st42{fill:#edfbff}.prefix__st43{fill:#e7f7ff}.prefix__st44{fill:#3c6dff}.prefix__st45{fill:#3766ff}.prefix__st46{fill:#9dbfff}.prefix__st47{fill:#f5ffff}.prefix__st48{fill:#4474ff}.prefix__st50{fill:#3f70ff}.prefix__st52{fill:#3462ff}.prefix__st53{fill:#a9c8ff}.prefix__st55{fill:#315eff}.prefix__st56{fill:#a5c5ff}.prefix__st58{fill:#dff1ff}</style><path d="M-293 395.6h.8" class="prefix__st0"/><path d="M-292.2 395.6h1.2" class="prefix__st1"/><path d="M-291 395.6h1.2" class="prefix__st2"/><path d="M-289.8 395.6h1.2" class="prefix__st0"/><path d="M-288.6 395.6h1.3" class="prefix__st3"/><path d="M-287.3 395.6h1.2" class="prefix__st4"/><path d="M-286.1 395.6h1.2" class="prefix__st5"/><path d="M-284.9 395.6h1.2" class="prefix__st6"/><path d="M-283.7 395.6h1.3" class="prefix__st7"/><path d="M-282.4 395.6h1.2" class="prefix__st8"/><path d="M-281.2 395.6h1.2" class="prefix__st9"/><path d="M-280 395.6h1.2" class="prefix__st10"/><path d="M-278.8 395.6h1.3" class="prefix__st7"/><path d="M-277.5 395.6h1.2" class="prefix__st11"/><path d="M-276.3 395.6h1.2m0 0h1.2m0 0h1.3m0 0h1.2m0 0h1.2m0 0h1.2m0 0h1" class="prefix__st12"/><path d="M-293 396.5h.2l-.2-.3z" class="prefix__st13"/><path d="m-293 396.2.2.3h1.2l-.6-.9h-.8z" class="prefix__st13"/><path d="M-291 395.6h-1.2l.6.9h1.3z" class="prefix__st14"/><path d="M-289.8 395.6h-1.2l.7.9h1.2z" class="prefix__st13"/><path d="M-288.6 395.6h-1.2l.7.9h1.2z" class="prefix__st15"/><path d="M-287.3 395.6h-1.3l.7.9h1.2z" class="prefix__st14"/><path d="M-286.1 395.6h-1.2l.6.9h1.3zm1.2 0h-1.2l.7.9h1.2z" class="prefix__st4"/><path d="M-283.7 395.6h-1.2l.7.9h1.2z" class="prefix__st16"/><path d="M-282.4 395.6h-1.3l.7.9h1.2z" class="prefix__st3"/><path d="M-281.2 395.6h-1.2l.6.9h1.3z" class="prefix__st17"/><path d="M-280 395.6h-1.2l.7.9h1.2z" class="prefix__st18"/><path d="M-278.8 395.6h-1.2l.7.9h1.2z" class="prefix__st19"/><path d="M-277.5 395.6h-1.3l.7.9h1.2z" class="prefix__st12"/><path d="M-276.3 395.6h-1.2l.6.9h1.3z" class="prefix__st20"/><path d="M-275.1 395.6h-1.2l.7.9h1.2z" class="prefix__st12"/><path d="M-273.9 395.6h-1.2l.7.9h1.2z" class="prefix__st21"/><path d="M-272.6 395.6h-1.3l.7.9h1.2zm1.2 0h-1.2l.6.9h1.3zm1.2 0h-1.2l.7.9h1.2zm1.2 0h-1.2l.7.9h1.2zm1 0h-1l.7.9h.3z" class="prefix__st12"/><path d="M-293 397.4h.9l-.7-.9h-.2z" class="prefix__st15"/><path d="M-291.6 396.5h-1.2l.7.9h1.2z" class="prefix__st14"/><path d="M-290.3 396.5h-1.3l.7.9h1.2z" class="prefix__st22"/><path d="M-289.1 396.5h-1.2l.6.9h1.2z" class="prefix__st23"/><path d="M-287.9 396.5h-1.2l.6.9h1.3z" class="prefix__st5"/><path d="M-286.7 396.5h-1.2l.7.9h1.2z" class="prefix__st7"/><path d="M-285.4 396.5h-1.3l.7.9h1.2z" class="prefix__st24"/><path d="M-284.2 396.5h-1.2l.6.9h1.2z" class="prefix__st25"/><path d="M-283 396.5h-1.2l.6.9h1.3z" class="prefix__st26"/><path d="M-281.8 396.5h-1.2l.7.9h1.2z" class="prefix__st27"/><path d="M-280.5 396.5h-1.3l.7.9h1.2z" class="prefix__st24"/><path d="M-279.3 396.5h-1.2l.6.9h1.2z" class="prefix__st18"/><path d="M-278.1 396.5h-1.2l.6.9h1.3z" class="prefix__st28"/><path d="M-276.9 396.5h-1.2l.7.9h1.2z" class="prefix__st11"/><path d="M-275.6 396.5h-1.3l.7.9h1.2z" class="prefix__st26"/><path d="M-274.4 396.5h-1.2l.6.9h1.2z" class="prefix__st12"/><path d="M-273.2 396.5h-1.2l.6.9h1.3z" class="prefix__st12"/><path d="M-272 396.5h-1.2l.7.9h1.2z" class="prefix__st12"/><path d="M-270.7 396.5h-1.3l.7.9h1.2zm1.2 0h-1.2l.6.9h1.2z" class="prefix__st12"/><path d="M-268.9 397.4h.9v-.5l-.3-.4h-1.2z" class="prefix__st12"/><path d="M-268 396.9v-.4h-.3z" class="prefix__st12"/><path d="M-293 398.4h.3l-.3-.5z" class="prefix__st1"/><path d="m-293 397.9.3.5h1.2l-.6-1h-.9z" class="prefix__st23"/><path d="M-290.9 397.4h-1.2l.6 1h1.3z" class="prefix__st29"/><path d="M-289.7 397.4h-1.2l.7 1h1.2z" class="prefix__st30"/><path d="M-288.5 397.4h-1.2l.7 1h1.2z" class="prefix__st13"/><path d="M-287.2 397.4h-1.3l.7 1h1.2z" class="prefix__st14"/><path d="M-286 397.4h-1.2l.6 1h1.3z" class="prefix__st3"/><path d="M-284.8 397.4h-1.2l.7 1h1.2z" class="prefix__st31"/><path d="M-283.6 397.4h-1.2l.7 1h1.2z" class="prefix__st26"/><path d="M-282.3 397.4h-1.3l.7 1h1.2z" class="prefix__st32"/><path d="M-281.1 397.4h-1.2l.6 1h1.3z" class="prefix__st27"/><path d="M-279.9 397.4h-1.2l.7 1h1.2z" class="prefix__st7"/><path d="M-278.7 397.4h-1.2l.7 1h1.2z" class="prefix__st33"/><path d="M-277.4 397.4h-1.3l.7 1h1.2z" class="prefix__st34"/><path d="M-276.2 397.4h-1.2l.6 1h1.3z" class="prefix__st28"/><path d="M-275 397.4h-1.2l.7 1h1.2z" class="prefix__st28"/><path d="M-273.8 397.4h-1.2l.7 1h1.2z" class="prefix__st12"/><path d="M-272.5 397.4h-1.3l.7 1h1.2zm1.2 0h-1.2l.6 1h1.3z" class="prefix__st12"/><path d="M-270.1 397.4h-1.2l.7 1h1.2zm1.2 0h-1.2l.7 1h1.2zm.9 0h-.9l.7 1h.2z" class="prefix__st12"/><path d="M-293 399.3h1l-.7-.9h-.3z" class="prefix__st13"/><path d="M-291.5 398.4h-1.2l.7.9h1.2z" class="prefix__st23"/><path d="M-290.2 398.4h-1.3l.7.9h1.2z" class="prefix__st14"/><path d="M-289 398.4h-1.2l.6.9h1.2z" class="prefix__st15"/><path d="M-287.8 398.4h-1.2l.6.9h1.3z" class="prefix__st15"/><path d="M-286.6 398.4h-1.2l.7.9h1.2z" class="prefix__st31"/><path d="M-285.3 398.4h-1.3l.7.9h1.2z" class="prefix__st35"/><path d="M-284.1 398.4h-1.2l.6.9h1.2z" class="prefix__st34"/><path d="M-282.9 398.4h-1.2l.6.9h1.3z" class="prefix__st32"/><path d="M-281.7 398.4h-1.2l.7.9h1.2z" class="prefix__st16"/><path d="M-280.4 398.4h-1.3l.7.9h1.2z" class="prefix__st36"/><path d="M-279.2 398.4h-1.2l.6.9h1.2z" class="prefix__st37"/><path d="M-278 398.4h-1.2l.6.9h1.3z" class="prefix__st36"/><path d="M-276.8 398.4h-1.2l.7.9h1.2z" class="prefix__st36"/><path d="M-275.5 398.4h-1.3l.7.9h1.2z" class="prefix__st12"/><path d="M-274.3 398.4h-1.2l.6.9h1.2z" class="prefix__st10"/><path d="M-273.1 398.4h-1.2l.6.9h1.3zm1.2 0h-1.2l.7.9h1.2z" class="prefix__st12"/><path d="M-270.6 398.4h-1.3l.7.9h1.2zm1.2 0h-1.2l.6.9h1.2z" class="prefix__st12"/><path d="M-268.8 399.3h.8v-.6l-.2-.3h-1.2z" class="prefix__st12"/><path d="M-268 398.7v-.3h-.2z" class="prefix__st12"/><path d="M-293 400.3h.4l-.4-.6z" class="prefix__st38"/><path d="m-293 399.7.4.6h1.2l-.6-1h-1z" class="prefix__st13"/><path d="M-290.8 399.3h-1.2l.6 1h1.3z" class="prefix__st38"/><path d="M-289.6 399.3h-1.2l.7 1h1.2z" class="prefix__st3"/><path d="M-288.4 399.3h-1.2l.7 1h1.2z" class="prefix__st29"/><path d="M-287.1 399.3h-1.3l.7 1h1.2zm1.2 0h-1.2l.6 1h1.3z" class="prefix__st14"/><path d="M-284.7 399.3h-1.2l.7 1h1.2z" class="prefix__st24"/><path d="M-283.5 399.3h-1.2l.7 1h1.2z" class="prefix__st12"/><path d="M-282.2 399.3h-1.3l.7 1h1.2z" class="prefix__st7"/><path d="M-281 399.3h-1.2l.6 1h1.3z" class="prefix__st9"/><path d="M-279.8 399.3h-1.2l.7 1h1.2z" class="prefix__st16"/><path d="M-278.6 399.3h-1.2l.7 1h1.2z" class="prefix__st28"/><path d="M-277.3 399.3h-1.3l.7 1h1.2z" class="prefix__st39"/><path d="M-276.1 399.3h-1.2l.6 1h1.3z" class="prefix__st37"/><path d="M-274.9 399.3h-1.2l.7 1h1.2z" class="prefix__st11"/><path d="M-273.7 399.3h-1.2l.7 1h1.2z" class="prefix__st12"/><path d="M-272.4 399.3h-1.3l.7 1h1.2zm1.2 0h-1.2l.6 1h1.3z" class="prefix__st12"/><path d="M-270 399.3h-1.2l.7 1h1.2z" class="prefix__st12"/><path d="M-268.8 399.3h-1.2l.7 1h1.2z" class="prefix__st12"/><path d="M-268 399.3h-.8l.7 1h.1z" class="prefix__st12"/><path d="M-293 401.2h1.1l-.7-.9h-.4z" class="prefix__st23"/><path d="M-291.4 400.3h-1.2l.7.9h1.2z" class="prefix__st22"/><path d="M-290.1 400.3h-1.3l.7.9h1.2z" class="prefix__st22"/><path d="M-288.9 400.3h-1.2l.6.9h1.2z" class="prefix__st5"/><path d="M-287.7 400.3h-1.2l.6.9h1.3z" class="prefix__st27"/><path d="M-286.5 400.3h-1.2l.7.9h1.2z" class="prefix__st25"/><path d="M-285.2 400.3h-1.3l.7.9h1.2zm1.2 0h-1.2l.6.9h1.2z" class="prefix__st40"/><path d="M-282.8 400.3h-1.2l.6.9h1.3z" class="prefix__st32"/><path d="M-281.6 400.3h-1.2l.7.9h1.2z" class="prefix__st19"/><path d="M-280.3 400.3h-1.3l.7.9h1.2z" class="prefix__st41"/><path d="M-279.1 400.3h-1.2l.6.9h1.2z" class="prefix__st42"/><path d="M-277.9 400.3h-1.2l.6.9h1.3z" class="prefix__st21"/><path d="M-276.7 400.3h-1.2l.7.9h1.2z" class="prefix__st33"/><path d="M-275.4 400.3h-1.3l.7.9h1.2z" class="prefix__st34"/><path d="M-274.2 400.3h-1.2l.6.9h1.2z" class="prefix__st43"/><path d="M-273 400.3h-1.2l.6.9h1.3z" class="prefix__st12"/><path d="M-271.8 400.3h-1.2l.7.9h1.2z" class="prefix__st12"/><path d="M-270.5 400.3h-1.3l.7.9h1.2zm1.2 0h-1.2l.6.9h1.2zm.6.9h.7v-.8l-.1-.1h-1.2z" class="prefix__st12"/><path d="M-268 400.4v-.1h-.1z" class="prefix__st12"/><path d="M-293 402.2h.5l-.5-.8z" class="prefix__st22"/><path d="m-293 401.4.5.8h1.2l-.6-1h-1.1z" class="prefix__st38"/><path d="M-290.7 401.2h-1.2l.6 1h1.3z" class="prefix__st22"/><path d="M-289.5 401.2h-1.2l.7 1h1.2z" class="prefix__st44"/><path d="M-288.3 401.2h-1.2l.7 1h1.2z" class="prefix__st15"/><path d="M-287 401.2h-1.3l.7 1h1.2z" class="prefix__st8"/><path d="M-285.8 401.2h-1.2l.6 1h1.3z" class="prefix__st7"/><path d="M-284.6 401.2h-1.2l.7 1h1.2zm1.2 0h-1.2l.7 1h1.2z" class="prefix__st10"/><path d="M-282.1 401.2h-1.3l.7 1h1.2z" class="prefix__st39"/><path d="M-280.9 401.2h-1.2l.6 1h1.3z" class="prefix__st12"/><path d="M-279.7 401.2h-1.2l.7 1h1.2z" class="prefix__st40"/><path d="M-278.5 401.2h-1.2l.7 1h1.2z" class="prefix__st12"/><path d="M-277.2 401.2h-1.3l.7 1h1.2zm1.2 0h-1.2l.6 1h1.3z" class="prefix__st12"/><path d="M-274.8 401.2h-1.2l.7 1h1.2z" class="prefix__st12"/><path d="M-273.6 401.2h-1.2l.7 1h1.2z" class="prefix__st12"/><path d="M-272.3 401.2h-1.3l.7 1h1.2zm1.2 0h-1.2l.6 1h1.3zm1.2 0h-1.2l.7 1h1.2zm.7 1h1.2l-.7-1h-1.2zm1.2 0v-1h-.7z" class="prefix__st12"/><path d="M-293 403.1h1.2l-.7-.9h-.5z" class="prefix__st27"/><path d="M-291.3 402.2h-1.2l.7.9h1.2z" class="prefix__st23"/><path d="M-290 402.2h-1.3l.7.9h1.2z" class="prefix__st13"/><path d="M-288.8 402.2h-1.2l.6.9h1.2z" class="prefix__st45"/><path d="M-287.6 402.2h-1.2l.6.9h1.3z" class="prefix__st23"/><path d="M-286.4 402.2h-1.2l.7.9h1.2z" class="prefix__st15"/><path d="M-285.1 402.2h-1.3l.7.9h1.2z" class="prefix__st26"/><path d="M-283.9 402.2h-1.2l.6.9h1.2z" class="prefix__st46"/><path d="M-282.7 402.2h-1.2l.6.9h1.3z" class="prefix__st47"/><path d="M-281.5 402.2h-1.2l.7.9h1.2z" class="prefix__st41"/><path d="M-280.2 402.2h-1.3l.7.9h1.2zm1.2 0h-1.2l.6.9h1.2z" class="prefix__st12"/><path d="M-277.8 402.2h-1.2l.6.9h1.3z" class="prefix__st12"/><path d="M-276.6 402.2h-1.2l.7.9h1.2z" class="prefix__st12"/><path d="M-275.3 402.2h-1.3l.7.9h1.2zm1.2 0h-1.2l.6.9h1.2zm1.2 0h-1.2l.6.9h1.3zm1.2 0h-1.2l.7.9h1.2zm1.3 0h-1.3l.7.9h1.2zm1.2 0h-1.2l.6.9h1.2zm1.2 0h-1.2l.6.9h.6z" class="prefix__st12"/><path d="M-293 404.1h.6l-.6-.9z" class="prefix__st27"/><path d="m-293 403.2.6.9h1.2l-.6-1h-1.2z" class="prefix__st25"/><path d="M-290.6 403.1h-1.2l.6 1h1.3z" class="prefix__st1"/><path d="M-289.4 403.1h-1.2l.7 1h1.2z" class="prefix__st0"/><path d="M-288.2 403.1h-1.2l.7 1h1.2z" class="prefix__st48"/><path d="M-286.9 403.1h-1.3l.7 1h1.2z" class="prefix__st29"/><path d="M-285.7 403.1h-1.2l.6 1h1.3z" class="prefix__st0"/><path d="M-284.5 403.1h-1.2l.7 1h1.2z" class="prefix__st26"/><path d="M-283.3 403.1h-1.2l.7 1h1.2z" class="prefix__st43"/><path d="M-282 403.1h-1.3l.7 1h1.2z" class="prefix__st11"/><path d="M-280.8 403.1h-1.2l.6 1h1.3z" class="prefix__st12"/><path d="M-279.6 403.1h-1.2l.7 1h1.2zm1.2 0h-1.2l.7 1h1.2z" class="prefix__st12"/><path d="M-277.1 403.1h-1.3l.7 1h1.2zm1.2 0h-1.2l.6 1h1.3z" class="prefix__st12"/><path d="M-274.7 403.1h-1.2l.7 1h1.2z" class="prefix__st11"/><path d="M-273.5 403.1h-1.2l.7 1h1.2z" class="prefix__st43"/><path d="M-272.2 403.1h-1.3l.7 1h1.2zm1.2 0h-1.2l.6 1h1.3z" class="prefix__st12"/><path d="M-269.8 403.1h-1.2l.7 1h1.2z" class="prefix__st12"/><path d="M-269.1 404.1h1.1v-.2l-.6-.8h-1.2zm1.1-.2v-.8h-.6z" class="prefix__st12"/><path d="M-293 404.9v.1h1.3l-.7-.9h-.6z" class="prefix__st7"/><path d="M-291.2 404.1h-1.2l.7.9h1.2z" class="prefix__st8"/><path d="M-289.9 404.1h-1.3l.7.9h1.2z" class="prefix__st14"/><path d="M-288.7 404.1h-1.2l.6.9h1.2z" class="prefix__st22"/><path d="M-287.5 404.1h-1.2l.6.9h1.3z" class="prefix__st3"/><path d="M-286.3 404.1h-1.2l.7.9h1.2z" class="prefix__st38"/><path d="M-285 404.1h-1.3l.7.9h1.2z" class="prefix__st2"/><path d="M-283.8 404.1h-1.2l.6.9h1.2z" class="prefix__st39"/><path d="M-282.6 404.1h-1.2l.6.9h1.3zm1.2 0h-1.2l.7.9h1.2z" class="prefix__st12"/><path d="M-280.1 404.1h-1.3l.7.9h1.2zm1.2 0h-1.2l.6.9h1.2zm1.2 0h-1.2l.6.9h1.3zm1.2 0h-1.2l.7.9h1.2zm1.3 0h-1.3l.7.9h1.2z" class="prefix__st12"/><path d="M-274 404.1h-1.2l.6.9h1.2z" class="prefix__st47"/><path d="M-272.8 404.1h-1.2l.6.9h1.3z" class="prefix__st47"/><path d="M-271.6 404.1h-1.2l.7.9h1.2z" class="prefix__st12"/><path d="M-270.3 404.1h-1.3l.7.9h1.2zm1.2 0h-1.2l.6.9h1.2z" class="prefix__st12"/><path d="M-268 404.1h-1.1l.6.9h.5z" class="prefix__st12"/><path d="M-293 405h.4l.6-.9h-1z" class="prefix__st2"/><path d="M-291.4 405h-1.2l.6-.9h1.3z" class="prefix__st0"/><path d="M-290.2 405h-1.2l.7-.9h1.2z" class="prefix__st5"/><path d="M-288.9 405h-1.3l.7-.9h1.2z" class="prefix__st30"/><path d="M-287.7 405h-1.2l.6-.9h1.2z" class="prefix__st6"/><path d="M-286.5 405h-1.2l.6-.9h1.3z" class="prefix__st32"/><path d="M-285.3 405h-1.2l.7-.9h1.2z" class="prefix__st9"/><path d="M-284 405h-1.3l.7-.9h1.2z" class="prefix__st46"/><path d="M-282.8 405h-1.2l.6-.9h1.2z" class="prefix__st8"/><path fill="#78a2ff" d="M-281.6 405h-1.2l.6-.9h1.3z"/><path d="M-280.4 405h-1.2l.7-.9h1.2z" class="prefix__st25"/><path d="M-279.1 405h-1.3l.7-.9h1.2z" class="prefix__st3"/><path d="M-277.9 405h-1.2l.6-.9h1.2z" class="prefix__st31"/><path d="M-276.7 405h-1.2l.6-.9h1.3z" class="prefix__st14"/><path d="M-275.5 405h-1.2l.7-.9h1.2z" class="prefix__st38"/><path d="M-274.2 405h-1.3l.7-.9h1.2z" class="prefix__st13"/><path d="M-273 405h-1.2l.6-.9h1.2z" class="prefix__st0"/><path d="M-271.8 405h-1.2l.6-.9h1.3z" class="prefix__st50"/><path d="M-270.6 405h-1.2l.7-.9h1.2z" class="prefix__st44"/><path d="M-269.3 405h-1.3l.7-.9h1.2z" class="prefix__st2"/><path fill="#3969ff" d="m-268.1 405 .1-.2v-.7h-.7l-.6.9z"/><path d="m-293 403.8.5-.7h-.5z" class="prefix__st52"/><path d="M-293 404.1h1l.7-1h-1.2l-.5.7z" class="prefix__st45"/><path d="M-290.7 404.1h-1.3l.7-1h1.2z" class="prefix__st45"/><path d="M-289.5 404.1h-1.2l.6-1h1.3z" class="prefix__st22"/><path d="M-288.3 404.1h-1.2l.7-1h1.2z" class="prefix__st29"/><path d="M-287.1 404.1h-1.2l.7-1h1.2z" class="prefix__st27"/><path d="M-285.8 404.1h-1.3l.7-1h1.2z" class="prefix__st46"/><path d="M-284.6 404.1h-1.2l.6-1h1.3z" class="prefix__st37"/><path d="M-283.4 404.1h-1.2l.7-1h1.2z" class="prefix__st53"/><path d="M-282.2 404.1h-1.2l.7-1h1.2z" class="prefix__st43"/><path d="M-280.9 404.1h-1.3l.7-1h1.2z" class="prefix__st6"/><path d="M-279.7 404.1h-1.2l.6-1h1.3z" class="prefix__st31"/><path fill="#95b8ff" d="M-278.5 404.1h-1.2l.7-1h1.2z"/><path d="M-277.3 404.1h-1.2l.7-1h1.2z" class="prefix__st40"/><path d="M-276 404.1h-1.3l.7-1h1.2z" class="prefix__st27"/><path d="M-274.8 404.1h-1.2l.6-1h1.3z" class="prefix__st6"/><path d="M-273.6 404.1h-1.2l.7-1h1.2z" class="prefix__st29"/><path d="M-272.4 404.1h-1.2l.7-1h1.2z" class="prefix__st53"/><path d="M-271.1 404.1h-1.3l.7-1h1.2z" class="prefix__st25"/><path d="M-269.9 404.1h-1.2l.6-1h1.3z" class="prefix__st17"/><path d="M-268.7 404.1h-1.2l.7-1h1.2z" class="prefix__st48"/><path d="M-268 404.1v-1l-.7 1z" class="prefix__st45"/><path d="M-293 403.1h.5l.6-.9h-1.1z" class="prefix__st52"/><path d="M-291.3 403.1h-1.2l.6-.9h1.3z" class="prefix__st50"/><path d="M-290.1 403.1h-1.2l.7-.9h1.2z" class="prefix__st0"/><path d="M-288.8 403.1h-1.3l.7-.9h1.2z" class="prefix__st22"/><path d="M-287.6 403.1h-1.2l.6-.9h1.2z" class="prefix__st0"/><path d="M-286.4 403.1h-1.2l.6-.9h1.3z" class="prefix__st5"/><path d="M-285.2 403.1h-1.2l.7-.9h1.2z" class="prefix__st6"/><path d="M-283.9 403.1h-1.3l.7-.9h1.2z" class="prefix__st43"/><path d="M-282.7 403.1h-1.2l.6-.9h1.2z" class="prefix__st53"/><path d="M-281.5 403.1h-1.2l.6-.9h1.3z" class="prefix__st12"/><path d="M-280.3 403.1h-1.2l.7-.9h1.2z" class="prefix__st40"/><path d="M-279 403.1h-1.3l.7-.9h1.2z" class="prefix__st12"/><path d="M-277.8 403.1h-1.2l.6-.9h1.2z" class="prefix__st20"/><path d="M-276.6 403.1h-1.2l.6-.9h1.3z" class="prefix__st42"/><path d="M-275.4 403.1h-1.2l.7-.9h1.2z" class="prefix__st17"/><path d="M-274.1 403.1h-1.3l.7-.9h1.2zm1.2 0h-1.2l.6-.9h1.2z" class="prefix__st4"/><path d="M-271.7 403.1h-1.2l.6-.9h1.3z" class="prefix__st3"/><path d="M-270.5 403.1h-1.2l.7-.9h1.2z" class="prefix__st30"/><path d="M-269.2 403.1h-1.3l.7-.9h1.2z" class="prefix__st35"/><path d="M-268 403.1v-.9h-.6l-.6.9z" class="prefix__st1"/><path d="m-293 402 .6-.8h-.6z" class="prefix__st55"/><path d="M-293 402.2h1.1l.7-1h-1.2l-.6.8z" class="prefix__st50"/><path d="M-290.6 402.2h-1.3l.7-1h1.2z" class="prefix__st44"/><path d="M-289.4 402.2h-1.2l.6-1h1.3z" class="prefix__st48"/><path d="M-288.2 402.2h-1.2l.7-1h1.2z" class="prefix__st1"/><path d="M-287 402.2h-1.2l.7-1h1.2z" class="prefix__st3"/><path d="M-285.7 402.2h-1.3l.7-1h1.2z" class="prefix__st24"/><path d="M-284.5 402.2h-1.2l.6-1h1.3z" class="prefix__st6"/><path d="M-283.3 402.2h-1.2l.7-1h1.2z" class="prefix__st19"/><path d="M-282.1 402.2h-1.2l.7-1h1.2z" class="prefix__st18"/><path d="M-280.8 402.2h-1.3l.7-1h1.2z" class="prefix__st9"/><path d="M-279.6 402.2h-1.2l.6-1h1.3z" class="prefix__st43"/><path d="M-278.4 402.2h-1.2l.7-1h1.2z" class="prefix__st42"/><path d="M-277.2 402.2h-1.2l.7-1h1.2z" class="prefix__st12"/><path d="M-275.9 402.2h-1.3l.7-1h1.2z" class="prefix__st28"/><path d="M-274.7 402.2h-1.2l.6-1h1.3z" class="prefix__st33"/><path d="M-273.5 402.2h-1.2l.7-1h1.2z" class="prefix__st15"/><path d="M-272.3 402.2h-1.2l.7-1h1.2z" class="prefix__st53"/><path d="M-271 402.2h-1.3l.7-1h1.2z" class="prefix__st28"/><path d="M-269.8 402.2h-1.2l.6-1h1.3z" class="prefix__st56"/><path d="m-268.6 402.2.6-.9v-.1h-1.1l-.7 1z" class="prefix__st3"/><path d="M-268 402.2v-.9l-.6.9z" class="prefix__st13"/><path d="M-293 401.2h.6l.6-.9h-1.2z" class="prefix__st55"/><path d="M-291.2 401.2h-1.2l.6-.9h1.3z" class="prefix__st52"/><path d="M-290 401.2h-1.2l.7-.9h1.2z" class="prefix__st52"/><path d="M-288.7 401.2h-1.3l.7-.9h1.2z" class="prefix__st0"/><path d="M-287.5 401.2h-1.2l.6-.9h1.2z" class="prefix__st5"/><path d="M-286.3 401.2h-1.2l.6-.9h1.3z" class="prefix__st46"/><path d="M-285.1 401.2h-1.2l.7-.9h1.2z" class="prefix__st56"/><path d="M-283.8 401.2h-1.3l.7-.9h1.2z" class="prefix__st31"/><path d="M-282.6 401.2h-1.2l.6-.9h1.2z" class="prefix__st7"/><path d="M-281.4 401.2h-1.2l.6-.9h1.3z" class="prefix__st46"/><path d="M-280.2 401.2h-1.2l.7-.9h1.2z" class="prefix__st9"/><path d="M-278.9 401.2h-1.3l.7-.9h1.2z" class="prefix__st18"/><path d="M-277.7 401.2h-1.2l.6-.9h1.2z" class="prefix__st34"/><path d="M-276.5 401.2h-1.2l.6-.9h1.3z" class="prefix__st21"/><path d="M-275.3 401.2h-1.2l.7-.9h1.2z" class="prefix__st12"/><path d="M-274 401.2h-1.3l.7-.9h1.2z" class="prefix__st53"/><path d="M-272.8 401.2h-1.2l.6-.9h1.2z" class="prefix__st8"/><path d="M-271.6 401.2h-1.2l.6-.9h1.3z" class="prefix__st36"/><path d="M-270.4 401.2h-1.2l.7-.9h1.2z" class="prefix__st20"/><path d="M-269.1 401.2h-1.3l.7-.9h1.2z" class="prefix__st12"/><path d="M-268 401.2v-.9h-.5l-.6.9z" class="prefix__st19"/><path fill="#2751f9" d="m-293 400.3.7-1h-.7z"/><path d="M-291.8 400.3h-1.2l.7-1h1.2z" class="prefix__st44"/><path d="M-290.5 400.3h-1.3l.7-1h1.2z" class="prefix__st48"/><path d="M-289.3 400.3h-1.2l.6-1h1.3z" class="prefix__st22"/><path d="M-288.1 400.3h-1.2l.7-1h1.2z" class="prefix__st29"/><path d="M-286.9 400.3h-1.2l.7-1h1.2z" class="prefix__st23"/><path d="M-285.6 400.3h-1.3l.7-1h1.2z" class="prefix__st14"/><path d="M-284.4 400.3h-1.2l.6-1h1.2z" class="prefix__st8"/><path d="M-283.2 400.3h-1.2l.6-1h1.3z" class="prefix__st31"/><path d="M-282 400.3h-1.2l.7-1h1.2z" class="prefix__st32"/><path d="M-280.7 400.3h-1.3l.7-1h1.2z" class="prefix__st28"/><path d="M-279.5 400.3h-1.2l.6-1h1.2z" class="prefix__st24"/><path d="M-278.3 400.3h-1.2l.6-1h1.3z" class="prefix__st58"/><path d="M-277.1 400.3h-1.2l.7-1h1.2z" class="prefix__st58"/><path d="M-275.8 400.3h-1.3l.7-1h1.2z" class="prefix__st12"/><path d="M-274.6 400.3h-1.2l.6-1h1.2z" class="prefix__st41"/><path d="M-273.4 400.3h-1.2l.6-1h1.3z" class="prefix__st21"/><path d="M-272.2 400.3h-1.2l.7-1h1.2z" class="prefix__st58"/><path d="M-270.9 400.3h-1.3l.7-1h1.2z" class="prefix__st43"/><path d="M-269.7 400.3h-1.2l.6-1h1.2z" class="prefix__st12"/><path d="m-268.5 400.3.5-.7v-.3h-1.1l-.6 1z" class="prefix__st42"/><path d="M-268 400.3v-.7l-.5.7z" class="prefix__st12"/><path d="m-293 398.5.1-.1h-.1zm0 .8h.7l.6-.9h-1.2l-.1.1z" class="prefix__st13"/><path d="M-291.1 399.3h-1.2l.6-.9h1.3z" class="prefix__st50"/><path d="M-289.9 399.3h-1.2l.7-.9h1.2z" class="prefix__st1"/><path d="M-288.6 399.3h-1.3l.7-.9h1.2z" class="prefix__st2"/><path d="M-287.4 399.3h-1.2l.6-.9h1.2z" class="prefix__st14"/><path d="M-286.2 399.3h-1.2l.6-.9h1.3z" class="prefix__st23"/><path d="M-285 399.3h-1.2l.7-.9h1.2z" class="prefix__st8"/><path d="M-283.8 399.3h-1.2l.7-.9h1.2z" class="prefix__st17"/><path d="M-282.5 399.3h-1.3l.7-.9h1.2z" class="prefix__st25"/><path d="M-281.3 399.3h-1.2l.6-.9h1.3z" class="prefix__st16"/><path d="M-280.1 399.3h-1.2l.7-.9h1.2z" class="prefix__st33"/><path d="M-278.9 399.3h-1.2l.7-.9h1.2z" class="prefix__st37"/><path d="M-277.6 399.3h-1.3l.7-.9h1.2z" class="prefix__st33"/><path d="M-276.4 399.3h-1.2l.6-.9h1.3z" class="prefix__st12"/><path d="M-275.2 399.3h-1.2l.7-.9h1.2z" class="prefix__st28"/><path d="M-274 399.3h-1.2l.7-.9h1.2z" class="prefix__st12"/><path d="M-272.7 399.3h-1.3l.7-.9h1.2z" class="prefix__st12"/><path d="M-271.5 399.3h-1.2l.6-.9h1.3z" class="prefix__st42"/><path d="M-270.3 399.3h-1.2l.7-.9h1.2z" class="prefix__st12"/><path d="M-269.1 399.3h-1.2l.7-.9h1.2z" class="prefix__st12"/><path d="M-268 399.3v-.9h-.4l-.7.9z" class="prefix__st11"/><path d="M-293 398.4h.1l.7-1h-.8z" class="prefix__st0"/><path d="M-291.7 398.4h-1.2l.7-1h1.2z" class="prefix__st1"/><path d="M-290.4 398.4h-1.3l.7-1h1.2z" class="prefix__st2"/><path d="M-289.2 398.4h-1.2l.6-1h1.2z" class="prefix__st0"/><path d="M-288 398.4h-1.2l.6-1h1.3z" class="prefix__st3"/><path d="M-286.8 398.4h-1.2l.7-1h1.2z" class="prefix__st4"/><path d="M-285.5 398.4h-1.3l.7-1h1.2z" class="prefix__st5"/><path d="M-284.3 398.4h-1.2l.6-1h1.2z" class="prefix__st6"/><path d="M-283.1 398.4h-1.2l.6-1h1.3z" class="prefix__st7"/><path d="M-281.9 398.4h-1.2l.7-1h1.2z" class="prefix__st8"/><path d="M-280.6 398.4h-1.3l.7-1h1.2z" class="prefix__st9"/><path d="M-279.4 398.4h-1.2l.6-1h1.2z" class="prefix__st10"/><path d="M-278.2 398.4h-1.2l.6-1h1.3z" class="prefix__st7"/><path d="M-277 398.4h-1.2l.7-1h1.2z" class="prefix__st11"/><path d="M-275.7 398.4h-1.3l.7-1h1.2zm1.2 0h-1.2l.6-1h1.2z" class="prefix__st12"/><path d="M-273.3 398.4h-1.2l.6-1h1.3z" class="prefix__st12"/><path d="M-272.1 398.4h-1.2l.7-1h1.2z" class="prefix__st12"/><path d="M-270.8 398.4h-1.3l.7-1h1.2zm1.2 0h-1.2l.6-1h1.2z" class="prefix__st12"/><path d="m-268.4 398.4.4-.6v-.4h-1l-.6 1z" class="prefix__st12"/><path d="M-268 398.4v-.6l-.4.6z" class="prefix__st12"/><path d="m-293 396.8.2-.3h-.2zm0 .6h.8l.6-.9h-1.2l-.2.3z" class="prefix__st13"/><path d="M-291 397.4h-1.2l.6-.9h1.3z" class="prefix__st14"/><path d="M-289.8 397.4h-1.2l.7-.9h1.2z" class="prefix__st13"/><path d="M-288.6 397.4h-1.2l.7-.9h1.2z" class="prefix__st15"/><path d="M-287.3 397.4h-1.3l.7-.9h1.2z" class="prefix__st14"/><path d="M-286.1 397.4h-1.2l.6-.9h1.3zm1.2 0h-1.2l.7-.9h1.2z" class="prefix__st4"/><path d="M-283.7 397.4h-1.2l.7-.9h1.2z" class="prefix__st16"/><path d="M-282.4 397.4h-1.3l.7-.9h1.2z" class="prefix__st3"/><path d="M-281.2 397.4h-1.2l.6-.9h1.3z" class="prefix__st17"/><path d="M-280 397.4h-1.2l.7-.9h1.2z" class="prefix__st18"/><path d="M-278.8 397.4h-1.2l.7-.9h1.2z" class="prefix__st19"/><path d="M-277.5 397.4h-1.3l.7-.9h1.2z" class="prefix__st12"/><path d="M-276.3 397.4h-1.2l.6-.9h1.3z" class="prefix__st20"/><path d="M-275.1 397.4h-1.2l.7-.9h1.2z" class="prefix__st12"/><path d="M-273.9 397.4h-1.2l.7-.9h1.2z" class="prefix__st21"/><path d="M-272.6 397.4h-1.3l.7-.9h1.2zm1.2 0h-1.2l.6-.9h1.3zm1.2 0h-1.2l.7-.9h1.2zm1.2 0h-1.2l.7-.9h1.2zm1 0v-.9h-.3l-.7.9z" class="prefix__st12"/><path d="M-293 396.5h.2l.7-.9h-.9z" class="prefix__st15"/><path d="M-291.6 396.5h-1.2l.7-.9h1.2z" class="prefix__st14"/><path d="M-290.3 396.5h-1.3l.7-.9h1.2z" class="prefix__st22"/><path d="M-289.1 396.5h-1.2l.6-.9h1.2z" class="prefix__st23"/><path d="M-287.9 396.5h-1.2l.6-.9h1.3z" class="prefix__st5"/><path d="M-286.7 396.5h-1.2l.7-.9h1.2z" class="prefix__st7"/><path d="M-285.4 396.5h-1.3l.7-.9h1.2z" class="prefix__st24"/><path d="M-284.2 396.5h-1.2l.6-.9h1.2z" class="prefix__st25"/><path d="M-283 396.5h-1.2l.6-.9h1.3z" class="prefix__st26"/><path d="M-281.8 396.5h-1.2l.7-.9h1.2z" class="prefix__st27"/><path d="M-280.5 396.5h-1.3l.7-.9h1.2z" class="prefix__st24"/><path d="M-279.3 396.5h-1.2l.6-.9h1.2z" class="prefix__st18"/><path d="M-278.1 396.5h-1.2l.6-.9h1.3z" class="prefix__st28"/><path d="M-276.9 396.5h-1.2l.7-.9h1.2z" class="prefix__st11"/><path d="M-275.6 396.5h-1.3l.7-.9h1.2z" class="prefix__st26"/><path d="M-274.4 396.5h-1.2l.6-.9h1.2z" class="prefix__st12"/><path d="M-273.2 396.5h-1.2l.6-.9h1.3z" class="prefix__st12"/><path d="M-272 396.5h-1.2l.7-.9h1.2z" class="prefix__st12"/><path d="M-270.7 396.5h-1.3l.7-.9h1.2zm1.2 0h-1.2l.6-.9h1.2z" class="prefix__st12"/><path d="m-268.3 396.5.3-.4v-.5h-.9l-.6.9z" class="prefix__st12"/><path d="M-268 396.5v-.4l-.3.4z" class="prefix__st12"/><path d="M-293 395.6h.9" class="prefix__st23"/><path d="M-290.9 395.6h-1.2" class="prefix__st29"/><path d="M-289.7 395.6h-1.2" class="prefix__st30"/><path d="M-288.5 395.6h-1.2" class="prefix__st13"/><path d="M-287.2 395.6h-1.3" class="prefix__st14"/><path d="M-286 395.6h-1.2" class="prefix__st3"/><path d="M-284.8 395.6h-1.2" class="prefix__st31"/><path d="M-283.6 395.6h-1.2" class="prefix__st26"/><path d="M-282.3 395.6h-1.3" class="prefix__st32"/><path d="M-281.1 395.6h-1.2" class="prefix__st27"/><path d="M-279.9 395.6h-1.2" class="prefix__st7"/><path d="M-278.7 395.6h-1.2" class="prefix__st33"/><path d="M-277.4 395.6h-1.3" class="prefix__st34"/><path d="M-276.2 395.6h-1.2m2.4 0h-1.2" class="prefix__st28"/><path d="M-273.8 395.6h-1.2m2.5 0h-1.3m2.5 0h-1.2m2.4 0h-1.2m2.4 0h-1.2m1.2 0h.9" class="prefix__st12"/><radialGradient id="prefix__SVGID_1_" cx="-866.863" cy="1180" r="21.608" gradientTransform="matrix(-1 0 0 1 -1147 -775)" gradientUnits="userSpaceOnUse"><stop offset="0" stop-color="#fff" stop-opacity="0"/><stop offset=".074" stop-color="#dedfeb" stop-opacity=".07"/><stop offset=".217" stop-color="#a4a7c7" stop-opacity=".206"/><stop offset=".36" stop-color="#7277a8" stop-opacity=".342"/><stop offset=".5" stop-color="#494f8f" stop-opacity=".475"/><stop offset=".636" stop-color="#29317b" stop-opacity=".604"/><stop offset=".767" stop-color="#121b6d" stop-opacity=".729"/><stop offset=".891" stop-color="#050e65" stop-opacity=".846"/><stop offset="1" stop-color="#000962" stop-opacity=".95"/></radialGradient><path fill="url(#prefix__SVGID_1_)" d="M-268 405h-25"/></svg>