<svg xmlns="http://www.w3.org/2000/svg" xmlns:xlink="http://www.w3.org/1999/xlink" xml:space="preserve" id="prefix__Layer_1" x="0" y="0" version="1.1" viewBox="69 385 750 262"><style>.prefix__st2{fill:none;stroke:#ededed;stroke-miterlimit:10}.prefix__st13{fill:#e4e4e4}.prefix__st15{fill:#e5575e}</style><defs><path id="prefix__SVGID_1_" d="M69 147h750v500H69z"/></defs><clipPath id="prefix__SVGID_2_"><use xlink:href="#prefix__SVGID_1_" overflow="visible"/></clipPath><circle cx="210.4" cy="495.5" r="106.7" fill="#e4e4e4" clip-path="url(#prefix__SVGID_2_)" opacity=".5"/><defs><path id="prefix__SVGID_3_" d="M69 147h750v500H69z"/></defs><clipPath id="prefix__SVGID_4_"><use xlink:href="#prefix__SVGID_3_" overflow="visible"/></clipPath><defs><path id="prefix__SVGID_5_" d="M69 147h750v500H69z"/></defs><clipPath id="prefix__SVGID_6_"><use xlink:href="#prefix__SVGID_5_" overflow="visible"/></clipPath><defs><path id="prefix__SVGID_7_" d="M69 147h750v500H69z"/></defs><clipPath id="prefix__SVGID_8_"><use xlink:href="#prefix__SVGID_7_" overflow="visible"/></clipPath><g clip-path="url(#prefix__SVGID_8_)"><circle cx="104.9" cy="617.2" r="3.7" class="prefix__st2"/><circle cx="104.9" cy="600.3" r="3.7" class="prefix__st2"/><circle cx="104.9" cy="583.4" r="3.7" class="prefix__st2"/><circle cx="104.9" cy="566.5" r="3.7" class="prefix__st2"/><circle cx="104.9" cy="549.6" r="3.7" class="prefix__st2"/><circle cx="104.9" cy="532.7" r="3.7" class="prefix__st2"/><circle cx="104.9" cy="515.8" r="3.7" class="prefix__st2"/></g><defs><path id="prefix__SVGID_9_" d="M69 147h750v500H69z"/></defs><clipPath id="prefix__SVGID_10_"><use xlink:href="#prefix__SVGID_9_" overflow="visible"/></clipPath><g clip-path="url(#prefix__SVGID_10_)"><circle cx="213.2" cy="119.4" r="3.7" class="prefix__st2"/><circle cx="213.2" cy="136.3" r="3.7" class="prefix__st2"/></g><defs><path id="prefix__SVGID_11_" d="M69 147h750v500H69z"/></defs><clipPath id="prefix__SVGID_12_"><use xlink:href="#prefix__SVGID_11_" overflow="visible"/></clipPath><path fill="none" d="M32.6 95.6h105.1V126H32.6z" clip-path="url(#prefix__SVGID_12_)"/><defs><path id="prefix__SVGID_13_" d="M69 147h750v500H69z"/></defs><clipPath id="prefix__SVGID_14_"><use xlink:href="#prefix__SVGID_13_" overflow="visible"/></clipPath><path fill="none" stroke="#e5575e" stroke-miterlimit="10" d="M344.5 140.5c21.5-16.8 51.4-16.5 78.7-15.4" clip-path="url(#prefix__SVGID_14_)"/><defs><path id="prefix__SVGID_15_" d="M69 147h750v500H69z"/></defs><clipPath id="prefix__SVGID_16_"><use xlink:href="#prefix__SVGID_15_" overflow="visible"/></clipPath><path fill="none" stroke="#e5575e" stroke-miterlimit="10" d="M452.7 717.1c-11.7-46 26.2-81 63.4-100 40.7-20.8 86.7-23.1 131.5-20.7 39.5 2.1 86.3 14.5 108.3-28.9 9.3-18.5 11.8-39.6 23-57.2 14-22.1 39.7-34.7 65.6-38.6 25.9-3.8 52.3.1 78 4.7" clip-path="url(#prefix__SVGID_16_)"/><defs><path id="prefix__SVGID_17_" d="M69 147h750v500H69z"/></defs><clipPath id="prefix__SVGID_18_"><use xlink:href="#prefix__SVGID_17_" overflow="visible"/></clipPath><defs><path id="prefix__SVGID_19_" d="M69 147h750v500H69z"/></defs><clipPath id="prefix__SVGID_20_"><use xlink:href="#prefix__SVGID_19_" overflow="visible"/></clipPath><g clip-path="url(#prefix__SVGID_20_)"><path d="M520.6 418.2c4.7-3.6 7.2-.5 11.9-4.1 4.7-3.6 2.3-6.8 7-10.4s7.2-.5 11.9-4.1c4.7-3.6 2.3-6.8 7-10.4 4.7-3.6 7.2-.5 11.9-4.1s2.3-6.8 7-10.4" class="prefix__st2"/></g><defs><path id="prefix__SVGID_21_" d="M69 147h750v500H69z"/></defs><clipPath id="prefix__SVGID_22_"><use xlink:href="#prefix__SVGID_21_" overflow="visible"/></clipPath><g clip-path="url(#prefix__SVGID_22_)"><path d="M143.8 557.9c4.7-3.6 7.2-.4 11.9-4s2.3-6.8 7.1-10.4c4.7-3.6 7.2-.4 11.9-4s2.3-6.8 7.1-10.4c4.7-3.6 7.2-.4 11.9-4s2.3-6.8 7.1-10.4c4.7-3.6 7.2-.4 11.9-4s2.3-6.8 7.1-10.4 7.2-.4 11.9-4c4.8-3.6 2.3-6.8 7.1-10.4" class="prefix__st2"/></g><defs><path id="prefix__SVGID_23_" d="M69 147h750v500H69z"/></defs><clipPath id="prefix__SVGID_24_"><use xlink:href="#prefix__SVGID_23_" overflow="visible"/></clipPath><defs><path id="prefix__SVGID_25_" d="M69 147h750v500H69z"/></defs><clipPath id="prefix__SVGID_26_"><use xlink:href="#prefix__SVGID_25_" overflow="visible"/></clipPath><circle cx="781" cy="621" r="1.8" fill="#e5575e" clip-path="url(#prefix__SVGID_26_)"/><defs><path id="prefix__SVGID_27_" d="M69 147h750v500H69z"/></defs><clipPath id="prefix__SVGID_28_"><use xlink:href="#prefix__SVGID_27_" overflow="visible"/></clipPath><defs><path id="prefix__SVGID_29_" d="M69 147h750v500H69z"/></defs><clipPath id="prefix__SVGID_30_"><use xlink:href="#prefix__SVGID_29_" overflow="visible"/></clipPath><circle cx="701.8" cy="569.7" r="2.3" fill="#e4e4e4" clip-path="url(#prefix__SVGID_30_)"/><defs><path id="prefix__SVGID_31_" d="M69 147h750v500H69z"/></defs><clipPath id="prefix__SVGID_32_"><use xlink:href="#prefix__SVGID_31_" overflow="visible"/></clipPath><defs><path id="prefix__SVGID_33_" d="M69 147h750v500H69z"/></defs><clipPath id="prefix__SVGID_34_"><use xlink:href="#prefix__SVGID_33_" overflow="visible"/></clipPath><circle cx="96.6" cy="459.7" r="2.3" fill="#e5575e" clip-path="url(#prefix__SVGID_34_)"/><defs><path id="prefix__SVGID_35_" d="M69 147h750v500H69z"/></defs><clipPath id="prefix__SVGID_36_"><use xlink:href="#prefix__SVGID_35_" overflow="visible"/></clipPath><g clip-path="url(#prefix__SVGID_36_)"><path d="M195.7 401.4c-1-.3-1.6-1.2-1.3-2.1.2-.9 1.1-1.6 2.1-1.4 1 .2 1.7 1.1 1.5 2.2-.4.9-1.4 1.6-2.3 1.3zm-4 10.2c-.8-.5-1.2-1.6-.8-2.4.4-.9 1.5-1.2 2.4-.8.9.4 1.3 1.5.8 2.5-.5.8-1.5 1.2-2.4.7zm-6.5 8.8c-.7-.7-.8-1.8-.1-2.5.7-.7 1.7-.8 2.5-.2.8.6.9 1.8.2 2.6-.7.7-1.9.8-2.6.1zm-8.4 7c-.3-.4-.3-.9-.2-1.3s.4-.8.7-1.1c.8-.6 1.9-.4 2.5.4s.4 1.9-.4 2.6c-.4.3-.9.4-1.4.3-.5-.2-.9-.5-1.2-.9z" class="prefix__st13"/><path d="M166.9 432.1c-.3-1 .2-2 1.1-2.3s2 .1 2.3 1.1c.4.9-.1 2-1.1 2.3-.9.3-2-.2-2.3-1.1z" class="prefix__st15" opacity=".2"/><path d="M156.1 434.1c-.1-1 .7-1.8 1.6-1.9s1.8.5 2 1.5-.6 1.9-1.6 2.1c-1 .1-1.9-.7-2-1.7z" class="prefix__st15" opacity=".3"/><path d="M145.2 433.4c.2-1 1.1-1.7 2.1-1.5.9.1 1.6 1.1 1.5 2.1-.1 1-1 1.7-2.1 1.5-1-.2-1.7-1.1-1.5-2.1z" class="prefix__st15" opacity=".4"/><path d="M134.8 430c.4-.9 1.5-1.3 2.4-.9.9.3 1.4 1.4 1 2.3-.3.9-1.4 1.4-2.4 1-1-.3-1.4-1.5-1-2.4z" class="prefix__st15" opacity=".5"/><path d="M125.6 424.2c.6-.8 1.8-.9 2.6-.3s.9 1.7.4 2.5c-.6.8-1.7 1-2.6.3-.9-.6-1.1-1.7-.4-2.5z" class="prefix__st15" opacity=".6"/><path d="M118.1 416.2c.8-.6 1.9-.4 2.5.3.5.8.5 1.9-.2 2.5-.7.6-2 .6-2.6-.3-.6-.7-.5-1.9.3-2.5z" class="prefix__st15" opacity=".7"/><path d="M112.8 406.6c1-.4 1.9.1 2.4.9.4.9 0 1.9-.9 2.4s-2 0-2.4-.9c-.5-.9 0-2 .9-2.4z" class="prefix__st15" opacity=".8"/><path d="M110.1 396c1-.1 1.9.6 2.1 1.5.1 1-.5 1.9-1.5 2.1-1 .2-1.9-.5-2.1-1.5-.1-1 .5-1.9 1.5-2.1z" class="prefix__st15" opacity=".9"/><path d="M110.1 385.1c1 .1 1.6 1 1.6 2s-.9 1.7-1.9 1.7-1.8-.9-1.7-2c0-1.1 1.1-1.8 2-1.7z" class="prefix__st15"/><path d="M112.8 374.5c.9.4 1.4 1.4 1.1 2.3-.3.9-1.4 1.4-2.3 1.1-1-.3-1.5-1.3-1.1-2.3s1.4-1.5 2.3-1.1z" class="prefix__st15" opacity=".02"/><path d="M197.1 390.6c-1 0-1.9-.8-1.9-1.8s.7-1.8 1.7-1.9c1-.1 1.8.7 1.9 1.8 0 1-.7 1.9-1.7 1.9z" class="prefix__st15"/></g><g id="prefix__OBJECTS"><defs><path id="prefix__SVGID_37_" d="M69 147h750v500H69z"/></defs><clipPath id="prefix__SVGID_38_"><use xlink:href="#prefix__SVGID_37_" overflow="visible"/></clipPath><g clip-path="url(#prefix__SVGID_38_)"><defs><circle id="prefix__SVGID_39_" cx="310.1" cy="541.5" r="44.7"/></defs><clipPath id="prefix__SVGID_40_"><use xlink:href="#prefix__SVGID_39_" overflow="visible"/></clipPath><g clip-path="url(#prefix__SVGID_40_)"><path fill="none" stroke="#fff" stroke-miterlimit="10" stroke-width="1.562" d="M332.8 472.1 195.2 582m149.9-105.1L207.4 586.8m149.9-105.2-137.6 110m149.9-105.2L231.9 596.3m149.9-105.1L244.2 601.1m149.9-105.2-137.7 110m149.9-105.2L268.7 610.6m149.9-105.2-137.7 110"/></g><defs><path id="prefix__SVGID_41_" d="M69 147h750v500H69z"/></defs><clipPath id="prefix__SVGID_42_"><use xlink:href="#prefix__SVGID_41_" overflow="visible"/></clipPath><g clip-path="url(#prefix__SVGID_42_)"><circle cx="716.5" cy="519.7" r="1.5" class="prefix__st15"/><circle cx="716.5" cy="504.7" r="1.5" class="prefix__st15"/><circle cx="716.5" cy="489.8" r="1.5" class="prefix__st13"/><circle cx="716.5" cy="474.9" r="1.5" class="prefix__st13"/><circle cx="716.5" cy="460" r="1.5" class="prefix__st13"/><circle cx="716.5" cy="445.1" r="1.5" class="prefix__st13"/><circle cx="716.5" cy="430.1" r="1.5" class="prefix__st13"/><circle cx="716.5" cy="415.2" r="1.5" class="prefix__st13"/><circle cx="727.8" cy="519.7" r="1.5" class="prefix__st15"/><circle cx="727.8" cy="504.7" r="1.5" class="prefix__st15"/><circle cx="727.8" cy="489.8" r="1.5" class="prefix__st13"/><circle cx="727.8" cy="474.9" r="1.5" class="prefix__st13"/><circle cx="727.8" cy="460" r="1.5" class="prefix__st13"/><circle cx="727.8" cy="445.1" r="1.5" class="prefix__st13"/><circle cx="727.8" cy="430.1" r="1.5" class="prefix__st13"/><circle cx="727.8" cy="415.2" r="1.5" class="prefix__st13"/><circle cx="739.1" cy="519.7" r="1.5" class="prefix__st15"/><circle cx="739.1" cy="504.7" r="1.5" class="prefix__st15"/><circle cx="739.1" cy="489.8" r="1.5" class="prefix__st13"/><circle cx="739.1" cy="474.9" r="1.5" class="prefix__st13"/><circle cx="739.1" cy="460" r="1.5" class="prefix__st13"/><circle cx="739.1" cy="445.1" r="1.5" class="prefix__st13"/><circle cx="739.1" cy="430.1" r="1.5" class="prefix__st13"/><circle cx="739.1" cy="415.2" r="1.5" class="prefix__st13"/><circle cx="750.4" cy="519.7" r="1.5" class="prefix__st15"/><circle cx="750.4" cy="504.7" r="1.5" class="prefix__st15"/><circle cx="750.4" cy="489.8" r="1.5" class="prefix__st13"/><circle cx="750.4" cy="474.9" r="1.5" class="prefix__st13"/><circle cx="750.4" cy="460" r="1.5" class="prefix__st13"/><circle cx="750.4" cy="445.1" r="1.5" class="prefix__st13"/><circle cx="750.4" cy="430.1" r="1.5" class="prefix__st13"/><circle cx="750.4" cy="415.2" r="1.5" class="prefix__st13"/></g><defs><path id="prefix__SVGID_43_" d="M69 147h750v500H69z"/></defs><clipPath id="prefix__SVGID_44_"><use xlink:href="#prefix__SVGID_43_" overflow="visible"/></clipPath><g clip-path="url(#prefix__SVGID_44_)"><circle cx="257.8" cy="397.1" r="1.5" class="prefix__st13"/><circle cx="272.8" cy="397.1" r="1.5" class="prefix__st13"/><circle cx="287.7" cy="397.1" r="1.5" class="prefix__st13"/><circle cx="302.6" cy="397.1" r="1.5" class="prefix__st13"/><circle cx="317.5" cy="397.1" r="1.5" class="prefix__st13"/><circle cx="332.4" cy="397.1" r="1.5" class="prefix__st13"/><circle cx="347.3" cy="397.1" r="1.5" class="prefix__st15"/><circle cx="362.3" cy="397.1" r="1.5" class="prefix__st15"/><circle cx="257.8" cy="408.4" r="1.5" class="prefix__st13"/><circle cx="272.8" cy="408.4" r="1.5" class="prefix__st13"/><circle cx="287.7" cy="408.4" r="1.5" class="prefix__st13"/><circle cx="302.6" cy="408.4" r="1.5" class="prefix__st13"/><circle cx="317.5" cy="408.4" r="1.5" class="prefix__st13"/><circle cx="332.4" cy="408.4" r="1.5" class="prefix__st13"/><circle cx="347.3" cy="408.4" r="1.5" class="prefix__st15"/><circle cx="362.3" cy="408.4" r="1.5" class="prefix__st15"/><circle cx="257.8" cy="419.7" r="1.5" class="prefix__st13"/><circle cx="272.8" cy="419.7" r="1.5" class="prefix__st13"/><circle cx="287.7" cy="419.7" r="1.5" class="prefix__st13"/><circle cx="302.6" cy="419.7" r="1.5" class="prefix__st13"/><circle cx="317.5" cy="419.7" r="1.5" class="prefix__st13"/><circle cx="332.4" cy="419.7" r="1.5" class="prefix__st13"/><circle cx="347.3" cy="419.7" r="1.5" class="prefix__st15"/><circle cx="362.3" cy="419.7" r="1.5" class="prefix__st15"/><circle cx="257.8" cy="431" r="1.5" class="prefix__st13"/><circle cx="272.8" cy="431" r="1.5" class="prefix__st13"/><circle cx="287.7" cy="431" r="1.5" class="prefix__st13"/><circle cx="302.6" cy="431" r="1.5" class="prefix__st13"/><circle cx="317.5" cy="431" r="1.5" class="prefix__st13"/><circle cx="332.4" cy="431" r="1.5" class="prefix__st13"/><circle cx="347.3" cy="431" r="1.5" class="prefix__st15"/><circle cx="362.3" cy="431" r="1.5" class="prefix__st15"/></g><defs><path id="prefix__SVGID_45_" d="M69 147h750v500H69z"/></defs><clipPath id="prefix__SVGID_46_"><use xlink:href="#prefix__SVGID_45_" overflow="visible"/></clipPath><defs><path id="prefix__SVGID_47_" d="M69 147h750v500H69z"/></defs><clipPath id="prefix__SVGID_48_"><use xlink:href="#prefix__SVGID_47_" overflow="visible"/></clipPath><path fill="#e4e4e4" d="m611.2 588.1-27.7-29.4-37.1 35-37.2-35-27.7 29.4 35.4 33.3-35.4 33.4 27.7 29.4 37.2-35 37.1 35 27.7-29.4-35.4-33.4z" clip-path="url(#prefix__SVGID_48_)" opacity=".5"/><defs><path id="prefix__SVGID_49_" d="M69 147h750v500H69z"/></defs><clipPath id="prefix__SVGID_50_"><use xlink:href="#prefix__SVGID_49_" overflow="visible"/></clipPath><defs><path id="prefix__SVGID_51_" d="M69 147h750v500H69z"/></defs><clipPath id="prefix__SVGID_52_"><use xlink:href="#prefix__SVGID_51_" overflow="visible"/></clipPath><defs><path id="prefix__SVGID_53_" d="M69 147h750v500H69z"/></defs><clipPath id="prefix__SVGID_54_"><use xlink:href="#prefix__SVGID_53_" overflow="visible"/></clipPath><path fill="#e5575e" d="M809.7 428H852v12.3h-42.3z" clip-path="url(#prefix__SVGID_54_)"/><defs><path id="prefix__SVGID_55_" d="M69 147h750v500H69z"/></defs><clipPath id="prefix__SVGID_56_"><use xlink:href="#prefix__SVGID_55_" overflow="visible"/></clipPath><path fill="#e5575e" d="M809.7 404.9H852v12.3h-42.3z" clip-path="url(#prefix__SVGID_56_)"/><defs><path id="prefix__SVGID_57_" d="M69 147h750v500H69z"/></defs><clipPath id="prefix__SVGID_58_"><use xlink:href="#prefix__SVGID_57_" overflow="visible"/></clipPath><path fill="#e5575e" d="M36.6 397.9h42.3v12.3H36.6z" clip-path="url(#prefix__SVGID_58_)"/><defs><path id="prefix__SVGID_59_" d="M69 147h750v500H69z"/></defs><clipPath id="prefix__SVGID_60_"><use xlink:href="#prefix__SVGID_59_" overflow="visible"/></clipPath><path fill="#e5575e" d="M468.8 385.7h-6.4" clip-path="url(#prefix__SVGID_60_)"/><defs><path id="prefix__SVGID_61_" d="M69 147h750v500H69z"/></defs><clipPath id="prefix__SVGID_62_"><use xlink:href="#prefix__SVGID_61_" overflow="visible"/></clipPath><path fill="#e5575e" d="M179 635.8h72.4v24.6H179z" clip-path="url(#prefix__SVGID_62_)"/><defs><path id="prefix__SVGID_63_" d="M69 147h750v500H69z"/></defs><clipPath id="prefix__SVGID_64_"><use xlink:href="#prefix__SVGID_63_" overflow="visible"/></clipPath><path fill="#e5575e" d="M138.3 635.8h29.5v24.6h-29.5z" clip-path="url(#prefix__SVGID_64_)"/><defs><path id="prefix__SVGID_65_" d="M69 147h750v500H69z"/></defs><clipPath id="prefix__SVGID_66_"><use xlink:href="#prefix__SVGID_65_" overflow="visible"/></clipPath><defs><path id="prefix__SVGID_67_" d="M69 147h750v500H69z"/></defs><clipPath id="prefix__SVGID_68_"><use xlink:href="#prefix__SVGID_67_" overflow="visible"/></clipPath><g clip-path="url(#prefix__SVGID_68_)"><path fill="none" stroke="#e4e4e4" stroke-miterlimit="10" d="M661 408.2h14v14h-14z"/></g><defs><path id="prefix__SVGID_69_" d="M69 147h750v500H69z"/></defs><clipPath id="prefix__SVGID_70_"><use xlink:href="#prefix__SVGID_69_" overflow="visible"/></clipPath><defs><path id="prefix__SVGID_71_" d="M69 147h750v500H69z"/></defs><clipPath id="prefix__SVGID_72_"><use xlink:href="#prefix__SVGID_71_" overflow="visible"/></clipPath><defs><path id="prefix__SVGID_73_" d="M69 147h750v500H69z"/></defs><clipPath id="prefix__SVGID_74_"><use xlink:href="#prefix__SVGID_73_" overflow="visible"/></clipPath><defs><path id="prefix__SVGID_75_" d="M69 147h750v500H69z"/></defs><clipPath id="prefix__SVGID_76_"><use xlink:href="#prefix__SVGID_75_" overflow="visible"/></clipPath><g clip-path="url(#prefix__SVGID_76_)"><path fill="none" stroke="#e5575e" stroke-linecap="round" stroke-miterlimit="10" stroke-width="2.185" d="m484 531.3-10 10.2m10.1-.1-10.2-10"/></g><defs><path id="prefix__SVGID_77_" d="M69 147h750v500H69z"/></defs><clipPath id="prefix__SVGID_78_"><use xlink:href="#prefix__SVGID_77_" overflow="visible"/></clipPath><defs><path id="prefix__SVGID_79_" d="M69 147h750v500H69z"/></defs><clipPath id="prefix__SVGID_80_"><use xlink:href="#prefix__SVGID_79_" overflow="visible"/></clipPath><g clip-path="url(#prefix__SVGID_80_)"><path fill="none" stroke="#fff" stroke-linecap="round" stroke-miterlimit="10" stroke-width="2.185" d="m403.4 599-9.9 10.1m10-.1-10.1-9.9"/></g><defs><path id="prefix__SVGID_81_" d="M69 147h750v500H69z"/></defs><clipPath id="prefix__SVGID_82_"><use xlink:href="#prefix__SVGID_81_" overflow="visible"/></clipPath><defs><path id="prefix__SVGID_83_" d="M69 147h750v500H69z"/></defs><clipPath id="prefix__SVGID_84_"><use xlink:href="#prefix__SVGID_83_" overflow="visible"/></clipPath><g clip-path="url(#prefix__SVGID_84_)"><circle cx="591.4" cy="503" r="52" fill="none" stroke="#e5575e" stroke-miterlimit="10" stroke-width=".822" opacity=".5"/><path fill="none" stroke="#fff" stroke-linecap="round" stroke-miterlimit="10" stroke-width="3" d="M591.4 493.2v19.5m9.7-9.7h-19.5"/></g><defs><path id="prefix__SVGID_85_" d="M69 147h750v500H69z"/></defs><clipPath id="prefix__SVGID_86_"><use xlink:href="#prefix__SVGID_85_" overflow="visible"/></clipPath><g clip-path="url(#prefix__SVGID_86_)" opacity=".5"><path fill="none" stroke="#fff" stroke-miterlimit="10" d="M411.8 406.5h98.3v98.3h-98.3zm16.4 0v98.3m16.4-98.3v98.3m16.4-98.3v98.3m16.4-98.3v98.3m16.3-98.3v98.3m16.4-16.4h-98.3m98.3-16.4h-98.3m98.3-16.3h-98.3m98.3-16.4h-98.3m98.3-16.4h-98.3"/></g><defs><path id="prefix__SVGID_87_" d="M69 147h750v500H69z"/></defs><clipPath id="prefix__SVGID_88_"><use xlink:href="#prefix__SVGID_87_" overflow="visible"/></clipPath><g clip-path="url(#prefix__SVGID_88_)"><path d="M441.9 481.8h15v15h-15z" class="prefix__st15"/><path d="M426.9 496.8h15v15h-15z" class="prefix__st13"/></g><defs><path id="prefix__SVGID_89_" d="M69 147h750v500H69z"/></defs><clipPath id="prefix__SVGID_90_"><use xlink:href="#prefix__SVGID_89_" overflow="visible"/></clipPath><path fill="none" stroke="#fff" stroke-miterlimit="10" stroke-width="1.562" d="M293 146.4c5.6-21.4 20.7-42.7 42.6-46.1" clip-path="url(#prefix__SVGID_90_)"/><defs><path id="prefix__SVGID_91_" d="M69 147h750v500H69z"/></defs><clipPath id="prefix__SVGID_92_"><use xlink:href="#prefix__SVGID_91_" overflow="visible"/></clipPath><path fill="none" stroke="#fff" stroke-miterlimit="10" stroke-width="1.562" d="M629.3 676.5c2.9-21.5 26.6-33.7 48-36.7 21.5-3 44.2-.8 63.9-10 19.6-9.2 32.6-28 44.3-46.2s24-37.3 43-47.7c19-10.3 46.9-7.8 57.4 11.2" clip-path="url(#prefix__SVGID_92_)"/></g></g></svg>