<svg xmlns="http://www.w3.org/2000/svg" xml:space="preserve" id="prefix__Layer_1" x="0" y="0" version="1.1" viewBox="1203 -554.7 3018 949.8"><style>.prefix__st10{fill:none;stroke:#fff;stroke-miterlimit:10}</style><radialGradient id="prefix__SVGID_1_" cx="1291.937" cy="2345.961" r="3145.604" gradientTransform="matrix(1 0 0 -.4996 0 117.634)" gradientUnits="userSpaceOnUse"><stop offset="0" stop-color="#ffe67b"/><stop offset=".353" stop-color="#ea1398"/><stop offset="1" stop-color="#0d2570"/></radialGradient><path fill="url(#prefix__SVGID_1_)" d="M1203-554.2h3018v949.3H1203z"/><radialGradient id="prefix__SVGID_2_" cx="1696.599" cy="257.198" r="2217.226" gradientTransform="matrix(1 0 0 -1 0 790.6)" gradientUnits="userSpaceOnUse"><stop offset="0" stop-color="#ffe67b"/><stop offset=".353" stop-color="#ea1398"/><stop offset="1" stop-color="#0d2570"/></radialGradient><path fill="url(#prefix__SVGID_2_)" d="m1736.5-554.2 484.2 746.9L2560-554.2z"/><radialGradient id="prefix__SVGID_3_" cx="2475.195" cy="476.802" r="2587.718" gradientTransform="matrix(1 0 0 -1 0 790.6)" gradientUnits="userSpaceOnUse"><stop offset="0" stop-color="#ffe67b"/><stop offset=".353" stop-color="#ea1398"/><stop offset="1" stop-color="#0d2570"/></radialGradient><path fill="url(#prefix__SVGID_3_)" d="M2220.7 192.7 1203-554.2h533.5z"/><radialGradient id="prefix__SVGID_4_" cx="4312.119" cy="1542.358" r="3331.762" gradientTransform="matrix(-.5037 -.7235 -.537 .3738 4608.159 3372.47)" gradientUnits="userSpaceOnUse"><stop offset="0" stop-color="#ffe67b"/><stop offset=".353" stop-color="#ea1398"/><stop offset="1" stop-color="#0d2570"/></radialGradient><path fill="url(#prefix__SVGID_4_)" d="m1689.4 300.1-92.7 199.2 338.5 86z"/><radialGradient id="prefix__SVGID_5_" cx="4127.452" cy="449.314" r="1667.38" gradientTransform="matrix(-.5037 -.7235 -.537 .3738 4608.159 3372.47)" gradientUnits="userSpaceOnUse"><stop offset="0" stop-color="#ffe67b"/><stop offset=".353" stop-color="#ea1398"/><stop offset="1" stop-color="#0d2570"/></radialGradient><path fill="url(#prefix__SVGID_5_)" d="m1689.4 300.1 134.3 67.4 111.5 217.8z"/><radialGradient id="prefix__SVGID_6_" cx="2795.198" cy="-483.122" r="471.875" gradientTransform="scale(1 -1) rotate(-41.623 3377.845 -723.993)" gradientUnits="userSpaceOnUse"><stop offset="0" stop-color="#ffe67b"/><stop offset=".353" stop-color="#ea1398"/><stop offset="1" stop-color="#0d2570"/></radialGradient><path fill="url(#prefix__SVGID_6_)" d="m3066.5 365.6 118.1 37.9 3.3 109.4z"/><radialGradient id="prefix__SVGID_7_" cx="2858.155" cy="-59.304" r="774.222" gradientTransform="scale(1 -1) rotate(-41.623 3377.845 -723.993)" gradientUnits="userSpaceOnUse"><stop offset="0" stop-color="#ffe67b"/><stop offset=".353" stop-color="#ea1398"/><stop offset="1" stop-color="#0d2570"/></radialGradient><path fill="url(#prefix__SVGID_7_)" d="m3184.6 403.5 114.5-91.3-111.2 200.7z"/><radialGradient id="prefix__SVGID_8_" cx="2837.007" cy="-471.022" r="1262.989" gradientTransform="scale(1 -1) rotate(-41.623 3377.845 -723.993)" gradientUnits="userSpaceOnUse"><stop offset="0" stop-color="#ffe67b"/><stop offset=".353" stop-color="#ea1398"/><stop offset="1" stop-color="#0d2570"/></radialGradient><path fill="url(#prefix__SVGID_8_)" d="m3299.1 312.2-232.6 53.4 118.1 37.9z"/><radialGradient id="prefix__SVGID_9_" cx="7164.451" cy="4203.684" r="1931.645" gradientTransform="matrix(1 0 0 -1 -2938 3098.6)" gradientUnits="userSpaceOnUse"><stop offset="0" stop-color="#ffe67b"/><stop offset=".353" stop-color="#ea1398"/><stop offset="1" stop-color="#0d2570"/></radialGradient><path fill="url(#prefix__SVGID_9_)" d="m3158-554.2-892 400.7 306.8-400.7z"/><radialGradient id="prefix__SVGID_10_" cx="4927.617" cy="3660.816" r="1843.987" gradientTransform="matrix(1 0 0 -1 -2938 3098.6)" gradientUnits="userSpaceOnUse"><stop offset="0" stop-color="#ffe67b"/><stop offset=".353" stop-color="#ea1398"/><stop offset="1" stop-color="#0d2570"/></radialGradient><path fill="url(#prefix__SVGID_10_)" d="m2266-153.5 89.4-400.7h217.4z"/><path d="M1203.6-449.7 2220.7 193m45.3-347.1 1120-400.1m-809.9 908.7-194.4-351 273.8 109.4zm79.4-241.6 109.3-10.6-188.7 252.2z" class="prefix__st10"/><path d="M2764.8 102.3 2381.7 3.5l273.8 109.4zm1173.1-560.2 136.2-40.3-14.4 78.7zm121.8 38.4 19.2 34.5-141-72.9zm19.2 34.5-4.8-113.2-14.4 78.7zM1590.1 227l-215-6.7 137.7-89z" class="prefix__st10"/><path d="m1512.8 131.3 31.7-49.4 45.6 145.1z" class="prefix__st10"/><path d="m1544.5 81.9-169.4 138.4 137.7-89z" class="prefix__st10"/><radialGradient id="prefix__SVGID_11_" cx="4407.53" cy="-2563.765" r="1308.635" gradientTransform="scale(-1 1) rotate(33.655 -2555.267 -15087.887)" gradientUnits="userSpaceOnUse"><stop offset="0" stop-color="#ffe67b"/><stop offset=".353" stop-color="#ea1398"/><stop offset="1" stop-color="#0d2570"/></radialGradient><path fill="url(#prefix__SVGID_11_)" d="m3488.6-419.4-153.9 131.9 84.7-196.9z"/><radialGradient id="prefix__SVGID_12_" cx="888.849" cy="-1875.638" r="1308.786" gradientTransform="matrix(0 .4053 .8072 0 5294.456 -204.616)" gradientUnits="userSpaceOnUse"><stop offset="0" stop-color="#ffe67b"/><stop offset=".353" stop-color="#ea1398"/><stop offset="1" stop-color="#0d2570"/></radialGradient><path fill="url(#prefix__SVGID_12_)" d="m3944.3 313.5 19.7 81.6-94.4-72.8z"/></svg>