<svg xmlns="http://www.w3.org/2000/svg" xml:space="preserve" id="prefix__Layer_1" x="0" y="0" version="1.1" viewBox="69 147 750 258.6"><style>.prefix__st2{fill:#4a4f52}.prefix__st3{fill:#ff4f66}</style><g id="prefix__OBJECTS"><path fill="none" stroke="#ff4f66" stroke-miterlimit="10" stroke-width=".25" d="m69 413 266-266M69 398.6 320.5 147M69 384.1 306.1 147M69 369.7 291.7 147M69 355.3 277.3 147"/><path fill="#e5e5e5" d="M632.6 147h-71.1L819 404.5v-71.1z"/><path d="m424.1 147 33.7 33.8 33.8-33.8z" class="prefix__st2"/><path d="m717.026 436.313-60.174-60.176 60.176-60.173 60.174 60.175z" class="prefix__st3"/><path d="m629.92 378.87-28-28.002 28.001-28 28.001 28.001zM819 317.4v-68.8L717.4 147h-68.8z" class="prefix__st2"/><path d="M819 165.7V147h-39.3L674 252.7 568.4 147h-58L674 310.6z" class="prefix__st3"/><path fill="none" stroke="#b9bcc3" stroke-miterlimit="10" stroke-width=".5" d="M819 345.8 620.2 147M819 354.9 611.1 147M819 364 602 147m217 226L593 147m226 235.1L583.9 147" opacity=".6"/><linearGradient id="prefix__SVGID_1_" x1="64.149" x2="163.163" y1="514.449" y2="613.463" gradientTransform="matrix(1 0 0 -1 0 796)" gradientUnits="userSpaceOnUse"><stop offset="0" stop-color="#ff4f66"/><stop offset=".424" stop-color="#c22b3f"/><stop offset=".762" stop-color="#e94258"/><stop offset="1" stop-color="#ff4f66"/></linearGradient><path fill="url(#prefix__SVGID_1_)" d="M69 288.2v58l158.7-158.7-40.5-40.5h-58l40.5 40.5z"/><circle cx="678" cy="377.5" r="1.4" class="prefix__st2"/><circle cx="691" cy="377.5" r="1.4" class="prefix__st2"/><circle cx="704" cy="377.5" r="1.4" class="prefix__st2"/><circle cx="717" cy="377.5" r="1.4" class="prefix__st2"/><circle cx="678" cy="390.5" r="1.4" class="prefix__st2"/><circle cx="691" cy="390.5" r="1.4" class="prefix__st2"/><circle cx="704" cy="390.5" r="1.4" class="prefix__st2"/><circle cx="717" cy="390.5" r="1.4" class="prefix__st2"/><circle cx="678" cy="403.5" r="1.4" class="prefix__st2"/><circle cx="691" cy="403.5" r="1.4" class="prefix__st2"/><circle cx="704" cy="403.5" r="1.4" class="prefix__st2"/><circle cx="717" cy="403.5" r="1.4" class="prefix__st2"/><path d="m154.617 405.651-32.244-32.244 32.245-32.244 32.243 32.245z" class="prefix__st2"/><path d="M412.6 147h-67.9L196.9 294.8 69 167v67.9l127.9 127.8z" class="prefix__st3"/><path d="M129.2 147H112l-43 43v58l80.6-80.6z" class="prefix__st2"/><circle cx="157.9" cy="242.6" r="1.4" class="prefix__st2"/><circle cx="170.9" cy="242.6" r="1.4" class="prefix__st2"/><circle cx="183.9" cy="242.6" r="1.4" class="prefix__st2"/><circle cx="196.9" cy="242.6" r="1.4" class="prefix__st2"/><circle cx="209.9" cy="242.6" r="1.4" class="prefix__st2"/><circle cx="222.9" cy="242.6" r="1.4" class="prefix__st2"/><circle cx="235.9" cy="242.6" r="1.4" class="prefix__st2"/><circle cx="157.9" cy="255.6" r="1.4" class="prefix__st2"/><circle cx="170.9" cy="255.6" r="1.4" class="prefix__st2"/><circle cx="183.9" cy="255.6" r="1.4" class="prefix__st2"/><circle cx="196.9" cy="255.6" r="1.4" class="prefix__st2"/><circle cx="209.9" cy="255.6" r="1.4" class="prefix__st2"/><circle cx="222.9" cy="255.6" r="1.4" class="prefix__st2"/><circle cx="235.9" cy="255.6" r="1.4" class="prefix__st2"/><circle cx="157.9" cy="268.6" r="1.4" class="prefix__st2"/><circle cx="170.9" cy="268.6" r="1.4" class="prefix__st2"/><circle cx="183.9" cy="268.6" r="1.4" class="prefix__st2"/><circle cx="196.9" cy="268.6" r="1.4" class="prefix__st2"/><circle cx="209.9" cy="268.6" r="1.4" class="prefix__st2"/><circle cx="222.9" cy="268.6" r="1.4" class="prefix__st2"/><circle cx="235.9" cy="268.6" r="1.4" class="prefix__st2"/><circle cx="157.9" cy="281.6" r="1.4" class="prefix__st2"/><circle cx="170.9" cy="281.6" r="1.4" class="prefix__st2"/><circle cx="183.9" cy="281.6" r="1.4" class="prefix__st2"/><circle cx="196.9" cy="281.6" r="1.4" class="prefix__st2"/><circle cx="209.9" cy="281.6" r="1.4" class="prefix__st2"/><circle cx="222.9" cy="281.6" r="1.4" class="prefix__st2"/><circle cx="235.9" cy="281.6" r="1.4" class="prefix__st2"/><circle cx="157.9" cy="294.6" r="1.4" class="prefix__st2"/><circle cx="170.9" cy="294.6" r="1.4" class="prefix__st2"/><circle cx="183.9" cy="294.6" r="1.4" class="prefix__st2"/><circle cx="196.9" cy="294.6" r="1.4" class="prefix__st2"/><circle cx="209.9" cy="294.6" r="1.4" class="prefix__st2"/><circle cx="222.9" cy="294.6" r="1.4" class="prefix__st2"/><circle cx="235.9" cy="294.6" r="1.4" class="prefix__st2"/></g></svg>