<?xml version="1.0" standalone="no"?>
<!DOCTYPE svg PUBLIC "-//W3C//DTD SVG 20010904//EN"
 "http://www.w3.org/TR/2001/REC-SVG-20010904/DTD/svg10.dtd">
<svg version="1.0" xmlns="http://www.w3.org/2000/svg"
 width="600.000000pt" height="600.000000pt" viewBox="0 0 600.000000 600.000000"
 preserveAspectRatio="xMidYMid meet">
<metadata>
Created by potrace 1.14, written by Peter Selinger 2001-2017
</metadata>
<g transform="translate(0.000000,600.000000) scale(0.100000,-0.100000)"
fill="#000000" stroke="none">
<path d="M2252 5239 c-16 -6 -17 -57 -17 -685 l0 -679 765 -1 c421 -1 770 1
775 3 7 2 10 238 9 684 l-1 681 -757 2 c-417 0 -765 -2 -774 -5z m1135 -723
l-2 -341 -382 -1 c-340 0 -383 2 -384 15 -1 21 -1 632 0 651 1 14 48 16 385
16 l385 0 -2 -340z"/>
<path d="M1355 4510 c-1 -3 -2 -148 -2 -322 l0 -318 108 0 c77 0 108 4 111 13
3 10 2 569 -1 617 -1 13 -18 16 -107 15 -58 0 -107 -2 -109 -5z"/>
<path d="M1683 4506 c-5 -7 -8 -547 -4 -617 1 -14 17 -16 119 -16 64 0 119 4
122 8 4 6 5 583 1 624 -1 13 -230 14 -238 1z"/>
<path d="M4094 4511 c-2 -2 -4 -147 -4 -321 l0 -317 123 1 122 1 0 313 c1 172
-2 316 -5 320 -5 8 -228 10 -236 3z"/>
<path d="M4442 4505 c-4 -5 -7 -149 -7 -320 l1 -310 110 -3 111 -3 -1 323 -1
323 -103 0 c-60 0 -106 -4 -110 -10z"/>
<path d="M1089 4230 c-1 -44 -1 -249 0 -312 l1 -48 75 0 75 0 0 73 c2 256 2
309 -3 313 -2 3 -37 6 -76 7 l-71 2 -1 -35z"/>
<path d="M4814 4262 l-41 -3 1 -194 0 -195 76 0 77 0 0 195 c0 172 -2 195 -16
196 -9 0 -25 1 -36 2 -11 1 -38 1 -61 -1z"/>
<path d="M447 3833 c4 -9 13 -24 20 -33 7 -8 55 -76 107 -150 52 -74 99 -140
104 -146 5 -5 15 -20 21 -32 l12 -22 607 0 607 0 -2 192 c0 106 -2 196 -2 201
-1 4 -334 7 -741 7 -693 0 -739 -1 -733 -17z"/>
<path d="M1955 3653 l0 -198 1055 0 1055 0 -1 195 0 195 -1055 3 -1054 2 0
-197z"/>
<path d="M4090 3651 l1 -200 598 0 c328 0 601 3 607 7 15 11 64 80 64 90 0 6
4 12 8 14 9 3 202 275 202 283 0 3 -333 5 -740 5 l-741 0 1 -199z"/>
<path d="M745 3411 c-3 -2 6 -19 20 -37 14 -18 25 -37 25 -42 0 -6 4 -12 8
-14 5 -1 43 -52 84 -111 42 -59 78 -104 80 -100 7 15 2 292 -6 300 -8 8 -203
12 -211 4z"/>
<path d="M1086 3411 c-2 -3 -3 -116 -2 -251 l1 -246 73 -102 c40 -56 74 -102
75 -102 5 0 2 700 -3 701 -19 5 -142 4 -144 0z"/>
<path d="M1355 3395 c-2 -11 -3 -209 -3 -440 l1 -420 101 -147 c55 -81 106
-149 111 -151 7 -3 10 191 9 572 -1 317 -2 583 -3 591 -1 13 -19 15 -106 15
-98 0 -106 -1 -110 -20z"/>
<path d="M1682 3413 c-4 -2 -7 -304 -6 -673 1 -609 2 -672 17 -688 10 -10 17
-23 17 -29 0 -6 4 -13 8 -15 7 -3 79 -101 107 -147 6 -9 13 -18 16 -21 3 -3
20 -26 37 -52 18 -26 36 -49 40 -52 8 -5 9 1661 0 1669 -5 6 -221 12 -236 8z"/>
<path d="M2240 3395 c-4 -11 -4 -25 1 -31 5 -6 7 -13 4 -15 -5 -5 -6 -43 -6
-189 0 -58 0 -156 0 -217 0 -62 3 -117 6 -123 3 -5 2 -10 -4 -10 -6 0 -8 -7
-4 -17 5 -13 11 -10 36 18 16 19 56 63 88 99 102 115 98 106 99 211 1 52 1
139 1 194 l-1 100 -106 0 c-97 0 -107 -2 -114 -20z"/>
<path d="M3613 3412 l-63 -3 0 -192 c0 -191 0 -192 26 -222 55 -65 111 -129
141 -164 18 -20 33 -39 33 -43 0 -5 5 -8 10 -8 6 0 10 111 10 314 l0 314 -47
4 c-27 1 -76 2 -110 0z"/>
<path d="M4183 3412 l-93 -3 0 -834 c0 -510 4 -835 9 -835 5 0 12 8 15 18 4
10 15 28 26 39 11 12 27 34 37 50 10 16 49 72 86 126 l69 97 0 668 0 667 -29
5 c-15 3 -70 4 -120 2z"/>
<path d="M4439 3410 c-1 -3 -2 -269 -3 -591 -1 -456 2 -585 11 -582 7 3 15 13
18 24 4 10 11 19 16 19 5 0 9 7 9 15 0 9 7 18 15 21 8 4 15 10 15 15 0 9 37
66 50 79 3 3 23 30 45 60 l40 55 1 445 1 445 -108 0 c-60 1 -109 -2 -110 -5z"/>
<path d="M4825 3410 l-50 -5 -1 -349 0 -348 23 28 c13 16 28 34 33 41 6 7 10
16 10 22 0 5 3 11 8 13 4 2 23 26 42 53 l35 50 1 247 1 246 -26 4 c-14 1 -48
1 -76 -2z"/>
<path d="M5048 3400 c-2 -8 -3 -64 -2 -125 3 -188 2 -179 19 -165 8 7 15 16
15 21 0 5 19 36 43 69 105 147 147 208 147 211 0 3 -49 4 -109 4 -90 0 -110
-2 -113 -15z"/>
<path d="M2857 3199 c-26 -9 -50 -18 -52 -18 -34 -9 -35 -13 -35 -140 l0 -126
70 0 c39 0 70 2 71 5 4 19 3 283 -1 289 -3 4 -27 0 -53 -10z"/>
<path d="M3096 3071 c1 -80 2 -148 3 -151 0 -3 31 -5 68 -4 l68 1 3 123 c3
133 3 132 -53 149 -16 5 -44 14 -60 19 l-30 9 1 -146z"/>
<path d="M2553 3026 l-108 -104 95 -1 c52 0 102 2 110 4 12 4 15 24 16 105 0
55 -1 100 -2 100 -1 0 -51 -47 -111 -104z"/>
<path d="M3346 3027 c1 -56 2 -104 3 -107 1 -7 211 -6 211 1 0 6 -189 191
-206 201 -6 5 -9 -28 -8 -95z"/>
<path d="M2419 2892 c-8 -2 -48 -47 -89 -100 -77 -98 -246 -306 -306 -377 -18
-22 -34 -44 -34 -50 0 -12 989 -14 1008 -2 6 5 12 5 12 0 0 -4 227 -8 505 -8
278 0 505 3 505 8 0 6 -225 292 -363 461 -18 22 -37 46 -43 55 -10 13 -84 15
-596 16 -321 0 -591 -2 -599 -3z"/>
<path d="M2237 2315 c-2 -5 -3 -240 -2 -522 l1 -511 50 -74 c88 -127 203 -292
216 -310 7 -10 40 -56 72 -103 32 -47 61 -83 64 -81 6 7 8 1606 2 1607 -33 7
-401 2 -403 -6z"/>
<path d="M2787 2322 c-16 -3 -17 -52 -15 -900 l3 -896 65 -1 c36 -1 70 0 75 2
11 4 13 1778 2 1790 -8 7 -101 11 -130 5z"/>
<path d="M3108 2322 c-10 -2 -18 -11 -19 -20 0 -9 -1 -412 -2 -894 -1 -578 1
-879 8 -881 9 -3 115 -1 138 2 4 1 7 34 7 74 0 39 1 80 1 90 0 9 0 33 0 52 0
19 0 41 0 48 1 12 1 825 0 860 -1 27 0 86 0 100 0 6 0 37 0 67 0 30 -1 63 0
73 0 9 0 33 0 52 0 19 0 41 0 48 1 19 0 129 -2 157 0 14 0 32 0 40 2 54 0 124
-4 128 -6 6 -102 9 -127 4z"/>
<path d="M3374 2318 c-4 -6 -7 -1434 -4 -1596 0 -18 9 -10 43 40 86 124 156
223 171 241 9 9 16 19 16 21 0 3 33 50 73 106 39 56 77 109 82 118 6 9 13 19
16 22 7 5 10 1016 3 1040 -3 13 -34 15 -200 15 -108 0 -198 -3 -200 -7z"/>
</g>
</svg>
